<?xml version="1.0" encoding="UTF-8"?>
<svg id="Layer_1" data-name="Layer 1" xmlns="http://www.w3.org/2000/svg" viewBox="0 0 500 416.7">
  <defs>
    <style>
      .cls-1 {
        stroke-width: 0px;
      }
    </style>
  </defs>
  <g>
    <path class="cls-1" d="M306.6,120.6c27.88-.63,55.76-1.32,83.64-1.99,1.14-.03,2.34-.12,3.39-.5,2.77-.99,3.97-3.13,3.56-5.99-.39-2.72-2.12-4.29-4.88-4.57-1.03-.1-2.08-.04-3.12-.01-27.89.66-55.78,1.32-83.66,1.98.18.78.39,1.55.52,2.35.46,2.9.55,5.81.54,8.72Z"/>
    <path class="cls-1" d="M499.95,372.22c-1.12-22.27-2.7-44.52-3.6-66.8-1.09-27.07-4.12-53.82-10.19-80.27-5.55-24.18-10.41-48.51-15.62-72.76-.33-1.54-.43-2.7.75-4.09,7.32-8.67,8.31-18.46,3.59-28.46-4.67-9.87-13.1-14.1-23.98-13.76-11.78.37-23.57.55-35.35.82-4.37.1-6.96,2.14-7.01,5.51-.05,3.55,2.6,5.66,7.21,5.57,12.36-.24,24.72-.57,37.08-.8,5.95-.11,10.12,2.71,12.38,8.18,4.19,10.13-2.03,19.96-13.03,20.25-27.01.7-54.02,1.3-81.03,1.93,5.07,2.2,8.65,6.04,10.27,10.92,14.97-.37,29.94-.73,44.91-1.12,10.5-.28,21.04.09,31.49-1.25,1.95-.25,2.27.6,2.61,2.19,2.87,13.55,5.87,27.07,8.75,40.61,4.59,21.56,9.43,43.07,12.98,64.83,1.58,9.72,1.67,19.56,2.26,29.35,1.59,26.41,3.02,52.83,4.42,79.25.74,13.85-7,22.37-20.74,23.17-39.13,2.25-78.26,4.52-117.38,6.78-4.13,4.68-9.49,8.45-16.07,11.31-.76.33-1.53.61-2.32.88,7.15-.41,14.31-.79,21.46-1.21,38.29-2.21,76.58-4.49,114.87-6.67,19.62-1.11,32.26-14.8,31.28-34.35Z"/>
    <path class="cls-1" d="M382.07,338.19c3.38-1.97,6.36-2.68,9.99-.67,4.08,2.26,8.56,3.43,11.87,3.35,13.02-.01,23.67-7.86,27.27-19.04,3.41-10.59-.3-21.19-10.05-28.27-4.55-3.31-8.23-7.26-11.23-12.07-5.79-9.28-14.49-13.9-25.34-13.48-10.49.4-18.55,5.37-23.69,14.35,0,6.35,0,12.71,0,19.06,3.74-3.89,6.84-8.24,9.34-13.18,3.06-6.05,8.41-9.17,15.17-9.28,6.61-.1,11.93,2.79,15.26,8.54,3.43,5.93,7.96,10.72,13.47,14.68,6.22,4.46,8.5,10.48,6.35,16.77-2.18,6.38-8.5,10.74-16.02,10.69-2.31.05-4.93-.69-7.4-2.09-6.89-3.91-13.61-3.55-20.24.76-5.24,3.41-11.15,3.74-15.92,1.74,0,3.88,0,7.76,0,11.63,6.79,1.57,14.31.49,21.16-3.5Z"/>
    <path class="cls-1" d="M390.9,248.71c1.78,5.77,6.89,9.48,12.7,9.3,5.97-.18,10.98-4.37,12.32-10.31,2.01-8.9-4.96-22.05-13.5-25.45-4.98-1.98-9.89.38-11.45,5.63-1.03,3.44-1.51,6.99-1.47,10.6.1,1.84.1,3.7.34,5.52.21,1.59.6,3.18,1.07,4.71Z"/>
    <path class="cls-1" d="M376.59,248.95c.48-2.17.56-4.34.56-7.17.09-1.92-.21-4.44-.73-6.93-.37-1.8-.8-3.6-1.37-5.35-2.15-6.52-8.25-8.78-13.67-4.67-.17.13-.32.28-.49.41,0,11.32,0,22.65,0,33.97.65.15,1.31.27,1.98.31,6.91.4,12.18-3.7,13.71-10.57Z"/>
    <path class="cls-1" d="M425.82,283.98c5.51,2.04,11.79-.47,15.04-6.04,1.85-3.16,2.63-6.61,2.77-10.16-.15-5.05-1.55-9.61-4.64-13.56-3.32-4.25-7.07-4.5-10.79-.57-4.29,4.52-7.06,10.03-8.63,15.96-1.82,6.91.81,12.35,6.24,14.37Z"/>
  </g>
  <g>
    <path class="cls-1" d="M350.73,402.26c5.6-6.35,8.94-14.37,9.92-24.09.23-2.29.26-4.6.26-6.91,0-9.86,0-19.72,0-29.58,0-3.88,0-7.76,0-11.63,0-9.54,0-19.08,0-28.62,0-6.35,0-12.71,0-19.06,0-7.72,0-15.43,0-23.15,0-11.32,0-22.65,0-33.97,0-5.04,0-10.08,0-15.11,0-4.6-.41-9.21-.68-13.81-.25-4.15,2.47-7.63,2.58-11.74.03-1.1,1.57-.72,2.45-.89,10.79-2.13,17.38-9.56,17.19-19.44-.04-2.06-.39-4-.99-5.81-1.63-4.88-5.21-8.72-10.27-10.92-1.91-.83-4.02-1.44-6.33-1.77-2.44-.35-2.28-1.74-2.52-3.3-1.75-11.5-11.69-18.61-22.92-16.29-5.96,1.23-10.42,4.72-12.92,10.19-1.33,2.92-2.38,2.68-4.6,1.16-3.92-2.68-8.21-4.77-12.68-6.37-2.02-.72-2.66-1.77-2.66-3.84,0-2.24.06-4.47.07-6.71,0-2.91-.08-5.82-.54-8.72-.13-.81-.34-1.57-.52-2.35-1.05-4.53-2.96-8.69-5.89-12.38-2.42-3.05-5.76-3.69-8.58-1.79-2.9,1.96-3.66,5.75-1.19,8.92,1.38,1.78,2.32,3.64,2.99,5.55,1.25,3.53,1.52,7.25,1.53,11.04,0,1.05,0,2.11-.03,3.16-.03,1.66-.46,2.4-2.36,2.27-10.81-.75-21.63-1.02-32.45-1.09-4.39-.03-8.78-.04-13.17-.01-16.11.08-32.22.4-48.32.13-6.1-.1-12.24-.31-18.25.9-2.97.6-3.49-.56-3.28-3.1.16-1.89,0-3.8.04-5.69.18-11.91,8.66-20.5,20.62-20.55,24.01-.1,48.01-.03,72.02-.04,1.22,0,2.45.09,3.66-.04,3.43-.39,5.43-2.32,5.67-5.8.22-3.32-2.09-6.03-5.59-6.26-3.78-.24-7.6-.22-11.39-.06-2.35.1-2.98-.73-2.96-3,.09-12.48.1-24.96,0-37.43-.02-2.39.84-3,3.06-2.94,2.83.08,5.72.09,8.51-.35,10.75-1.69,18.41-11.1,17.64-21.45-.82-11.07-9.51-19.45-20.68-19.48-39.06-.08-78.12-.09-117.18,0-11.69.03-20.5,8.99-20.61,20.72-.11,11.93-.06,23.87-.01,35.81.02,5.01,2.13,7.18,7.19,7.23,9.22.09,18.45.1,27.67,0,4.88-.06,6.83-2.12,6.95-7.04.1-4.2.11-8.41,0-12.61-.05-2.11.73-2.82,2.84-2.81,11.93.07,23.87.07,35.81,0,1.94,0,2.57.67,2.56,2.59-.06,12.75-.09,25.5.01,38.25.02,2.47-1.26,2.44-3.04,2.49-6.22.17-12.47-.56-18.67.63-14.83,2.85-25.72,15.45-26.23,30.54-.15,4.47,1.23,9.56-.48,13.25-1.74,3.76-7.55,3.95-11.35,6.21-27.66,16.46-42.11,40.67-42.6,72.89-.29,18.71-.11,37.43.01,56.15.02,2.88-.64,4.01-3.71,4.26-6.01.48-11.2,3.21-15.38,7.51-1.64,1.69-2.79,1.68-4.85.76-17.66-7.82-36.33,2.82-38.91,22.15-.27,2-1.08,2.6-2.85,3.2-16.26,5.48-23.65,20.99-17.51,37.04,1.12,2.92-.56,3.08-2.22,3.87-18.75,8.9-27.33,29.97-19.9,48.83,1.76,4.46,4.8,6.25,8.35,4.91,3.47-1.31,4.6-4.69,3.05-9.2-6.26-18.29,5.71-35.77,25.04-35.88,37.16-.22,74.33-.15,111.49-.02,15.28.06,26.94,11.65,27,26.27.05,14.78-11.83,26.39-27.24,26.41-37.03.05-74.05,0-111.08.03-3.58,0-6.98-.71-10.35-1.82-4.13-1.35-7.38.08-8.56,3.64-1.1,3.31.61,6.36,4.57,7.82,2.63.97,5.35,1.71,8.03,2.55h289.72c2.54-.78,5.15-1.39,7.66-2.25.78-.27,1.56-.55,2.32-.88,6.58-2.85,11.94-6.63,16.07-11.31ZM243.25,84.71c-5.28-.15-10.56-.16-15.84,0-2.4.08-2.95-.82-2.91-3.04.13-6.23.04-12.46.04-18.68,0-6.23.09-12.46-.05-18.68-.05-2.34.74-3.03,3.01-2.97,5.28.14,10.56.16,15.84,0,2.55-.08,3.18.86,3.16,3.28-.1,12.32-.12,24.64,0,36.96.03,2.58-.88,3.2-3.27,3.13ZM167.22,29.18c-6.33,0-8.17,1.87-8.23,8.27-.04,3.8-.09,7.59.02,11.39.06,2.11-.71,2.9-2.83,2.84-3.79-.11-7.6-.2-11.38.03-2.84.17-3.33-1.07-3.3-3.55.12-8.54.03-17.08.05-25.62.02-7.32,3.02-10.28,10.45-10.29,18.84-.02,37.69,0,56.53,0,18.44,0,36.87,0,55.31,0,7.74,0,11.91,3.02,11.81,8.56-.1,5.54-4.18,8.38-12.05,8.38-32.13,0-64.26,0-96.39,0ZM336.61,145.65c.18-4.65,2.69-7.58,6.61-7.71,4.08-.14,6.85,2.86,7.1,7.67.05.87.09,1.65.13,2.4.55,9.37,1.36,9.42,12.34,9.83,1.48.06,2.77.41,3.87.98,2.1,1.09,3.41,3.03,3.53,5.52.19,3.87-2.77,6.95-7.16,7.24-2.16.15-4.33,0-6.5.07-3.71.11-5.77,2.12-6.09,5.75-.23,2.56,0,5.15-.27,7.7-.4,3.83-3.12,6.23-6.73,6.23-4.22,0-6.67-2.8-6.84-7.83q-.39-11.44-11.92-11.88c-4.8-.18-7.96-2.87-8.04-6.85-.04-1.99.71-3.64,2.04-4.85,1.44-1.29,3.56-2.06,6.18-2.1,10.25-.15,11.32-.49,11.66-9.48.03-.72.05-1.47.07-2.31,0-.14,0-.27,0-.41ZM110.01,336.25c.02,2.79-.98,3.35-3.51,3.33-10.44-.12-20.88-.05-31.32-.05-10.31,0-20.61-.1-30.92.07-2.73.04-4.22-1.04-5.47-3.24-5.75-10.09,1.16-22.57,12.84-23.01,2.5-.09,4.87-.18,6.66-2.27,2.06-2.4,1.15-5.14.97-7.79-.45-6.78,2.31-11.87,8.26-15.08,5.68-3.07,12.24-2.1,17.39,2.32,5.14,4.39,8.38,3.92,11.65-1.87,2.18-3.87,5.33-6.43,9.54-7.7,2.47-.74,3.95-.56,3.92,2.83-.15,17.49-.13,34.99,0,52.48ZM182.05,403.8c.43-.56.84-1.08,1.23-1.6,8.98-11.89,11.17-24.94,5.46-38.69-5.76-13.88-16.55-21.93-31.55-23.57-10.25-1.12-20.6-.39-30.9-.32-3.47.02-4.22-1.05-4.21-4.36.11-41.36.06-82.73.1-124.09,0-4.06.22-8.13.61-12.17,3.21-32.87,32.5-60.74,65.44-61.31,18.62-.32,37.25-.35,55.88-.27,3.79.02,7.58.03,11.37.05,9.05.06,18.09.13,27.13.21,11.4.1,22.05,3.67,31.89,9.65-.3.44-.4.7-.59.83-.38.26-.7.54-1.06.8-4.16,3.09-6.93,6.83-7.92,11.29-.58,2.58-.6,5.39.09,8.46,2,8.99,8.1,13.8,17.07,14.97,2.04.26,2.24,1.28,2.48,2.91,1.55,10.79,9.4,17.53,20.23,16.8,3.77-.25,3.91,1.38,3.91,4.1,0,20.88,0,41.76.02,62.65,0,4.57,0,9.14,0,13.71,0,4.6,0,9.2,0,13.8,0,12.45-.03,24.9-.05,37.35-.02,13.1,0,26.21-.05,39.31-.06,15.45-9.58,26.61-23.67,29.45-2.29.46-4.69.73-7.21.73-2.07,0-4.13,0-6.2,0-6.66,0-13.33,0-19.99,0-10.6,0-21.2,0-31.81,0-24.74,0-49.49,0-74.23,0-1.11,0-2.4.55-3.48-.66Z"/>
    <path class="cls-1" d="M15.99,241.79c2.96.43,3.95,1.5,4.35,4.44,1.24,9.17,9.43,15.89,18.79,15.84,9.48-.05,17.52-7,18.63-16.5.3-2.6,1.31-3.3,3.67-3.66,9.91-1.54,16.72-9.48,16.58-19.04-.14-9.61-7.11-17.34-17.07-18.59-2.27-.28-2.84-1.15-3.11-3.24-1.31-9.9-9.12-16.87-18.72-16.94-9.57-.07-17.53,6.84-18.89,16.73-.35,2.56-1.34,3.22-3.79,3.51C7.2,205.43.2,213.42,0,222.69c-.2,9.46,6.53,17.72,15.98,19.1ZM18.45,216.41c2.15-.2,4.33-.05,6.49-.13,4.83-.19,6.9-2.21,7.12-6.97.09-1.89-.05-3.8.07-5.68.29-4.5,3.2-7.44,7.09-7.28,3.77.15,6.81,3.05,6.48,7.35-.81,10.87,2.12,13.47,12.68,12.71,4.3-.31,7.21,2.68,7.38,6.45.17,3.86-2.79,6.86-7.23,7.17-1.89.13-3.79,0-5.68.06-4.79.18-6.79,2.18-7.01,7.05-.1,2.3.07,4.62-.2,6.89-.42,3.5-3.26,5.85-6.68,5.83-3.4-.02-6.16-2.33-6.64-5.9-.3-2.27-.15-4.59-.25-6.89-.22-4.9-2.14-6.8-7.01-7-2.43-.1-4.9.06-7.28-.34-3.5-.59-5.73-3.61-5.55-6.95.18-3.38,2.68-6.04,6.22-6.37Z"/>
    <path class="cls-1" d="M61.33,155.81c1.14.34,2.4.37,3.6.39,5.56.1,5.56.09,5.64,5.6.07,5.19,2.17,7.84,6.15,7.78,3.87-.06,5.98-2.84,6.05-7.99q.08-5.31,5.4-5.37c1.49-.02,2.97.05,4.38-.63,2.62-1.28,3.84-3.36,3.52-6.24-.32-2.92-2.21-5.42-4.86-5.07-7.18.93-9.29-1.88-8.81-8.74.23-3.26-2.82-5.28-6.21-5.02-3.34.26-5.38,2.34-5.57,5.87-.05.95-.18,1.92-.02,2.84.67,3.97-.95,5.1-4.86,4.88-5.81-.34-8.76,1.96-8.74,6.3.23,2.5,1.57,4.57,4.34,5.41Z"/>
    <path class="cls-1" d="M235.53,338.17c4.36,0,8.64-.38,12.81-1.06,3.85-.63,7.6-1.53,11.24-2.69,6.05-1.93,11.78-4.55,17.11-7.79,3.8-2.31,7.37-4.95,10.71-7.85,16.83-14.59,27.48-36.12,27.45-60.16-.03-26.53-13.22-50.06-33.32-64.44-3.6-2.58-7.41-4.86-11.42-6.81-3.96-1.93-8.11-3.53-12.4-4.78-3.52-1.03-7.13-1.82-10.83-2.35-3.82-.54-7.72-.82-11.69-.79-44.1.31-79.19,35.72-79.03,79.73.14,39.27,28.84,71.78,66.35,77.93,3.59.59,7.26.93,11,1.02.68.02,1.35.05,2.03.05ZM168.36,260.03c-.44-37.81,28.98-67.95,66.77-68.39,3.17-.04,6.3.17,9.36.57,3.7.49,7.32,1.29,10.82,2.37,5.47,1.7,10.66,4.1,15.45,7.08,4.15,2.58,8.02,5.6,11.51,9,12.34,12.02,20.14,28.71,20.35,47.09.19,17.05-5.85,32.59-16.02,44.52-3.16,3.71-6.71,7.07-10.61,10.02-4.75,3.59-10.01,6.56-15.66,8.8-3.63,1.44-7.41,2.59-11.32,3.4-4.21.87-8.57,1.37-13.05,1.43-.45,0-.9-.01-1.35-.02-3.74-.02-7.42-.36-11-.99-30.87-5.45-54.87-32.51-55.25-64.9Z"/>
    <path class="cls-1" d="M262.68,286.67c1.07-3.02,1.68-6.24,1.66-9.59-.01-1.75-.21-3.47-.53-5.14-1.26-6.61-4.82-12.46-9.8-16.69-2.63-2.23-5.65-3.98-8.94-5.17-3-1.09-6.21-1.71-9.55-1.72-.47,0-.94.05-1.4.07-15.24.71-27.51,13.46-27.45,28.94.04,12.49,8.06,23.03,19.23,26.98,3.1,1.1,6.43,1.71,9.91,1.68.34,0,.68-.05,1.02-.06,4.96-.22,9.61-1.73,13.63-4.21,5.62-3.46,9.99-8.79,12.22-15.08ZM238.42,293.54c-.98.18-1.98.28-3,.28-2.87,0-5.56-.75-7.91-2.04-5.13-2.82-8.61-8.26-8.63-14.51-.02-7.97,5.67-14.74,13.18-16.34,1.05-.23,2.14-.35,3.25-.36,2.76-.03,5.39.67,7.72,1.89,5.4,2.83,9.17,8.53,9.1,14.92-.09,8.03-6.04,14.76-13.71,16.17Z"/>
    <path class="cls-1" d="M246.7,240.65c3.42-3.11,5.58-7.59,5.52-12.57-.03-2.68-.72-5.21-1.89-7.46-2.02-3.88-5.52-6.88-9.74-8.24-1.59-.51-3.28-.8-5.04-.8-9.37-.03-16.79,7.35-16.79,16.71,0,9.06,6.99,16.27,15.93,16.67.29.01.58.04.87.04,4.28-.02,8.18-1.68,11.13-4.36ZM235.54,232.74c-2.89.01-4.35-1.73-4.57-4.58.33-2.63,1.73-4.3,4.43-4.3,1.19,0,2.16.31,2.9.85,1.07.78,1.65,2.06,1.62,3.72-.04,2.15-1.17,3.64-3.05,4.13-.41.11-.85.18-1.34.18Z"/>
    <path class="cls-1" d="M212.41,249.17c.11-9.31-7.27-16.96-16.51-17.09-9.17-.13-16.88,7.47-16.92,16.7-.05,9.34,7.38,16.8,16.73,16.79,9.2,0,16.59-7.26,16.7-16.4ZM195.49,253.33c-2.62-.32-4.25-1.75-4.23-4.45.02-2.91,1.84-4.59,4.62-4.48,2.77.12,4.47,1.92,4.25,4.83-.2,2.7-1.95,3.98-4.65,4.09Z"/>
    <path class="cls-1" d="M258.54,248.88c0,5.28,2.35,9.91,6.07,12.95,2.52,2.06,5.68,3.37,9.17,3.66.51.04,1.03.07,1.55.07,3.48-.02,6.72-1.11,9.39-2.95,4.34-2.98,7.21-7.93,7.28-13.55.08-6.25-3.45-11.84-8.62-14.79-2.41-1.37-5.16-2.17-8.08-2.19-1.05,0-2.08.1-3.08.28-1.87.34-3.63,1-5.23,1.91-5.04,2.89-8.45,8.34-8.45,14.62ZM272.82,244.98c.69-.39,1.53-.6,2.51-.59,2.61.01,4.35,1.75,4.37,4.37.02,2.8-1.68,4.41-4.57,4.57-.74-.07-1.38-.23-1.94-.47-1.49-.64-2.35-1.91-2.37-3.9-.02-1.91.72-3.26,2-3.98Z"/>
  </g>
</svg>