<svg width="159" height="32" viewBox="0 0 159 32" fill="none" xmlns="http://www.w3.org/2000/svg">
<path d="M0.379622 23.992H0L9.45893 1.56957L9.80691 1.40941L17.779 23.992H15.09L12.6224 16.9449H3.38497L0.379622 23.992ZM8.47823 5.02903L3.51151 16.6246H12.5275L8.47823 5.02903Z" fill="black"/>
<path d="M19.038 16.5606C19.038 13.7845 19.7023 11.6383 21.031 10.1221C22.3597 8.60594 24.3527 7.84785 27.01 7.84785C28.2544 7.84785 29.5092 8.16817 30.7746 8.80881V0H32.9891V21.7177C32.9891 22.337 33.1051 22.8175 33.3371 23.1592C33.5902 23.4795 33.8432 23.6503 34.0963 23.6717L34.4443 23.7357H35.425V23.992H33.4953C32.6306 23.992 31.9662 23.7998 31.5022 23.4154C31.0593 23.031 30.8274 22.6466 30.8063 22.2623L30.7746 21.7177V21.2052C30.3739 21.9526 29.7096 22.6146 28.7816 23.1912C27.8536 23.7678 26.757 24.0561 25.4915 24.0561C21.1892 23.9493 19.038 21.4508 19.038 16.5606ZM25.5232 23.7998C26.9362 23.7998 28.1489 23.4154 29.1612 22.6466C30.1736 21.8779 30.7114 21.1198 30.7746 20.3724V9.0971C29.2772 8.4351 27.9907 8.1041 26.9151 8.1041C25.0381 8.1041 23.6251 8.85152 22.676 10.3463C21.727 11.8198 21.2524 13.8912 21.2524 16.5606C21.2524 21.3867 22.676 23.7998 25.5232 23.7998Z" fill="black"/>
<path d="M43.8669 24.1201C41.6524 24.1201 39.8492 23.4795 38.4573 22.1982C37.0653 20.9169 36.3694 18.9416 36.3694 16.2723C36.3694 13.6029 37.0864 11.5315 38.5206 10.0581C39.9758 8.58458 41.8106 7.84785 44.0251 7.84785C46.2606 7.84785 48.0744 8.48849 49.4663 9.76977C50.8583 11.0511 51.5543 13.0264 51.5543 15.6957C51.5543 18.365 50.8266 20.4364 49.3714 21.9099C47.9373 23.3834 46.1025 24.1201 43.8669 24.1201ZM44.0883 8.1041C42.4855 8.1041 41.1568 8.83016 40.1023 10.2823C39.0478 11.713 38.5206 13.7204 38.5206 16.3043C38.5206 18.8669 39.0056 20.7674 39.9758 22.006C40.9459 23.2446 42.2324 23.8639 43.8353 23.8639C45.4381 23.8639 46.7668 23.1485 47.8213 21.7177C48.8758 20.2656 49.4031 18.2583 49.4031 15.6957C49.4031 13.1118 48.918 11.2005 47.9478 9.96196C46.9777 8.72339 45.6912 8.1041 44.0883 8.1041Z" fill="black"/>
<path d="M53.77 7.97598H55.9844V11.9479C56.343 10.9656 57.0073 10.0367 57.9774 9.16116C58.9476 8.28562 60.0443 7.84785 61.2675 7.84785C65.5488 7.84785 67.6894 10.3891 67.6894 15.4715C67.6894 21.2372 64.9266 24.1201 59.401 24.1201C58.4098 24.1201 57.2709 23.8852 55.9844 23.4154V32H53.77V7.97598ZM61.2359 8.1041C59.9283 8.1041 58.7472 8.68068 57.6927 9.83383C56.6382 10.9656 56.0688 11.9907 55.9844 12.9089V23.1271C57.2709 23.6183 58.3992 23.8639 59.3694 23.8639C63.4398 23.8639 65.475 21.0557 65.475 15.4394C65.475 10.5492 64.0619 8.1041 61.2359 8.1041Z" fill="black"/>
<path d="M70.0707 8.23223V7.97598H70.7351V4.77277H72.9495V7.97598H77.7897V8.23223H72.9495V19.8919C72.9495 21.2799 73.0972 22.2836 73.3924 22.9029C73.7088 23.5222 74.352 23.8318 75.3222 23.8318C76.3134 23.8318 77.3152 23.629 78.3275 23.2232L78.4224 23.4795C77.3679 23.8852 76.1552 24.0881 74.7844 24.0881C73.4346 24.0881 72.4223 23.8105 71.7474 23.2553C71.0725 22.6787 70.7351 21.5469 70.7351 19.8599V8.23223H70.0707Z" fill="black"/>
<path d="M81.9967 23.992H81.5855L84.3377 1.56957H85.3817L92.0251 22.2943L98.6368 1.56957H99.6808L102.433 23.992H99.8073L97.6245 6.05405L91.8985 23.992H89.9055L84.1163 6.27828L81.9967 23.992Z" fill="black"/>
<path d="M107.753 16.1762C107.753 18.8242 108.207 20.7674 109.114 22.006C110.042 23.2446 111.254 23.8639 112.752 23.8639C114.861 23.8639 116.738 23.5435 118.383 22.9029L118.478 23.1271C116.791 23.7891 114.882 24.1201 112.752 24.1201C110.643 24.1201 108.924 23.4795 107.595 22.1982C106.267 20.9169 105.602 18.9416 105.602 16.2723C105.602 13.6029 106.298 11.5315 107.69 10.0581C109.082 8.58458 110.854 7.84785 113.005 7.84785C114.734 7.84785 116.189 8.37104 117.371 9.41742C118.552 10.4638 119.142 12.012 119.142 14.0621C119.142 14.1688 119.142 14.2756 119.142 14.3824H107.848C107.785 14.959 107.753 15.5569 107.753 16.1762ZM116.991 14.1261C116.97 12.0761 116.58 10.5599 115.82 9.57758C115.061 8.59526 114.08 8.1041 112.878 8.1041C111.676 8.1041 110.601 8.63797 109.652 9.70571C108.724 10.7734 108.133 12.2469 107.88 14.1261H116.991Z" fill="black"/>
<path d="M122.338 1.82583C124.784 1.65499 126.936 1.56957 128.792 1.56957C134.022 1.56957 136.637 3.4381 136.637 7.17517C136.637 8.9049 136.194 10.4211 135.308 11.7237C134.844 12.4284 134.127 12.9943 133.157 13.4214C132.187 13.8272 131.017 14.03 129.646 14.03H124.964V23.992H122.338V1.82583ZM128.823 1.88989C127.6 1.88989 126.314 1.96463 124.964 2.11411V13.7097H129.646C132.619 13.5816 134.106 11.4248 134.106 7.23924C134.106 5.53086 133.663 4.21755 132.778 3.2993C131.892 2.35969 130.574 1.88989 128.823 1.88989Z" fill="black"/>
<path d="M143.201 23.992C141.346 23.992 140.175 23.5008 139.69 22.5185C139.584 22.305 139.532 22.1128 139.532 21.9419V0H141.746V21.7177C141.746 22.337 141.862 22.8175 142.094 23.1592C142.347 23.4795 142.6 23.6503 142.853 23.6717L143.201 23.7357H144.182V23.992H143.201Z" fill="black"/>
<path d="M147.2 8.23223V7.97598H158.177V8.23223L148.624 23.7357H156.184C157.64 23.7357 158.515 23.3086 158.81 22.4545L159 22.5506C159 22.636 158.926 22.7855 158.779 22.999C158.631 23.1912 158.462 23.3514 158.272 23.4795C157.766 23.8212 157.07 23.992 156.184 23.992H146.409V23.7357L155.963 8.23223H147.2Z" fill="black"/>
</svg>
