<?xml version="1.0" encoding="UTF-8"?>
<svg id="Layer_2" data-name="Layer 2" xmlns="http://www.w3.org/2000/svg" xmlns:xlink="http://www.w3.org/1999/xlink" viewBox="0 0 216 118.91">
  <defs>
    <style>
      .cls-1 {
        fill: url(#New_Gradient_Swatch_copy);
        stroke-width: 0px;
      }
    </style>
    <linearGradient id="New_Gradient_Swatch_copy" data-name="New Gradient Swatch copy" x1="0" y1="59.46" x2="193.66" y2="59.46" gradientUnits="userSpaceOnUse">
      <stop offset="0" stop-color="#ec008c"/>
      <stop offset="1" stop-color="#f26323"/>
    </linearGradient>
  </defs>
  <g id="Layer_1-2" data-name="Layer 1">
    <path class="cls-1" d="M24.46.07c-.94-.28-1.93.26-2.21,1.2L.07,76.3c-.28.94.26,1.93,1.2,2.21l14.49,4.28,1.01-3.41-12.79-3.78L21.12,17.63l81.85,24.19-10.32,34.91c-.01.17.03.34,0,.51,1.17-.49,2.46-.53,3.62-.22l14.64-49.54c.28-.94-.26-1.93-1.2-2.21L24.46.07ZM25.15,3.99l81.85,24.19-3.02,10.23L22.13,14.22l3.02-10.23ZM29.26,8.91c-.94-.28-1.93.26-2.21,1.2s.26,1.93,1.2,2.21,1.93-.26,2.21-1.2-.26-1.93-1.2-2.21ZM36.08,10.93c-.94-.28-1.93.26-2.21,1.2s.26,1.93,1.2,2.21,1.93-.26,2.21-1.2-.26-1.93-1.2-2.21ZM42.9,12.94c-.94-.28-1.93.26-2.21,1.2s.26,1.93,1.2,2.21,1.93-.26,2.21-1.2-.26-1.93-1.2-2.21ZM68.63,39.09c-.05-.02-.11-.03-.16-.04-.57-.14-1.17.02-1.61.42l-25.08,22.21c-.74.65-.8,1.77-.15,2.51.65.74,1.77.8,2.51.15l25.08-22.21c.74-.64.83-1.76.19-2.51-.21-.24-.48-.42-.78-.53ZM43.62,35.4c-.45-.12-.92-.05-1.32.17l-13.09,7.13c-.17.08-.33.18-.47.31-.03.03-.07.06-.1.09,0,0,0,0,0,0-.01.01-.02.03-.03.04-.02.02-.04.05-.07.07-.02.03-.04.05-.06.08-.02.02-.03.05-.05.07-.01.02-.03.05-.04.07-.01.02-.02.04-.03.06,0,.01-.01.03-.02.04-.29.58-.25,1.28.12,1.81l7.1,13.06c.45.87,1.53,1.21,2.4.75.87-.45,1.21-1.53.75-2.4,0-.02-.02-.04-.03-.05l-6.34-11.68,11.66-6.34c.87-.45,1.21-1.53.76-2.4-.23-.45-.64-.77-1.13-.9ZM74.37,44.49c-.94-.28-1.93.26-2.21,1.2-.14.46-.08.96.16,1.39l6.35,11.67-11.67,6.35c-.88.43-1.25,1.5-.81,2.38.43.88,1.5,1.25,2.38.81.04-.02.09-.05.13-.07l13.08-7.12c.9-.39,1.32-1.43.93-2.34-.03-.06-.05-.12-.09-.17h0s-7.17-13.21-7.17-13.21c-.22-.43-.61-.74-1.07-.88ZM80.64,72.3c-.94-.28-1.93.26-2.21,1.2l-.9,3.05c-1.15.01-2.29.13-3.43.35l-1.52-2.77c-.47-.86-1.55-1.18-2.41-.71l-6.81,3.7c-.86.47-1.18,1.55-.72,2.41,0,0,0,0,0,0l1.51,2.78c-.8.83-1.53,1.72-2.17,2.68l-3.04-.9c-.94-.28-1.93.26-2.21,1.2l-2.2,7.44c-.28.94.26,1.93,1.2,2.21l3.05.9c.01,1.15.13,2.3.35,3.43l-2.78,1.51c-.86.47-1.18,1.55-.71,2.41l3.71,6.81c.47.86,1.55,1.18,2.41.71l2.78-1.51c.83.8,1.72,1.52,2.68,2.16l-.9,3.04c-.28.94.26,1.93,1.2,2.21l7.45,2.2c.94.28,1.93-.26,2.21-1.2l.9-3.05c1.15-.01,2.29-.13,3.43-.35l1.52,2.77c.47.86,1.55,1.18,2.41.71l6.81-3.7c.86-.47,1.18-1.55.72-2.41,0,0,0,0,0,0l-1.51-2.78c.8-.83,1.53-1.72,2.17-2.68l3.04.9c.94.28,1.93-.26,2.21-1.2l2.2-7.44c.28-.94-.26-1.93-1.2-2.21l-3.05-.9c-.01-1.15-.13-2.3-.35-3.43l2.78-1.51c.86-.47,1.18-1.55.71-2.41l-3.71-6.81c-.47-.86-1.55-1.18-2.41-.71l-2.78,1.51c-.83-.8-1.72-1.52-2.68-2.16l.9-3.05c.28-.94-.26-1.93-1.2-2.21,0,0-7.45-2.2-7.45-2.2ZM81.34,76.22l4.04,1.19-.72,2.45c-.24.8.11,1.65.83,2.06,1.54.86,2.92,1.98,4.08,3.3.55.62,1.45.78,2.18.39l2.24-1.21,2.01,3.69-2.24,1.22c-.72.4-1.08,1.24-.86,2.03.47,1.7.65,3.47.53,5.23-.05.83.47,1.59,1.27,1.82l2.46.73-1.19,4.03-2.45-.72c-.8-.24-1.65.11-2.06.83-.86,1.54-1.98,2.92-3.3,4.09-.62.55-.78,1.45-.39,2.18l1.22,2.24-3.69,2-1.22-2.23c-.4-.72-1.24-1.08-2.03-.86-1.7.47-3.47.65-5.23.53-.83-.05-1.58.47-1.81,1.27l-.73,2.46-4.04-1.19.72-2.45c.23-.79-.11-1.64-.83-2.05-1.54-.86-2.92-1.98-4.08-3.3-.55-.62-1.45-.78-2.18-.39l-2.24,1.22-2.01-3.69,2.24-1.22c.73-.4,1.09-1.24.86-2.04-.47-1.7-.65-3.46-.53-5.22.05-.83-.47-1.59-1.27-1.82l-2.46-.73,1.19-4.03,2.45.72c.8.24,1.65-.11,2.06-.83.86-1.54,1.98-2.92,3.3-4.09.62-.55.78-1.45.39-2.18l-1.22-2.24,3.69-2,1.22,2.23c.4.72,1.24,1.08,2.03.86,1.7-.47,3.47-.65,5.23-.54.82.05,1.57-.47,1.81-1.26,0,0,.73-2.47.73-2.47ZM37.71,69.74c-.94-.28-1.93.26-2.21,1.2l-.52,1.75c-.54.03-1.08.07-1.61.16l-.87-1.59c-.47-.86-1.55-1.18-2.41-.71l-4.68,2.55c-.86.47-1.18,1.55-.71,2.41l.86,1.6c-.36.4-.71.82-1.02,1.26l-1.74-.51c-.94-.28-1.93.26-2.21,1.2l-1.51,5.12c-.28.94.26,1.93,1.2,2.21l1.75.52c.02.54.07,1.08.16,1.61l-1.59.87c-.86.47-1.18,1.55-.71,2.41l2.55,4.68c.47.86,1.55,1.18,2.41.72,0,0,0,0,0,0l1.6-.87c.4.37.82.7,1.26,1.02l-.52,1.74c-.28.94.26,1.93,1.2,2.21l5.12,1.51c.94.28,1.93-.26,2.21-1.2l.52-1.74c.54-.02,1.08-.08,1.61-.17l.87,1.6c.47.86,1.55,1.18,2.41.71l4.68-2.55c.86-.47,1.19-1.54.72-2.41,0,0,0,0,0-.01l-.86-1.59c.37-.4.7-.82,1.02-1.26l1.74.51c.94.28,1.93-.26,2.21-1.2l1.51-5.12c.28-.94-.26-1.93-1.2-2.21l-1.75-.52c-.02-.54-.08-1.08-.17-1.61l1.6-.87c.86-.47,1.18-1.55.71-2.41l-2.55-4.68c-.47-.86-1.55-1.18-2.41-.72,0,0,0,0,0,0l-1.6.87c-.4-.37-.82-.71-1.26-1.03l.51-1.74c.28-.94-.26-1.93-1.2-2.21,0,0-5.12-1.51-5.12-1.51ZM38.4,73.65l1.71.5-.34,1.15c-.23.8.11,1.65.84,2.05,1,.56,1.91,1.29,2.66,2.16.55.62,1.46.78,2.19.39l1.05-.58.85,1.56-1.05.56c-.73.4-1.09,1.24-.86,2.04.3,1.11.43,2.26.35,3.41-.05.83.47,1.58,1.26,1.82l1.16.34-.5,1.71-1.15-.34c-.8-.24-1.65.11-2.06.84-.56,1-1.29,1.9-2.15,2.66-.62.55-.78,1.46-.39,2.19l.57,1.06-1.56.84-.57-1.04c-.4-.73-1.24-1.09-2.04-.86-1.11.31-2.26.42-3.4.35-.83-.06-1.59.47-1.83,1.27l-.34,1.16-1.71-.5.34-1.15c.24-.8-.11-1.65-.83-2.06-1-.56-1.9-1.29-2.67-2.15-.55-.62-1.45-.79-2.18-.39l-1.05.58-.85-1.56,1.05-.57c.72-.4,1.08-1.24.86-2.03-.31-1.11-.43-2.26-.35-3.41.06-.83-.47-1.58-1.26-1.82l-1.16-.34.5-1.71,1.15.34c.8.24,1.65-.11,2.06-.84.56-1,1.29-1.9,2.15-2.67.62-.55.78-1.45.39-2.18l-.57-1.05,1.56-.85.57,1.05c.4.73,1.24,1.09,2.04.86,1.11-.31,2.26-.42,3.4-.35.83.06,1.59-.47,1.82-1.27,0,0,.34-1.15.34-1.15ZM80.33,87.05c-4.7-1.37-9.63,1.31-11.04,6-1.37,4.71,1.31,9.64,6.01,11.05,4.71,1.37,9.64-1.31,11.05-6.01,1.37-4.7-1.32-9.63-6.01-11.04ZM79.33,90.46c2.82.83,4.44,3.8,3.61,6.62s-3.81,4.44-6.63,3.6c-2.82-.83-4.44-3.81-3.6-6.63s3.81-4.43,6.63-3.6ZM37.26,80.65c-3.08-.91-6.36.87-7.27,3.95s.88,6.36,3.96,7.27c3.08.91,6.36-.87,7.27-3.95s-.87-6.36-3.95-7.27ZM36.25,84.06c1.22.36,1.91,1.64,1.55,2.85s-1.64,1.91-2.85,1.55-1.91-1.64-1.55-2.85,1.64-1.91,2.85-1.55ZM147.9,43.91l.07,21.57c0,1.41-.51,2.67-1.53,3.78-1.02,1.11-2.21,1.67-3.57,1.67s-2.61-.53-3.6-1.6c-1-1.07-1.5-2.35-1.5-3.85v-21.57c0-1.54.5-2.82,1.5-3.84,1-1.02,2.2-1.53,3.6-1.53s2.65.52,3.6,1.56c.95,1.04,1.43,2.31,1.43,3.81ZM128.88,82.08l.04,12.04c0,.79-.28,1.49-.85,2.11-.57.62-1.23.93-1.99.93s-1.46-.3-2.01-.89c-.56-.6-.84-1.31-.84-2.15v-12.04c0-.86.28-1.58.84-2.15.56-.57,1.23-.85,2.01-.85s1.48.29,2.01.87c.53.58.8,1.29.8,2.13ZM108.91,39.53l2.7-9.13c.13,0,.25-.02.38-.02,2.49,0,4.73.61,6.73,1.84,1.99,1.23,3.58,2.87,4.76,4.93,1.18,2.07,1.77,4.37,1.77,6.91v3.13c0,.18-.09.27-.27.27h-7.62c-.18,0-.27-.09-.27-.27v-3.13c0-1.5-.49-2.79-1.46-3.88-.97-1.09-2.19-1.63-3.64-1.63-1.25,0-2.28.33-3.07.99ZM101.13,42.82l-2.44,8.27.02-7.04c0-.65.04-1.29.12-1.91l2.3.68ZM118.42,77.44c-.38.22-.76.43-1.15.61v-2.97c0-.91-.73-1.63-1.64-1.63h-4.67c-.57,0-1.11.27-1.46.75l-2.26,3.28-2.24-3.24c-.38-.52-.91-.79-1.49-.79h-2.23c-.28-.4-.62-.73-.86-1.17-.28-.5-.52-1.01-.74-1.53l7.27-24.58v19.1c0,1.68.49,3.04,1.46,4.08.97,1.04,2.16,1.56,3.58,1.56s2.66-.58,3.64-1.74c.97-1.15,1.46-2.46,1.46-3.91v-3.13c0-.18.09-.27.27-.27h7.69c.18,0,.27.09.27.27v3.13c0,2.59-.6,4.92-1.81,7.01-.36.63-.84,1.15-1.27,1.71-.21.11-.44.16-.65.28-1.32.79-2.38,1.86-3.17,3.17ZM103.96,33.25l-.98,3.31-1.69-.5c.75-1.07,1.64-2.01,2.67-2.81ZM156.2,65.48l-.07-21.57c0-2.49-.6-4.76-1.8-6.8s-2.8-3.67-4.79-4.9c-2-1.22-4.22-1.84-6.67-1.84s-4.63.61-6.67,1.84c-2.04,1.23-3.67,2.86-4.87,4.9-1.2,2.04-1.8,4.31-1.8,6.8l-.07,21.57c0,2.49.61,4.78,1.84,6.84.95,1.6,2.2,2.87,3.63,3.98v-1.06c0-1.02.77-1.79,1.78-1.79h4.4l.39.9,2.04,4.76c.47-.02.94-.06,1.39-.13l-.05-3.75c0-1.02.79-1.79,1.83-1.79h3.76c.96,0,1.69.75,1.71,1.75.21-.21.38-.47.58-.7.11-.28.29-.5.51-.68.39-.5.82-.95,1.14-1.51,1.2-2.06,1.8-4.34,1.8-6.84ZM188.11,64.12v-19.53c0-2.49-.61-4.77-1.84-6.84-1.22-2.06-2.87-3.71-4.93-4.93-2.07-1.23-4.34-1.82-6.84-1.77l-12.72.07c-.18,0-.27.09-.27.27l-.13,45.94,2.06-3.13c.35-.48.89-.75,1.46-.75h4.37c.56,0,1.07.27,1.35.73l.04.07c.28-.48.78-.81,1.38-.81h12.19c.1,0,.19.03.28.05.61-.69,1.21-1.38,1.69-2.2,1.27-2.15,1.9-4.55,1.9-7.18ZM179.88,64.12c0,1.63-.58,3.04-1.73,4.22-1.16,1.18-2.58,1.77-4.25,1.77h-4.22l.07-30.82,4.76-.07c1.45-.04,2.71.47,3.78,1.53,1.06,1.07,1.6,2.32,1.6,3.78v19.59ZM216,70.45v6.76c-.77-1.19-1.76-2.19-2.98-2.92-1.36-.81-2.86-1.22-4.47-1.22s-3.06.4-4.41,1.19c-.82.48-1.51,1.1-2.14,1.79l.17-.5.26-.76-.5-.75c-.3-.38-.76-.61-1.27-.61h-4.25c-.79,0-1.44.51-1.63,1.28l-1.04,3.73c-.16-.02-.24-.12-.24-.33l.07-46.74c0-.18.09-.27.27-.27h21.84c.18,0,.28.11.28.34v7.62c0,.18-.09.27-.28.27h-13.95v10.61h13.95c.18,0,.28.09.28.27l.07,7.69c0,.18-.09.27-.27.27h-14.02v11.91h14.02c.18,0,.27.11.27.34ZM101.28,87.23l-2.59-4.75.02-7.4c0-.1.05-.15.15-.15h4.63c.1,0,.19.05.27.15l1.56,2.26,1.9,2.75,1.02-1.47,2.44-3.54c.07-.1.16-.15.27-.15h4.67c.1,0,.15.05.15.15l.08,26.1c0,.13-.05.19-.15.19h-4.29c-.1,0-.15-.06-.15-.19l-.04-19.38-3.99,5.78-3.95-5.78-.04,19.38c0,.13-.05.19-.15.19h-1.33l.75-2.55c.51-1.72-.48-3.54-2.2-4.05l-1.64-.48v-1.93s1.31-.71,1.31-.71c1.58-.86,2.16-2.84,1.31-4.42ZM132.47,78.28c-.67-1.14-1.56-2.05-2.68-2.74-1.12-.68-2.36-1.02-3.72-1.02s-2.58.34-3.72,1.02c-1.14.68-2.05,1.6-2.72,2.74-.67,1.14-1.01,2.41-1.01,3.8l-.04,12.04c0,1.39.34,2.67,1.03,3.82.68,1.15,1.59,2.08,2.71,2.77,1.13.7,2.37,1.05,3.74,1.05s2.62-.35,3.74-1.05c1.13-.7,2.03-1.62,2.7-2.77.67-1.15,1-2.43,1-3.82l-.04-12.04c0-1.39-.34-2.66-1.01-3.8ZM162.77,85.57l7.37,15.65c.05.1-.02.15-.19.15h-4.63c-.13,0-.2-.05-.23-.15l-5.13-11.17-1.33,2.09v9.04c0,.13-.05.19-.15.19h-4.29c-.1,0-.15-.06-.15-.19l.07-26.06c0-.13.05-.19.15-.19h4.26c.1,0,.15.06.15.19v9l3.73-5.66,2.23-3.39c.07-.1.16-.15.27-.15h4.37c.1,0,.13.05.08.15l-6.57,10.49ZM176.45,90.06v6.65h7.83c.1,0,.15.06.15.19v4.33c0,.1-.05.15-.15.15h-12.27c-.1,0-.15-.06-.15-.19l.04-26.1c0-.1.05-.15.15-.15h12.19c.1,0,.15.06.15.19v4.25c0,.1-.05.15-.15.15h-7.79v5.93h7.79c.1,0,.15.05.15.15l.04,4.29c0,.1-.05.15-.15.15h-7.83ZM214.9,90.34c.73,1.02,1.1,2.28,1.1,3.78s-.34,2.74-1.01,3.89c-.67,1.15-1.57,2.07-2.7,2.73-1.13.67-2.37,1.01-3.74,1.01s-2.61-.35-3.74-1.05c-1.13-.7-2.03-1.62-2.7-2.77-.67-1.15-1.01-2.43-1.01-3.82v-1.75c0-.13.06-.19.19-.19h4.26c.1,0,.15.06.15.19v1.75c0,.84.28,1.55.83,2.15.56.6,1.23.89,2.01.89s1.46-.3,2.02-.91c.56-.61.83-1.32.83-2.13,0-.94-.61-1.75-1.82-2.43-.41-.23-1.04-.58-1.9-1.06-.86-.48-1.67-.94-2.43-1.37-1.39-.81-2.42-1.83-3.09-3.06s-1.01-2.62-1.01-4.16c0-1.32.33-2.5.92-3.56.04-.08.06-.17.11-.25.68-1.13,1.59-2.02,2.72-2.68,1.13-.66,2.35-.99,3.66-.99s2.58.34,3.71,1.01c1.13.67,2.03,1.57,2.7,2.7.04.07.05.15.09.22h0c.59,1.07.92,2.26.92,3.56v3.12c0,.1-.05.15-.15.15h-4.25c-.1,0-.15-.05-.15-.15l-.04-3.12c0-.89-.28-1.61-.84-2.17-.56-.56-1.22-.84-1.98-.84s-1.46.3-2.01.89c-.56.6-.83,1.3-.83,2.11s.18,1.53.53,2.09c.36.56,1,1.09,1.94,1.6.12.08.37.21.74.4.37.19.77.4,1.2.65.43.24.82.45,1.16.63.34.18.55.29.63.34,1.26.71,2.27,1.58,3,2.6ZM150.69,75.24l.04,25.91c0,.15-.06.23-.19.23h-3.35l-6.57-13.98.27,13.68c0,.2-.11.3-.34.3h-3.8c-.2,0-.3-.09-.3-.27l-.04-25.87c0-.2.1-.3.3-.3h3.42l1.78,4.16h0l4.64,10.81-.14-11.23-.04-3.44c0-.2.11-.3.34-.3h3.76c.15,0,.23.1.23.3ZM200.76,75.09l-5.13,15.2.04,10.94c0,.1-.05.15-.15.15h-4.37c-.07,0-.11-.05-.11-.15l.04-10.79-5.09-15.35c-.02-.1.01-.15.11-.15h4.22c.13,0,.2.05.23.15l2.81,10.22,2.85-10.22c.02-.1.09-.15.19-.15h4.25c.1,0,.14.05.11.15Z"/>
  </g>
</svg>