<svg width="75" height="60" viewBox="0 0 75 60" fill="none" xmlns="http://www.w3.org/2000/svg">
<path d="M71.25 45H70V3.75C70 2.75544 69.6049 1.80161 68.9016 1.09835C68.1984 0.395088 67.2446 0 66.25 0H8.75C7.75544 0 6.80161 0.395088 6.09835 1.09835C5.39509 1.80161 5 2.75544 5 3.75V45H3.75C2.75544 45 1.80161 45.3951 1.09835 46.0984C0.395088 46.8016 0 47.7554 0 48.75V51.25C0 53.5706 0.921872 55.7962 2.56282 57.4372C4.20376 59.0781 6.42936 60 8.75 60H66.25C68.5706 60 70.7962 59.0781 72.4372 57.4372C74.0781 55.7962 75 53.5706 75 51.25V48.75C75 47.7554 74.6049 46.8016 73.9016 46.0984C73.1984 45.3951 72.2446 45 71.25 45ZM41.7625 49.05C41.6941 49.3273 41.5327 49.5729 41.3053 49.7457C41.0778 49.9186 40.798 50.0083 40.5125 50H34.45C34.1645 50.0083 33.8847 49.9186 33.6572 49.7457C33.4298 49.5729 33.2684 49.3273 33.2 49.05L32.85 47.5H42.15L41.7625 49.05ZM7.5 45V3.75C7.5 3.41848 7.6317 3.10054 7.86612 2.86612C8.10054 2.6317 8.41848 2.5 8.75 2.5H66.25C66.5815 2.5 66.8995 2.6317 67.1339 2.86612C67.3683 3.10054 67.5 3.41848 67.5 3.75V45" fill="url(#paint0_linear_2_69)"/>
<path d="M37.5 8.75C34.5333 8.75 31.6332 9.62974 29.1665 11.278C26.6997 12.9262 24.7771 15.2689 23.6418 18.0097C22.5065 20.7506 22.2094 23.7666 22.7882 26.6764C23.367 29.5861 24.7956 32.2588 26.8934 34.3566C28.9912 36.4544 31.6639 37.883 34.5737 38.4618C37.4834 39.0406 40.4994 38.7435 43.2403 37.6082C45.9811 36.4729 48.3238 34.5503 49.972 32.0836C51.6203 29.6168 52.5 26.7167 52.5 23.75C52.5 19.7718 50.9197 15.9564 48.1066 13.1434C45.2936 10.3304 41.4783 8.75 37.5 8.75ZM43.0625 24.8625L33.0625 29.8625C32.8884 29.9517 32.6957 29.9988 32.5 30C32.266 30.0008 32.0364 29.9358 31.8375 29.8125C31.6574 29.6999 31.5089 29.5433 31.4061 29.3574C31.3033 29.1715 31.2496 28.9624 31.25 28.75V18.75C31.2507 18.5369 31.3058 18.3275 31.4101 18.1417C31.5144 17.956 31.6645 17.7999 31.8461 17.6885C32.0277 17.577 32.2348 17.5138 32.4477 17.5049C32.6606 17.496 32.8722 17.5416 33.0625 17.6375L43.0625 22.6375C43.2673 22.7424 43.4391 22.9018 43.5591 23.0981C43.6791 23.2943 43.7426 23.5199 43.7426 23.75C43.7426 23.9801 43.6791 24.2057 43.5591 24.4019C43.4391 24.5982 43.2673 24.7576 43.0625 24.8625Z" fill="url(#paint1_linear_2_69)"/>
<path d="M33.75 26.725L39.7 23.75L33.75 20.775V26.725Z" fill="url(#paint2_linear_2_69)"/>
<defs>
<linearGradient id="paint0_linear_2_69" x1="0.00137062" y1="30.0101" x2="67.2339" y2="30.0101" gradientUnits="userSpaceOnUse">
<stop stop-color="#EC008C"/>
<stop offset="1" stop-color="#F26323"/>
</linearGradient>
<linearGradient id="paint1_linear_2_69" x1="22.5005" y1="23.7551" x2="49.3935" y2="23.7551" gradientUnits="userSpaceOnUse">
<stop stop-color="#EC008C"/>
<stop offset="1" stop-color="#F26323"/>
</linearGradient>
<linearGradient id="paint2_linear_2_69" x1="33.7501" y1="23.751" x2="39.0839" y2="23.751" gradientUnits="userSpaceOnUse">
<stop stop-color="#EC008C"/>
<stop offset="1" stop-color="#F26323"/>
</linearGradient>
</defs>
</svg>
