<svg width="560" height="472" viewBox="0 0 560 472" fill="none" xmlns="http://www.w3.org/2000/svg">
<path d="M41.3328 353.86C41.3328 353.86 23.5197 344.486 17.3456 330.84C11.1715 317.194 17.2005 298.075 15.3467 291.659C26.7438 303.709 33.7481 307.207 38.7294 321.111C43.7106 335.007 42.2678 349.951 41.3328 353.86ZM60.1051 376.606C60.1051 376.606 41.7681 391.138 22.4719 377.106C8.97908 365.741 0 350.233 0 350.233C0 350.233 21.6901 353.159 32.5391 355.714C43.3882 358.277 56.212 370.827 60.1051 376.606ZM518.667 353.86C518.667 353.86 536.48 344.486 542.654 330.84C548.829 317.194 542.799 298.075 544.653 291.659C533.256 303.709 526.252 307.207 521.271 321.111C516.289 335.007 517.74 349.951 518.667 353.86ZM499.895 376.606C499.895 376.606 518.232 391.138 537.528 377.106C551.021 365.741 560 350.233 560 350.233C560 350.233 538.31 353.159 527.461 355.714C516.612 358.277 503.788 370.827 499.895 376.606Z" fill="#F26323"/>
<path d="M128.553 430.464C128.553 430.464 110.441 446.101 63.6919 434.301C29.6214 425.701 1.54761 392.057 1.54761 392.057C1.54761 392.057 68.4313 366.732 128.553 430.464Z" fill="#F26323"/>
<path d="M127.037 432.568C127.037 432.568 91.0242 428.377 56.2846 364.112C30.9594 317.275 39.737 251.463 39.737 251.463C39.737 251.463 136.548 300.155 127.037 432.568Z" fill="#741AAC"/>
<path d="M125.659 431.246C125.659 431.246 97.0129 409.016 100.543 336.055C103.114 282.873 144.689 231.103 144.689 231.103C144.689 231.103 202.328 322.868 125.659 431.246Z" fill="#741AAC"/>
<path d="M428.828 427.748C428.828 427.748 446.714 443.191 492.883 431.536C526.534 423.041 554.253 389.825 554.253 389.825C554.253 389.825 488.208 364.806 428.828 427.748Z" fill="#F26323"/>
<path d="M431.456 432.568C431.456 432.568 467.469 428.377 502.208 364.112C527.534 317.275 518.756 251.463 518.756 251.463C518.756 251.463 421.945 300.155 431.456 432.568Z" fill="#741AAC"/>
<path d="M432.834 431.246C432.834 431.246 461.48 409.016 457.95 336.055C455.37 282.873 413.804 231.103 413.804 231.103C413.804 231.103 356.165 322.868 432.834 431.246Z" fill="#741AAC"/>
<path d="M524.519 242.919C524.519 108.757 415.762 0 281.6 0C147.438 0 38.681 108.757 38.681 242.919C38.681 319.451 74.0815 387.697 129.391 432.221H433.817C489.11 387.697 524.519 319.451 524.519 242.919Z" fill="url(#paint0_linear_4_36)"/>
<path d="M253.776 74.7586C253.776 75.2905 253.349 75.7177 252.817 75.7177C252.285 75.7177 251.858 75.2905 251.858 74.7586C251.858 74.2266 252.285 73.7994 252.817 73.7994C253.349 73.7994 253.776 74.2346 253.776 74.7586ZM322.288 133.969C322.288 134.501 321.861 134.928 321.329 134.928C320.797 134.928 320.37 134.501 320.37 133.969C320.37 133.437 320.797 133.01 321.329 133.01C321.861 133.01 322.288 133.437 322.288 133.969ZM208.179 148.703C208.179 149.235 207.752 149.662 207.22 149.662C206.688 149.662 206.261 149.235 206.261 148.703C206.261 148.171 206.688 147.744 207.22 147.744C207.752 147.744 208.179 148.171 208.179 148.703ZM135.662 137.12C135.662 137.652 135.234 138.08 134.702 138.08C134.17 138.08 133.743 137.652 133.743 137.12C133.743 136.589 134.17 136.161 134.702 136.161C135.226 136.161 135.662 136.589 135.662 137.12ZM416.633 195.452C416.633 195.984 416.206 196.411 415.674 196.411C415.142 196.411 414.715 195.984 414.715 195.452C414.715 194.92 415.142 194.493 415.674 194.493C416.206 194.493 416.633 194.92 416.633 195.452Z" fill="#EFEFEF"/>
<path d="M419.776 131.607L420.792 133.671L423.073 134.001L421.421 135.613L421.816 137.886L419.776 136.814L417.729 137.886L418.124 135.613L416.472 134.001L418.753 133.671L419.776 131.607Z" fill="#619FFF"/>
<path d="M183.427 47.6601L184.7 50.2474L187.553 50.6585L185.49 52.6736L185.974 55.5107L183.427 54.1728L180.871 55.5107L181.363 52.6736L179.3 50.6585L182.153 50.2474L183.427 47.6601ZM469.161 174.141L470.435 176.72L473.288 177.139L471.225 179.146L471.716 181.992L469.161 180.646L466.614 181.992L467.098 179.146L465.035 177.139L467.888 176.72L469.161 174.141Z" fill="#90C9FF"/>
<path d="M92.9103 169.837C94.7754 169.837 96.2875 168.325 96.2875 166.46C96.2875 164.594 94.7754 163.082 92.9103 163.082C91.0451 163.082 89.533 164.594 89.533 166.46C89.533 168.325 91.0451 169.837 92.9103 169.837Z" fill="#90C9FF"/>
<path d="M349.274 94.7237C362.363 107.878 383.642 107.934 396.797 94.8446C409.951 81.7548 410.007 60.4839 396.918 47.3296C383.828 34.1753 362.557 34.1189 349.395 47.2087C336.248 60.2904 336.192 81.5613 349.274 94.7237Z" fill="url(#paint1_linear_4_36)"/>
<path d="M413.151 326.262C412.917 324.271 424.33 284.574 437.025 266.914C449.72 249.254 463.995 216.618 463.995 216.618C463.995 216.618 468.799 245.643 455.596 264.706C442.393 283.768 436.792 293.183 436.792 293.183C436.792 293.183 446.012 274.596 468.057 273.314C490.102 272.032 484.435 292.215 484.435 292.215C484.435 292.215 460.11 257.444 409.621 336.103" fill="url(#paint2_linear_4_36)"/>
<path d="M382.981 364.765C382.981 364.765 348.323 372.834 324.851 358.462C301.388 344.099 286.001 323.715 286.001 323.715C286.001 323.715 312.221 314.889 329.123 318.387C346.025 321.877 360.816 341.004 360.856 339.464C360.896 337.917 342.825 313.462 341.359 297.374C339.892 281.277 347.533 251.14 347.533 251.14C347.533 251.14 369.787 268.284 375.332 281.697C380.878 295.109 385.19 324.053 385.19 324.053C385.19 324.053 382.24 298.736 392.501 277.731C402.761 256.726 428.836 239.743 428.836 239.743C428.836 239.743 438.533 265.955 430.569 291.522C422.606 317.089 404.164 333.903 404.164 333.903C404.164 333.903 429.682 315.485 445.432 312.962C461.182 310.439 483.025 324.118 483.025 324.118C483.025 324.118 460.69 348.967 443.409 353.433C426.136 357.898 408.766 355.609 408.766 355.609C408.766 355.609 432.729 356.02 446.827 365.563C460.924 375.098 472.934 394.782 472.934 394.782C472.934 394.782 439.548 398.739 418.495 388.043C397.442 377.339 382.981 364.765 382.981 364.765Z" fill="url(#paint3_linear_4_36)"/>
<path d="M415.98 356.125C411.66 355.665 408.766 355.609 408.766 355.609C408.766 355.609 411.555 355.964 415.98 356.125Z" fill="url(#paint4_linear_4_36)"/>
<path d="M352.586 269.663C352.586 269.663 356.834 325.802 383.256 355.867C379.564 347.46 369.658 333.04 364.161 313.083C358.664 293.126 352.586 269.663 352.586 269.663Z" fill="url(#paint5_linear_4_36)"/>
<path d="M382.538 358.22C382.538 358.22 332.855 343.825 313.656 334.886C299.397 328.664 292.755 325.496 292.755 325.496C292.755 325.496 303.524 334.273 334.274 346.13C365.031 357.995 382.538 358.22 382.538 358.22Z" fill="url(#paint6_linear_4_36)"/>
<path d="M388.761 359.3C388.761 359.3 419.228 367.393 444.86 380.523C456.982 386.834 464.607 391.372 464.607 391.372C464.607 391.372 443.812 382.054 429.489 376.372C415.174 370.682 388.761 359.3 388.761 359.3Z" fill="url(#paint7_linear_4_36)"/>
<path d="M152.79 310.044C153.023 308.054 141.61 268.357 128.915 250.697C116.22 233.037 101.946 200.401 101.946 200.401C101.946 200.401 97.1418 229.426 110.344 248.489C123.547 267.551 129.149 276.965 129.149 276.965C129.149 276.965 119.928 258.378 97.8833 257.097C75.8386 255.815 81.505 275.998 81.505 275.998C81.505 275.998 105.831 241.226 156.32 319.886" fill="url(#paint8_linear_4_36)"/>
<path d="M395.023 224.131C395.023 224.131 380.757 245.498 371.826 276.554C362.895 307.61 366.442 342.463 366.442 342.463" stroke="#222222" stroke-width="2.31" stroke-miterlimit="10"/>
<path d="M389.881 259.749C389.881 259.749 378.419 263.4 374.293 268.599C374.422 262.884 376.163 242.185 376.163 242.185M382.619 292.9C382.619 292.9 371.592 294.762 367.345 298.881C364.693 292.699 362.226 276.587 362.226 276.587M372.56 321.184C372.56 321.184 367.772 324.021 365.741 326.689C362.154 321.297 352.643 311.229 352.643 311.229" stroke="#222222" stroke-width="2.31" stroke-miterlimit="10"/>
<path d="M393.282 226.121C393.282 226.121 407.315 225.702 413.433 216.014C419.551 206.326 420.776 197.887 420.776 197.887C420.776 197.887 407.799 199.853 400.158 206.664C392.517 213.475 393.282 226.121 393.282 226.121ZM389.881 259.749C389.881 259.749 397.546 247.852 407.944 242.943C417.141 239.235 429.747 246.119 429.747 246.119C429.747 246.119 428.223 255.501 414.15 260.805C404.776 264.335 395.249 261.989 389.881 259.749ZM362.944 279.408C362.944 279.408 367.852 259.45 358.656 251.584C349.467 243.717 345.88 241.863 345.88 241.863C345.88 241.863 342.229 257.298 346.259 265.641C350.289 273.967 362.944 279.408 362.944 279.408ZM379.854 293.368C379.854 293.368 392.001 281.713 401.085 281.705C410.177 281.689 419.591 285.759 419.591 285.759C419.591 285.759 413.892 297.39 399.795 297.737C385.69 298.075 379.854 293.368 379.854 293.368ZM354.279 312.914C354.279 312.914 351.805 297.462 340.23 294.4C330.38 291.973 326.157 294.246 326.157 294.246C326.157 294.246 326.632 301.807 332.428 308.134C338.231 314.453 354.279 312.914 354.279 312.914ZM371.141 322.022C371.141 322.022 373.551 313.051 381.16 310.73C389.027 308.457 395.773 312.511 395.773 312.511C395.773 312.511 394.79 321.877 385.972 324.029C377.154 326.181 371.141 322.022 371.141 322.022ZM376.614 243.749C376.614 243.749 381.78 229.08 378.54 221.987C375.3 214.886 368.191 211.734 368.191 211.734C368.191 211.734 362.67 219.931 364.669 227.822C366.66 235.713 376.614 243.749 376.614 243.749Z" fill="#F26323"/>
<path d="M151.024 227.347C151.024 227.347 171.054 243.435 188.907 270.372C206.761 297.309 213.862 331.614 213.862 331.614" stroke="#222222" stroke-width="2.31" stroke-miterlimit="10"/>
<path d="M166.629 259.765C166.629 259.765 178.663 259.797 184.16 263.521C182.322 258.104 174.439 238.889 174.439 238.889M183.523 289.201C183.523 289.201 194.606 287.661 199.885 290.313C200.554 283.623 198.064 267.511 198.064 267.511M201.618 313.148C201.618 313.148 207.035 314.413 209.775 316.348C211.581 310.125 217.618 297.664 217.618 297.664" stroke="#222222" stroke-width="2.31" stroke-miterlimit="10"/>
<path d="M153.281 228.717C153.281 228.717 139.764 232.537 131.027 225.13C122.282 217.723 118.574 210.049 118.574 210.049C118.574 210.049 131.543 208.018 140.877 212.226C150.21 216.425 153.281 228.717 153.281 228.717ZM166.629 259.765C166.629 259.765 155.74 250.721 144.351 249.166C134.461 248.392 124.514 258.749 124.514 258.749C124.514 258.749 128.786 267.237 143.802 268.067C153.805 268.615 162.188 263.513 166.629 259.765ZM198.233 270.412C198.233 270.412 187.553 252.857 193.953 242.58C200.353 232.312 203.222 229.466 203.222 229.466C203.222 229.466 211.347 243.096 210.009 252.261C208.663 261.425 198.233 270.412 198.233 270.412ZM186.304 288.814C186.304 288.814 171.215 281.35 162.542 284.074C153.87 286.799 146.108 293.505 146.108 293.505C146.108 293.505 155.038 302.887 168.596 298.978C182.153 295.069 186.304 288.814 186.304 288.814ZM216.578 299.768C216.578 299.768 214.289 284.284 224.405 277.884C233.069 272.605 237.785 273.508 237.785 273.508C237.785 273.508 239.606 280.858 235.979 288.637C232.344 296.415 216.578 299.768 216.578 299.768ZM203.222 313.527C203.222 313.527 198.225 305.692 190.278 305.765C182.097 305.966 176.882 311.85 176.882 311.85C176.882 311.85 180.638 320.491 189.689 319.894C198.741 319.298 203.222 313.527 203.222 313.527ZM174.48 240.525C174.48 240.525 165.146 228.088 166.097 220.342C167.048 212.596 172.892 207.454 172.892 207.454C172.892 207.454 180.622 213.612 181.089 221.737C181.556 229.861 174.48 240.525 174.48 240.525Z" fill="#F26323"/>
<path d="M366.224 434.922C366.224 434.922 336.272 454.137 309.343 448.471C282.422 442.804 261.095 428.755 261.095 428.755C261.095 428.755 282.841 411.66 299.937 409.282C317.033 406.904 337.385 419.97 336.901 418.503C336.418 417.036 311.197 400.053 304.418 385.383C297.64 370.714 294.738 339.755 294.738 339.755C294.738 339.755 321.45 348.451 331.17 359.228C340.891 370.004 354.658 395.829 354.658 395.829C354.658 395.829 343.39 372.963 346.017 349.733C348.645 326.503 367.522 301.759 367.522 301.759C367.522 301.759 385.448 323.207 386.512 349.959C387.584 376.719 375.84 398.739 375.84 398.739C375.84 398.739 393.71 372.834 407.702 365.176C421.695 357.519 446.859 363.081 446.859 363.081C446.859 363.081 434.14 393.984 419.357 403.978C404.575 413.981 387.447 417.64 387.447 417.64C387.447 417.64 410.161 409.999 426.644 414.255C443.127 418.519 461.037 433.035 461.037 433.035C461.037 433.035 430.908 447.955 407.493 444.932C384.062 441.918 366.224 434.922 366.224 434.922Z" fill="url(#paint9_linear_4_36)"/>
<path d="M394.411 415.714C390.187 416.73 387.439 417.64 387.439 417.64C387.439 417.64 390.195 417.052 394.411 415.714Z" fill="url(#paint10_linear_4_36)"/>
<path d="M305.708 355.504C305.708 355.504 328.527 406.977 363.5 426.442C357.205 419.752 343.035 409.492 331.17 392.533C319.298 375.574 305.708 355.504 305.708 355.504Z" fill="url(#paint11_linear_4_36)"/>
<path d="M363.613 428.909C363.613 428.909 311.979 432.004 290.893 430.013C275.378 428.925 268.059 428.167 268.059 428.167C268.059 428.167 281.149 432.834 314.099 433.688C347.041 434.551 363.613 428.909 363.613 428.909Z" fill="url(#paint12_linear_4_36)"/>
<path d="M190.318 362.5C190.318 362.5 223.284 349.104 234.174 323.835C245.063 298.567 245.885 273.048 245.885 273.048C245.885 273.048 219.375 280.955 207.583 293.561C195.791 306.159 194.727 330.316 193.808 329.075C192.889 327.833 193.55 297.438 185.466 283.438C177.381 269.445 153.765 249.222 153.765 249.222C153.765 249.222 145.471 276.063 148.671 290.216C151.871 304.37 165.041 330.509 165.041 330.509C165.041 330.509 152.854 308.118 132.357 296.874C111.86 285.63 80.7635 286.783 80.7635 286.783C80.7635 286.783 87.9532 313.792 109.2 330.09C130.447 346.388 155.208 349.491 155.208 349.491C155.208 349.491 123.741 349.161 109.418 356.173C95.0946 363.194 85.1321 386.963 85.1321 386.963C85.1321 386.963 117.712 394.387 134.404 388.075C151.097 381.764 163.961 369.883 163.961 369.883C163.961 369.883 144.625 384.029 138.604 399.956C132.583 415.883 134.122 438.879 134.122 438.879C134.122 438.879 163.679 422.863 174.713 401.987C185.756 381.111 190.318 362.5 190.318 362.5Z" fill="url(#paint13_linear_4_36)"/>
<path d="M158.375 374.462C161.648 371.6 163.969 369.884 163.969 369.884C163.969 369.884 161.898 371.786 158.375 374.462Z" fill="url(#paint14_linear_4_36)"/>
<path d="M218.593 433.624C218.593 433.624 250.149 450.075 276.458 442.014C302.766 433.954 322.747 418.051 322.747 418.051C322.747 418.051 299.558 402.971 282.317 402.141C265.077 401.31 245.982 416.141 246.328 414.634C246.675 413.127 270.275 393.951 275.708 378.734C281.141 363.516 281.261 332.42 281.261 332.42C281.261 332.42 255.436 343.478 246.715 355.085C238.002 366.692 226.605 393.645 226.605 393.645C226.605 393.645 235.778 369.859 231.078 346.96C226.379 324.061 205.366 301.106 205.366 301.106C205.366 301.106 189.439 324.069 190.777 350.813C192.107 377.557 205.786 398.441 205.786 398.441C205.786 398.441 185.667 374.244 171.046 367.868C156.425 361.493 131.857 369.295 131.857 369.295C131.857 369.295 147.292 398.933 162.913 407.565C178.526 416.198 195.92 418.309 195.92 418.309C195.92 418.309 172.618 412.732 156.578 418.454C140.546 424.177 124.015 440.241 124.015 440.241C124.015 440.241 155.361 452.396 178.413 447.294C201.457 442.2 218.593 433.624 218.593 433.624Z" fill="url(#paint15_linear_4_36)"/>
<path opacity="0.3" d="M205.366 301.114C205.366 301.114 226.379 324.069 231.078 346.968C235.778 369.867 226.605 393.653 226.605 393.653C226.605 393.653 238.002 366.692 246.715 355.093C255.428 343.486 281.261 332.428 281.261 332.428C281.261 332.428 281.149 363.524 275.708 378.742C270.275 393.959 246.675 413.143 246.328 414.642C245.982 416.149 265.076 401.31 282.317 402.149C299.558 402.979 322.747 418.059 322.747 418.059C322.747 418.059 302.766 433.962 276.458 442.022C250.149 450.083 218.593 433.632 218.593 433.632L217.747 434.043C220.415 375.655 205.366 301.114 205.366 301.114Z" fill="#F26323"/>
<path d="M188.795 417.028C193.091 417.665 195.904 418.326 195.904 418.326C195.904 418.326 193.115 417.979 188.795 417.028Z" fill="url(#paint16_linear_4_36)"/>
<path d="M271.742 349.104C271.742 349.104 253.631 402.415 220.544 424.935C226.21 417.713 239.405 406.219 249.706 388.269C260.007 370.311 271.742 349.104 271.742 349.104Z" fill="url(#paint17_linear_4_36)"/>
<path d="M220.657 427.401C220.657 427.401 272.363 425.854 293.183 421.985C308.537 419.51 315.759 418.1 315.759 418.1C315.759 418.1 303.145 423.919 270.404 427.732C237.664 431.544 220.657 427.401 220.657 427.401Z" fill="url(#paint18_linear_4_36)"/>
<path d="M215.853 426.233C215.853 426.233 196.339 405.985 178.187 392.734C160.044 379.475 139.353 372.157 139.353 372.157C139.353 372.157 166.524 388.43 176.712 395.749C186.892 403.067 215.853 426.233 215.853 426.233Z" fill="url(#paint19_linear_4_36)"/>
<path d="M213.717 182.903C213.717 182.903 217.231 200.305 199.265 209.816C193.252 211.895 182.048 212.097 175.818 206.148C184.958 210.589 193.099 211.331 199.112 208.985C202.529 206.14 212.347 202.416 213.717 182.903Z" fill="#222222"/>
<path d="M204.093 184.7C204.093 184.7 208.018 199.587 199.031 209.445C190.108 207.478 182.717 200.659 180.557 195.815C183.451 199.144 191.342 206.995 198.612 208.76C202.021 203.013 205.399 195.783 204.093 184.7Z" fill="#222222"/>
<path d="M197.999 192.913C197.999 192.913 202.545 203.247 199.345 209.082C197.645 208.091 189.448 200.667 187.126 189.318C190.528 195.654 191.729 201.304 198.838 207.438C199.748 203.553 198.298 194.461 197.999 192.913Z" fill="#222222"/>
<path d="M213.934 186.683C213.934 186.683 216.546 185.151 216.828 181.234C217.118 177.317 214.797 175.914 213.58 177.591C213.056 176.406 212.524 176.994 212.516 177.76C211.782 177.019 210.34 176.978 210.154 178.687C209.969 180.396 211.46 186.328 213.934 186.683Z" fill="url(#paint20_linear_4_36)"/>
<path d="M204.343 187.747C204.343 187.747 207.317 185.877 205.955 181.5C205.109 179.243 203.948 179.074 203.682 179.67C203.351 179.404 201.965 179.195 201.892 180.388C201.199 180.017 199.998 181.008 200.329 182.395C200.643 183.781 201.409 187.07 204.343 187.747Z" fill="url(#paint21_linear_4_36)"/>
<path d="M198.838 196.484C198.838 196.484 201.199 194.912 199.821 191.156C198.942 188.609 197.701 189.464 197.685 190.004C197.209 189.286 196.403 189.423 196.315 190.06C195.622 189.73 194.759 190.721 195.082 192.099C195.404 193.478 196.436 196.299 198.838 196.484Z" fill="url(#paint22_linear_4_36)"/>
<path d="M188.464 192.849C188.464 192.849 190.737 191.761 190.117 188.255C189.496 184.748 187.561 182.532 186.852 183.942C186.151 183.41 184.966 182.387 183.894 184.41C182.612 184.708 182.822 186.699 183.386 188.158C183.942 189.609 186.022 192.954 188.464 192.849Z" fill="url(#paint23_linear_4_36)"/>
<path d="M179.993 208.623C179.993 208.623 180.67 206.189 177.623 204.351C174.576 202.513 171.634 202.505 172.223 203.972C171.36 204.149 169.813 204.367 170.627 206.511C170.006 207.672 171.642 208.824 173.117 209.356C174.584 209.888 178.47 210.525 179.993 208.623Z" fill="url(#paint24_linear_4_36)"/>
<path d="M182.516 198.169C182.516 198.169 183.612 197.056 182.25 194.654C181.363 192.857 178.607 189.826 178.171 192.156C176.89 192.18 175.423 191.841 176.035 194.445C174.867 195.122 175.906 196.355 177.091 197.556C178.284 198.749 181.363 199.16 182.516 198.169Z" fill="url(#paint25_linear_4_36)"/>
<path d="M199.845 207.97C199.845 207.97 199.894 208.059 199.99 208.244C201.57 211.283 215.667 238.961 210.009 247.537C210.565 243.169 209.88 237.704 206.011 226.686C202.142 215.667 198.62 208.752 198.62 208.752L199.902 208.067" fill="#222222"/>
<path d="M338.175 188.907C338.175 188.907 334.66 206.309 352.627 215.82C358.64 217.9 369.843 218.102 376.074 212.153C366.934 216.594 358.793 217.336 352.78 214.99C349.362 212.145 339.545 208.421 338.175 188.907Z" fill="#222222"/>
<path d="M347.799 190.705C347.799 190.705 343.873 205.592 352.86 215.45C361.783 213.483 369.174 206.664 371.334 201.82C368.441 205.149 360.55 212.999 353.28 214.765C349.87 209.026 346.501 201.788 347.799 190.705Z" fill="#222222"/>
<path d="M353.892 198.918C353.892 198.918 349.346 209.251 352.546 215.087C354.247 214.096 362.444 206.672 364.765 195.323C361.364 201.659 360.163 207.309 353.054 213.443C352.143 209.558 353.594 200.466 353.892 198.918Z" fill="#222222"/>
<path d="M337.957 192.688C337.957 192.688 335.346 191.156 335.063 187.239C334.773 183.322 337.095 181.919 338.312 183.596C338.836 182.411 339.368 182.999 339.376 183.765C340.109 183.023 341.552 182.983 341.737 184.692C341.923 186.401 340.432 192.333 337.957 192.688Z" fill="url(#paint26_linear_4_36)"/>
<path d="M347.549 193.752C347.549 193.752 344.575 191.882 345.937 187.505C346.783 185.248 347.944 185.079 348.21 185.675C348.54 185.409 349.927 185.2 349.999 186.393C350.692 186.022 351.893 187.013 351.563 188.4C351.248 189.794 350.483 193.083 347.549 193.752Z" fill="url(#paint27_linear_4_36)"/>
<path d="M353.054 202.489C353.054 202.489 350.692 200.917 352.071 197.169C352.949 194.622 354.19 195.476 354.206 196.017C354.682 195.299 355.488 195.436 355.577 196.073C356.27 195.742 357.132 196.734 356.81 198.112C356.488 199.482 355.464 202.304 353.054 202.489Z" fill="url(#paint28_linear_4_36)"/>
<path d="M363.435 198.854C363.435 198.854 361.162 197.766 361.783 194.259C362.404 190.753 364.33 188.537 365.047 189.947C365.749 189.415 366.934 188.392 368.006 190.415C369.287 190.713 369.078 192.704 368.513 194.163C367.949 195.614 365.87 198.959 363.435 198.854Z" fill="url(#paint29_linear_4_36)"/>
<path d="M371.899 214.628C371.899 214.628 371.222 212.193 374.268 210.356C377.315 208.518 380.257 208.51 379.669 209.977C380.531 210.154 382.079 210.372 381.265 212.516C381.885 213.676 380.249 214.829 378.774 215.361C377.307 215.893 373.422 216.53 371.899 214.628Z" fill="url(#paint30_linear_4_36)"/>
<path d="M369.376 204.173C369.376 204.173 368.28 203.061 369.642 200.659C370.528 198.862 373.285 195.831 373.72 198.161C375.002 198.185 376.469 197.846 375.856 200.45C377.025 201.127 375.985 202.36 374.8 203.561C373.607 204.762 370.537 205.165 369.376 204.173Z" fill="url(#paint31_linear_4_36)"/>
<path d="M352.046 213.983C352.046 213.983 351.998 214.071 351.901 214.257C350.321 217.296 336.224 244.974 341.882 253.55C341.326 249.182 342.011 243.717 345.88 232.699C349.749 221.68 353.271 214.765 353.271 214.765L351.99 214.08" fill="#222222"/>
<path d="M286.065 471.088C421.868 471.088 531.959 462.416 531.959 451.719C531.959 441.022 421.868 432.35 286.065 432.35C150.262 432.35 40.1722 441.022 40.1722 451.719C40.1722 462.416 150.262 471.088 286.065 471.088Z" fill="url(#paint32_linear_4_36)"/>
<path d="M273.266 184.023L246.248 230.635C246.248 230.635 279.351 259.684 285.429 256.984C291.506 254.284 321.232 242.798 321.232 242.798C321.232 242.798 321.909 225.912 319.878 220.503C317.855 215.103 292.86 175.922 290.829 177.268C288.798 178.623 273.266 184.023 273.266 184.023Z" fill="url(#paint33_linear_4_36)"/>
<path d="M169.442 393.847C170.796 394.749 181.379 409.161 196.017 419.293C210.654 429.424 230.466 439.331 230.466 439.331L340.802 441.128C340.802 441.128 365.571 430.545 380.886 417.487C396.2 404.43 399.578 394.516 399.578 394.516L308.158 401.496L307.256 400.593L261.321 401.044" fill="#222222"/>
<path d="M169.442 393.847C170.796 394.749 181.379 409.161 196.017 419.293C210.654 429.424 230.466 439.331 230.466 439.331L340.802 441.128C340.802 441.128 365.571 430.545 380.886 417.487C396.2 404.43 399.578 394.516 399.578 394.516L308.158 401.496L307.256 400.593L261.321 401.044" stroke="#231F20" stroke-width="2" stroke-miterlimit="10"/>
<path d="M252.986 153.281C252.986 153.281 255.839 173.4 263.19 182.258C270.541 191.116 278.053 196.516 283.76 196.516C289.467 196.516 300.872 189.762 305.974 179.856C311.076 169.95 313.333 153.588 313.333 153.588C313.333 153.588 325.19 124.917 299.526 121.766C273.854 118.614 259.442 113.657 257.492 119.517C255.541 125.361 252.986 153.281 252.986 153.281Z" fill="url(#paint34_linear_4_36)"/>
<path d="M301.025 129.109C301.275 128.706 313.188 148.026 311.834 158.682C310.48 169.337 306.732 179.848 304.177 183.152C301.622 186.457 294.722 192.156 294.722 192.156C294.722 192.156 294.118 207.317 299.977 215.127C305.837 222.938 316.791 227.887 321.748 228.338C326.705 228.789 331.203 229.386 330.751 229.386C330.3 229.386 323.699 208.969 326.246 194.558C328.801 180.146 325.649 139.466 320.088 124.305C314.534 109.143 310.931 107.942 310.931 107.942C310.931 107.942 295.77 93.6839 264.996 103.743C247.231 109.546 243.225 129.56 243.378 151.331C243.532 173.101 245.78 190.511 239.776 207.478C233.771 224.445 234.972 229.547 234.972 229.547C234.972 229.547 257.79 229.096 264.545 222.188C271.299 215.28 272.951 210.331 273.403 204.778C273.854 199.224 274.306 192.921 274.306 192.921C274.306 192.921 262.892 186.465 258.693 174.004C254.493 161.543 254.187 160.495 254.187 160.495C254.187 160.495 262.892 156.441 273.25 146.382C283.607 136.322 284.655 134.219 284.655 134.219L277.602 145.326C277.602 145.326 291.264 144.576 301.025 129.109Z" fill="#222222"/>
<path d="M246.683 228.564C246.683 228.564 229.571 228.564 225.291 234.415C221.011 240.267 196.017 310.302 197.145 314.8C198.273 319.298 236.777 369.747 236.777 369.747C236.777 369.747 237.906 342.503 237.68 341.149C237.454 339.795 216.965 309.4 216.965 308.723C216.965 308.046 236.559 272.468 236.559 272.468L246.683 228.564Z" fill="url(#paint35_linear_4_36)"/>
<path d="M321.667 228.564C321.667 228.564 338.779 228.564 343.059 234.415C347.339 240.267 372.334 310.302 371.206 314.8C370.077 319.298 331.573 369.747 331.573 369.747C331.573 369.747 330.445 342.503 330.671 341.149C330.896 339.795 351.385 309.4 351.385 308.723C351.385 308.046 331.791 272.468 331.791 272.468L321.667 228.564Z" fill="url(#paint36_linear_4_36)"/>
<path d="M319.636 227.661C319.636 227.661 309.505 242.298 286.082 243.427C262.667 244.555 250.504 228.112 250.504 228.112L246.675 228.564C246.675 228.564 237.22 248.827 236.318 262.562C235.415 276.296 237.897 282.599 241.275 289.136C244.652 295.673 247.578 296.342 247.578 296.342L248.932 388.664C248.932 388.664 311.528 395.418 311.31 394.741C311.084 394.064 323.916 297.011 323.916 296.116C323.916 295.214 331.348 280.125 331.799 269.099C332.25 258.072 324.593 229.015 324.593 229.015L319.636 227.661Z" fill="url(#paint37_linear_4_36)"/>
<path d="M221.688 402.85C221.688 402.85 211.557 310.302 211.782 309.4C212.008 308.497 210.88 304.894 223.494 305.12C236.1 305.345 352.296 305.12 352.296 305.12C352.296 305.12 359.276 303.766 358.599 313.003C357.922 322.232 353.642 399.021 353.642 399.021L221.688 402.85Z" fill="url(#paint38_linear_4_36)"/>
<path opacity="0.3" d="M283.607 358.269C288.953 358.269 293.287 353.935 293.287 348.588C293.287 343.242 288.953 338.908 283.607 338.908C278.261 338.908 273.927 343.242 273.927 348.588C273.927 353.935 278.261 358.269 283.607 358.269Z" fill="#EFEFEF"/>
<path d="M301.775 418.841C301.356 417.391 273.177 404.881 265.294 398.352C257.411 391.824 234.448 378.758 215.756 372.003C197.064 365.249 180.855 357.366 177.027 356.238C173.198 355.109 165.992 354.215 159.012 363.443C152.032 372.672 152.709 380.33 158.786 386.415C164.864 392.493 188.513 413.215 209.904 419.293C231.296 425.37 246.611 428.522 263.271 433.253C279.932 437.984 290.289 441.362 290.289 441.362C290.289 441.362 305.829 432.802 301.775 418.841Z" fill="url(#paint39_linear_4_36)"/>
<path d="M292.618 440.233C292.618 440.233 300.276 440.91 302.75 442.708C305.225 444.505 309.956 447.213 312.43 447.213C314.905 447.213 323.69 448.567 329.768 451.268C335.845 453.968 349.362 461.625 352.514 460.271L355.665 458.917C355.665 458.917 357.914 458.917 359.268 457.788C360.622 456.66 360.848 455.54 360.848 455.54C360.848 455.54 363.323 455.54 364.451 454.411C365.579 453.283 365.579 451.26 365.579 451.26C365.579 451.26 367.603 451.485 368.28 450.131L368.957 448.777C368.957 448.777 371.431 447.197 372.334 445.4C373.237 443.602 373.237 443.377 372.785 442.7C372.334 442.023 363.331 435.945 361.299 435.945C359.276 435.945 349.362 434.817 343.962 433.245C338.562 431.665 334.959 431.222 324.593 429.868C314.236 428.522 292.618 440.233 292.618 440.233Z" fill="url(#paint40_linear_4_36)"/>
<path d="M272.355 419.744C272.774 418.293 300.953 405.784 308.835 399.255C316.718 392.726 339.682 379.661 358.374 372.906C377.065 366.152 393.274 358.269 397.103 357.14C400.932 356.012 408.137 355.117 415.118 364.346C422.098 373.575 421.421 381.232 415.343 387.318C409.266 393.395 385.617 414.118 364.225 420.195C342.833 426.273 327.519 429.424 310.859 434.156C294.198 438.887 283.841 442.264 283.841 442.264C283.841 442.264 268.301 433.704 272.355 419.744Z" fill="url(#paint41_linear_4_36)"/>
<path d="M272.049 421.09C272.049 421.09 247.126 433.398 242.774 433.398C238.421 433.398 237.366 431.899 235.27 430.996C233.166 430.093 229.112 430.545 223.26 433.245C217.408 435.945 213.201 438.347 209.3 438.049C205.399 437.751 197.443 435.349 192.938 437.597C188.432 439.846 180.025 447.955 183.032 451.106C186.038 454.258 193.84 457.716 197.145 455.91C200.45 454.113 209.606 453.661 217.11 454.411C224.614 455.161 233.021 457.563 238.881 455.459C244.741 453.355 255.09 447.35 263.948 445.102C272.806 442.853 281.81 441.2 281.81 441.2C281.81 441.2 270.098 435.357 272.049 421.09Z" fill="url(#paint42_linear_4_36)"/>
<path d="M358.632 311.665C358.559 303.919 352.288 305.12 352.288 305.12C352.288 305.12 236.1 305.345 223.486 305.12C210.88 304.894 212 308.497 211.774 309.4C211.758 309.472 211.798 310.093 211.895 311.173C212.943 309.674 214.225 307.151 221.503 307.151H351.506C351.506 307.151 356.093 306.925 358.632 311.665Z" fill="#EFEFEF"/>
<path d="M440.08 454.605L409.403 313.978L405.832 314.486L407.896 323.956C408.436 324.553 394.169 323.956 394.169 323.956L392.001 314.002L388.325 314.034L419.156 455.362C419.206 455.594 419.301 455.813 419.436 456.008C419.571 456.202 419.743 456.368 419.942 456.496C420.141 456.624 420.363 456.712 420.596 456.754C420.829 456.796 421.068 456.791 421.3 456.74C421.766 456.638 422.173 456.355 422.432 455.953C422.69 455.551 422.779 455.064 422.678 454.596L420.421 444.239H434.148L436.574 455.362C436.783 456.337 437.743 456.95 438.718 456.74C439.693 456.531 440.29 455.58 440.08 454.605ZM394.838 327.035H408.565L410.733 336.99H397.006L394.838 327.035ZM397.683 340.061H411.41L413.586 350.015H399.86L397.683 340.061ZM400.52 353.086H414.247L416.415 363.04H402.689L400.52 353.086ZM403.366 366.103H417.092L419.261 376.058H405.534L403.366 366.103ZM406.203 379.129H419.93L422.098 389.083H408.371L406.203 379.129ZM409.048 392.154H422.775L424.943 402.108H411.216L409.048 392.154ZM411.885 405.179H425.612L427.78 415.134H414.054L411.885 405.179ZM414.731 418.205H428.457L430.625 428.159H416.899L414.731 418.205ZM419.744 441.184L417.576 431.23H431.302L433.471 441.184H419.744Z" fill="#222222"/>
<path d="M420.308 326.173C420.333 326.221 420.639 332.299 417.1 331.71C415.11 331.38 414.215 323.263 410.572 317.718C409.717 316.42 406.638 307.651 405.985 306.305C404.938 304.128 408.484 303.701 409.282 304.612C409.911 305.329 411.595 308.779 414.432 313.51C417.648 318.838 419.688 324.617 420.308 326.173Z" fill="url(#paint43_linear_4_36)"/>
<path d="M421.808 393.162C420.204 392.396 416.544 391.356 415.948 389.333C415.932 389.276 415.932 389.228 415.916 389.172C415.456 387.302 416.875 387.02 418.487 387.358C420.139 387.705 424.999 388.599 424.999 388.599C424.999 388.599 425.854 390.614 425.854 391.807C425.854 393.016 423.387 393.919 421.808 393.162Z" fill="#222222"/>
<path d="M424.846 387.552L424.975 388.438C425.024 388.785 424.854 389.131 424.54 389.293C423.992 389.559 423.049 389.881 421.88 389.687C421.525 389.623 421.243 389.341 421.187 388.986L421.026 387.866L424.846 387.552Z" fill="#EFEFEF"/>
<path d="M418.374 406.55C416.56 405.687 412.401 404.502 411.732 402.205C411.708 402.141 411.716 402.084 411.7 402.028C411.184 399.908 412.788 399.585 414.618 399.964C416.496 400.359 422.009 401.375 422.009 401.375C422.009 401.375 423 403.688 423 405.413C422.992 407.138 420.163 407.404 418.374 406.55Z" fill="#222222"/>
<path d="M421.824 400.182L421.969 401.181C422.396 402.616 419.784 402.818 418.463 402.592C418.06 402.519 417.737 402.205 417.681 401.794L417.495 400.52L421.824 400.182Z" fill="#EFEFEF"/>
<path d="M425.894 354.029C425.894 354.029 426.869 357.124 427.135 360.888C427.466 365.612 423.105 370.625 423.508 373.712C424.234 379.266 425.797 385.069 425.959 386.729C426.12 388.398 420.179 389.349 419.744 387.552C419.309 385.754 415.029 376.493 414.57 373.857C413.772 369.319 419.382 367.232 419.382 367.232C419.382 367.232 418.817 380.064 419.51 383.868C419.905 386.028 422.42 398.223 422.694 399.835C422.767 400.279 421.961 401.528 420.373 401.81C418.688 402.108 416.714 401.657 416.448 400.98C415.762 399.207 413.336 386.02 412.957 383.965C412.571 381.909 411.45 362.42 411.12 360.977C410.781 359.526 425.233 352.562 425.894 354.029Z" fill="url(#paint44_linear_4_36)"/>
<path d="M407.227 332.839C407.194 338.481 410.717 361.541 411.434 361.791C415.932 363.339 426.853 356.778 426.708 355.004C425.749 343.39 421.961 326.221 419.672 325.657C414.86 324.456 407.243 330.074 407.227 332.839Z" fill="url(#paint45_linear_4_36)"/>
<path d="M415.682 290.184C415.682 297.825 409.492 304.024 401.842 304.024C394.201 304.024 388.011 297.825 388.011 290.184C388.011 282.543 394.201 276.353 401.842 276.353C409.484 276.353 415.682 282.543 415.682 290.184Z" fill="url(#paint46_linear_4_36)"/>
<path d="M392.992 292.494V286.675H394.958C395.415 286.675 395.788 286.758 396.078 286.923C396.369 287.085 396.585 287.306 396.725 287.585C396.865 287.863 396.936 288.174 396.936 288.516C396.936 288.859 396.865 289.171 396.725 289.451C396.587 289.731 396.373 289.955 396.083 290.121C395.793 290.286 395.422 290.369 394.97 290.369H393.561V289.744H394.947C395.259 289.744 395.51 289.69 395.7 289.582C395.889 289.474 396.026 289.328 396.112 289.144C396.199 288.959 396.242 288.749 396.242 288.516C396.242 288.283 396.199 288.075 396.112 287.891C396.026 287.708 395.888 287.564 395.697 287.46C395.506 287.353 395.252 287.3 394.936 287.3H393.697V292.494H392.992ZM398.07 292.494V286.675H398.775V289.266H401.877V286.675H402.582V292.494H401.877V289.891H398.775V292.494H398.07ZM403.992 292.494V286.675H405.958C406.415 286.675 406.788 286.758 407.078 286.923C407.369 287.085 407.585 287.306 407.725 287.585C407.865 287.863 407.936 288.174 407.936 288.516C407.936 288.859 407.865 289.171 407.725 289.451C407.587 289.731 407.373 289.955 407.083 290.121C406.793 290.286 406.422 290.369 405.97 290.369H404.561V289.744H405.947C406.259 289.744 406.51 289.69 406.7 289.582C406.889 289.474 407.026 289.328 407.112 289.144C407.199 288.959 407.242 288.749 407.242 288.516C407.242 288.283 407.199 288.075 407.112 287.891C407.026 287.708 406.888 287.564 406.697 287.46C406.506 287.353 406.252 287.3 405.936 287.3H404.697V292.494H403.992Z" fill="#431CA3"/>
<path d="M397.716 353.828C397.03 354.263 396.644 354.73 396.16 355.456C395.435 356.496 396.966 359.639 397.925 358.752C397.732 357.769 399.166 357.293 399.682 357.044C401.383 356.238 401.552 355.407 401.439 354.763C401.125 352.997 399.843 352.473 397.716 353.828Z" fill="#F4A477"/>
<path d="M406.59 346.63C406.453 348.629 400.923 351.377 400.085 352.627C399.319 353.771 399.98 355.456 402.124 355.303C403.213 355.19 412.288 350.257 412.49 348.395C412.853 345.018 412.933 330.324 408.766 330.727C405.203 331.066 406.735 344.631 406.59 346.63Z" fill="url(#paint47_linear_4_36)"/>
<path d="M415.585 317.25C415.021 313.406 411.91 311.858 407.944 313.575C403.205 315.638 405.131 319.378 405.429 321.014C405.808 323.126 406.711 327.285 407.888 327.608C408.734 327.841 409.338 327.455 410.225 327.156C410.531 328.293 410.491 328.913 410.676 329.067C411.539 329.784 415.698 327.882 415.537 326.503C415.464 325.875 415.343 324.835 415.271 323.803C414.964 321.095 416.053 320.394 415.585 317.25Z" fill="#F4A477"/>
<path d="M410.016 320.265C409.29 319.967 408.565 320.378 408.258 321.869C408.234 321.982 407.509 322.264 407.525 322.046C408.033 316.968 405.695 318.403 405.179 317.573C405.155 315.324 405.993 313.599 408.468 312.841C412.49 311.608 416.415 313.381 416.979 317.234C417.366 319.87 415.553 321.675 415.65 324.311C415.666 324.674 415.416 324.569 414.65 324.754C414.054 324.899 413.36 325.56 412.748 325.448C411.982 325.302 410.298 323.755 410.499 322.739C410.693 321.812 410.757 320.571 410.016 320.265Z" fill="#0078A2"/>
<path d="M420.679 388.019C420.679 388.019 419.107 378.089 419.261 375.953C419.414 373.817 420.002 362.541 420.002 362.541L421.517 361.187C421.517 361.187 420.018 373.752 420.212 377.46C420.405 381.168 420.679 388.019 420.679 388.019Z" fill="url(#paint48_linear_4_36)"/>
<path d="M405.663 305.071C405.308 304.443 405.671 302.137 406.227 300.711C406.824 299.171 407.888 296.092 408.734 296.479C409.266 296.721 408.54 299.066 408.54 301.565C408.54 303.153 408.113 304.692 407.847 305.402C407.654 305.934 406.146 306.006 405.663 305.071Z" fill="#F4A477"/>
<path d="M204.73 272.033C204.73 262.578 197.064 254.913 187.61 254.913C178.155 254.913 170.49 262.578 170.49 272.033C170.49 281.487 178.155 289.152 187.61 289.152C197.064 289.16 204.73 281.495 204.73 272.033Z" fill="url(#paint49_linear_4_36)"/>
<path d="M183.386 270H182.682C182.64 269.797 182.567 269.619 182.463 269.466C182.361 269.312 182.236 269.184 182.088 269.08C181.942 268.973 181.78 268.894 181.602 268.841C181.424 268.788 181.239 268.761 181.045 268.761C180.693 268.761 180.374 268.85 180.088 269.028C179.804 269.206 179.578 269.469 179.409 269.815C179.242 270.162 179.159 270.587 179.159 271.091C179.159 271.595 179.242 272.02 179.409 272.366C179.578 272.713 179.804 272.975 180.088 273.153C180.374 273.331 180.693 273.42 181.045 273.42C181.239 273.42 181.424 273.394 181.602 273.341C181.78 273.288 181.942 273.209 182.088 273.105C182.236 272.999 182.361 272.869 182.463 272.716C182.567 272.561 182.64 272.383 182.682 272.182H183.386C183.333 272.479 183.237 272.745 183.097 272.98C182.956 273.215 182.782 273.415 182.574 273.58C182.366 273.742 182.132 273.866 181.872 273.952C181.615 274.037 181.339 274.08 181.045 274.08C180.549 274.08 180.108 273.958 179.722 273.716C179.335 273.473 179.031 273.129 178.81 272.682C178.588 272.235 178.477 271.705 178.477 271.091C178.477 270.477 178.588 269.947 178.81 269.5C179.031 269.053 179.335 268.708 179.722 268.466C180.108 268.223 180.549 268.102 181.045 268.102C181.339 268.102 181.615 268.145 181.872 268.23C182.132 268.315 182.366 268.44 182.574 268.605C182.782 268.768 182.956 268.967 183.097 269.202C183.237 269.435 183.333 269.701 183.386 270ZM187.707 269.636C187.673 269.348 187.534 269.125 187.292 268.966C187.049 268.807 186.752 268.727 186.4 268.727C186.142 268.727 185.917 268.769 185.724 268.852C185.532 268.936 185.383 269.05 185.275 269.196C185.169 269.342 185.116 269.508 185.116 269.693C185.116 269.848 185.153 269.982 185.227 270.094C185.302 270.204 185.399 270.295 185.516 270.369C185.634 270.441 185.757 270.501 185.886 270.548C186.014 270.594 186.133 270.631 186.241 270.659L186.832 270.818C186.983 270.858 187.152 270.913 187.337 270.983C187.525 271.053 187.704 271.149 187.874 271.27C188.047 271.389 188.189 271.543 188.3 271.73C188.412 271.918 188.468 272.148 188.468 272.42C188.468 272.735 188.386 273.019 188.221 273.273C188.058 273.527 187.819 273.728 187.505 273.878C187.192 274.027 186.813 274.102 186.366 274.102C185.949 274.102 185.588 274.035 185.283 273.901C184.98 273.766 184.742 273.579 184.567 273.338C184.395 273.098 184.298 272.818 184.275 272.5H185.002C185.021 272.72 185.095 272.902 185.224 273.045C185.354 273.187 185.519 273.294 185.718 273.364C185.919 273.432 186.135 273.466 186.366 273.466C186.635 273.466 186.876 273.422 187.09 273.335C187.304 273.246 187.474 273.123 187.599 272.966C187.724 272.807 187.786 272.621 187.786 272.409C187.786 272.216 187.732 272.059 187.624 271.938C187.516 271.816 187.374 271.718 187.198 271.642C187.022 271.566 186.832 271.5 186.627 271.443L185.911 271.239C185.457 271.108 185.097 270.921 184.832 270.679C184.567 270.437 184.434 270.119 184.434 269.727C184.434 269.402 184.522 269.117 184.698 268.875C184.876 268.631 185.115 268.441 185.414 268.307C185.715 268.17 186.051 268.102 186.423 268.102C186.798 268.102 187.131 268.17 187.423 268.304C187.714 268.437 187.945 268.618 188.116 268.849C188.288 269.08 188.379 269.343 188.388 269.636H187.707ZM192.808 269.636C192.774 269.348 192.636 269.125 192.393 268.966C192.151 268.807 191.854 268.727 191.501 268.727C191.244 268.727 191.018 268.769 190.825 268.852C190.634 268.936 190.484 269.05 190.376 269.196C190.27 269.342 190.217 269.508 190.217 269.693C190.217 269.848 190.254 269.982 190.328 270.094C190.404 270.204 190.5 270.295 190.618 270.369C190.735 270.441 190.858 270.501 190.987 270.548C191.116 270.594 191.234 270.631 191.342 270.659L191.933 270.818C192.085 270.858 192.253 270.913 192.439 270.983C192.626 271.053 192.805 271.149 192.976 271.27C193.148 271.389 193.29 271.543 193.402 271.73C193.514 271.918 193.57 272.148 193.57 272.42C193.57 272.735 193.487 273.019 193.322 273.273C193.16 273.527 192.921 273.728 192.607 273.878C192.294 274.027 191.914 274.102 191.467 274.102C191.051 274.102 190.69 274.035 190.385 273.901C190.082 273.766 189.843 273.579 189.669 273.338C189.497 273.098 189.399 272.818 189.376 272.5H190.104C190.123 272.72 190.196 272.902 190.325 273.045C190.456 273.187 190.621 273.294 190.82 273.364C191.02 273.432 191.236 273.466 191.467 273.466C191.736 273.466 191.978 273.422 192.192 273.335C192.406 273.246 192.575 273.123 192.7 272.966C192.825 272.807 192.888 272.621 192.888 272.409C192.888 272.216 192.834 272.059 192.726 271.938C192.618 271.816 192.476 271.718 192.3 271.642C192.124 271.566 191.933 271.5 191.729 271.443L191.013 271.239C190.558 271.108 190.198 270.921 189.933 270.679C189.668 270.437 189.536 270.119 189.536 269.727C189.536 269.402 189.624 269.117 189.8 268.875C189.978 268.631 190.216 268.441 190.516 268.307C190.817 268.17 191.153 268.102 191.524 268.102C191.899 268.102 192.232 268.17 192.524 268.304C192.816 268.437 193.047 268.618 193.217 268.849C193.39 269.08 193.481 269.343 193.49 269.636H192.808ZM196.592 274.08C196.217 274.08 195.882 274.015 195.589 273.886C195.297 273.758 195.065 273.579 194.893 273.349C194.722 273.118 194.629 272.85 194.614 272.545H195.33C195.345 272.733 195.41 272.895 195.523 273.031C195.637 273.166 195.786 273.27 195.969 273.344C196.153 273.418 196.357 273.455 196.58 273.455C196.83 273.455 197.052 273.411 197.245 273.324C197.438 273.237 197.59 273.116 197.7 272.96C197.809 272.805 197.864 272.625 197.864 272.42C197.864 272.206 197.811 272.018 197.705 271.855C197.599 271.69 197.444 271.562 197.239 271.469C197.035 271.376 196.785 271.33 196.489 271.33H196.023V270.705H196.489C196.72 270.705 196.923 270.663 197.097 270.58C197.273 270.496 197.411 270.379 197.509 270.227C197.61 270.076 197.66 269.898 197.66 269.693C197.66 269.496 197.616 269.325 197.529 269.179C197.442 269.033 197.319 268.92 197.16 268.838C197.003 268.757 196.817 268.716 196.603 268.716C196.402 268.716 196.213 268.753 196.035 268.827C195.859 268.899 195.715 269.004 195.603 269.142C195.491 269.278 195.431 269.443 195.421 269.636H194.739C194.751 269.331 194.843 269.064 195.015 268.835C195.187 268.604 195.413 268.424 195.691 268.295C195.971 268.167 196.279 268.102 196.614 268.102C196.974 268.102 197.283 268.175 197.54 268.321C197.798 268.465 197.996 268.655 198.134 268.892C198.272 269.129 198.342 269.384 198.342 269.659C198.342 269.987 198.255 270.266 198.083 270.497C197.913 270.728 197.681 270.888 197.387 270.977V271.023C197.754 271.083 198.041 271.24 198.248 271.491C198.454 271.741 198.558 272.051 198.558 272.42C198.558 272.737 198.471 273.021 198.299 273.273C198.129 273.523 197.896 273.72 197.6 273.864C197.305 274.008 196.969 274.08 196.592 274.08Z" fill="#125CAE"/>
<path d="M177.14 355.827C177.14 355.827 177.091 356.657 177.067 357.358C177.059 357.543 177.059 357.721 177.059 357.874C177.059 358.091 178.171 358.269 179.082 358.019C179.799 357.825 180.42 357.269 180.13 356.939C179.824 356.6 179.509 355.407 179.509 355.407L177.14 355.827Z" fill="#EFEFEF"/>
<path d="M177.075 357.358C177.075 357.358 178.744 358.083 180.138 356.939C180.888 356.907 187.255 358.301 186.618 359.317C185.974 360.348 177.728 360.767 177.002 360.219C176.72 360.01 176.785 358.059 177.075 357.358Z" fill="#222222"/>
<path d="M163.808 354.077C163.808 354.077 163.663 354.892 163.566 355.585C163.542 355.77 163.518 355.939 163.502 356.101C163.477 356.318 164.566 356.616 165.5 356.471C166.234 356.359 166.919 355.875 166.661 355.512C166.395 355.141 166.21 353.924 166.21 353.924L163.808 354.077Z" fill="#EBBEAF"/>
<path d="M175.052 321.135L169.482 318.87C169.087 324.609 169.643 329.163 168.023 337.82C167.338 341.463 164.001 349.943 162.704 354.094C163.082 354.98 166.839 355.085 167.354 354.158C168.023 352.739 172.4 344.671 173.601 339.513C174.149 337.127 175.076 326.906 175.052 321.135ZM163.566 355.593C163.566 355.593 165.138 356.504 166.653 355.52C167.403 355.569 173.585 356.802 172.9 358.156C172.626 358.696 163.84 359.059 163.179 358.438C162.929 358.188 163.211 356.262 163.566 355.593Z" fill="#222222"/>
<path d="M171.602 294.811C171.602 294.811 172.094 293.158 171.965 292.344C171.836 291.53 170.006 290.418 169.716 288.717C169.426 287.016 170.409 284.735 172.956 284.558C176.801 284.284 176.68 287.29 176.817 288.33C177.043 290.015 176.865 292.699 176.479 292.884C176.366 292.941 175.89 292.997 175.06 292.715C174.915 293.134 174.544 295.093 174.826 295.697C175.108 296.302 171.602 294.811 171.602 294.811Z" fill="#EFEFEF"/>
<path d="M169.676 315.195C169.482 316.452 169.353 317.839 169.474 318.878C170.087 323.868 173.786 330.122 175.044 338.449C175.6 342.116 175.874 352.087 176.035 355.964C176.511 356.81 180.251 356.487 180.662 355.52C180.251 353.699 182.137 341.479 181.605 335.281C181.379 332.629 177.502 314.171 177.502 314.171C177.502 314.171 172.255 313.712 169.676 315.195Z" fill="#222222"/>
<path d="M175.181 295.036C175.181 295.036 172.795 293.489 170.853 293.795C170.579 293.972 170.49 294.819 170.119 295.842C169.716 296.963 169.039 298.325 168.878 299.864C168.604 302.565 169.12 309.891 168.612 316.702C169.41 317.984 175.576 319.959 178.832 317.065C178.832 317.065 177.986 312.882 177.792 309.496C177.591 305.99 179.969 305.619 179.517 302.855C179.227 301.082 175.987 298.978 175.108 296.31C174.996 295.955 175.245 295.431 175.181 295.036Z" fill="url(#paint50_linear_4_36)"/>
<path d="M176.575 284.913C177.841 287.79 173.948 287.637 172.94 292.828C172.287 296.181 168.749 297.325 168.878 302.387C166.653 301.952 165.702 298.309 168.064 294.158C169.579 291.498 168.346 288.774 168.773 286.654C169.627 282.438 175.382 282.213 176.575 284.913Z" fill="url(#paint51_linear_4_36)"/>
<path d="M171.538 299.784C171.771 297.946 173.537 298.027 176.672 297.511C178.139 297.269 180.839 296.721 182.919 296.004C183.765 295.713 184.998 287.266 185.119 284.993C185.167 284.01 184.458 283.792 184.023 282.97C183.596 282.156 183.338 280.77 183.773 280.633C184.095 280.528 184.353 281.777 184.595 281.834C184.507 280.866 184.232 279.391 184.611 278.424C184.99 277.457 186.393 278.078 186.723 278.392C187.126 278.771 187.247 279.375 187.32 280.246C187.416 281.286 187.795 282.672 187.465 283.373C187.183 283.986 186.917 284.816 186.925 285.251C186.933 285.686 186.812 297.874 185.732 298.591C184.265 299.566 180.186 300.84 176.422 301.493C173.44 302 171.352 301.227 171.538 299.784Z" fill="#EFEFEF"/>
<path d="M435.284 374.518C435.284 362.734 444.836 353.183 456.62 353.183C468.404 353.183 477.955 362.734 477.955 374.518C477.955 386.302 468.404 395.854 456.62 395.854C444.836 395.846 435.284 386.294 435.284 374.518Z" fill="url(#paint52_linear_4_36)"/>
<path d="M446.932 368.182H447.636V372.341C447.636 372.712 447.568 373.027 447.432 373.287C447.295 373.546 447.103 373.743 446.855 373.878C446.607 374.012 446.314 374.08 445.977 374.08C445.659 374.08 445.376 374.022 445.128 373.906C444.88 373.789 444.685 373.622 444.543 373.406C444.401 373.19 444.33 372.934 444.33 372.636H445.023C445.023 372.801 445.063 372.945 445.145 373.068C445.228 373.189 445.342 373.284 445.486 373.352C445.63 373.42 445.794 373.455 445.977 373.455C446.18 373.455 446.352 373.412 446.494 373.327C446.636 373.241 446.744 373.116 446.818 372.952C446.894 372.785 446.932 372.581 446.932 372.341V368.182ZM450.241 374.102C449.965 374.102 449.714 374.05 449.489 373.946C449.263 373.84 449.084 373.688 448.952 373.489C448.819 373.288 448.753 373.045 448.753 372.761C448.753 372.511 448.802 372.309 448.901 372.153C448.999 371.996 449.131 371.873 449.295 371.784C449.46 371.695 449.642 371.629 449.841 371.585C450.042 371.54 450.243 371.504 450.446 371.477C450.711 371.443 450.926 371.418 451.091 371.401C451.258 371.382 451.379 371.35 451.455 371.307C451.532 371.263 451.571 371.187 451.571 371.08V371.057C451.571 370.777 451.494 370.559 451.341 370.403C451.189 370.248 450.959 370.17 450.651 370.17C450.33 370.17 450.08 370.241 449.898 370.381C449.716 370.521 449.588 370.67 449.514 370.83L448.878 370.602C448.991 370.337 449.143 370.131 449.332 369.983C449.524 369.833 449.732 369.729 449.957 369.67C450.185 369.61 450.408 369.58 450.628 369.58C450.768 369.58 450.929 369.597 451.111 369.631C451.295 369.663 451.472 369.73 451.642 369.832C451.814 369.935 451.957 370.089 452.071 370.295C452.185 370.502 452.241 370.778 452.241 371.125V374H451.571V373.409H451.537C451.491 373.504 451.416 373.605 451.31 373.713C451.204 373.821 451.063 373.913 450.886 373.989C450.71 374.064 450.495 374.102 450.241 374.102ZM450.344 373.5C450.609 373.5 450.832 373.448 451.014 373.344C451.198 373.24 451.336 373.105 451.429 372.94C451.524 372.776 451.571 372.602 451.571 372.42V371.807C451.543 371.841 451.48 371.872 451.384 371.901C451.289 371.927 451.179 371.951 451.054 371.972C450.931 371.991 450.811 372.008 450.693 372.023C450.578 372.036 450.484 372.047 450.412 372.057C450.238 372.08 450.075 372.116 449.923 372.168C449.774 372.217 449.652 372.292 449.56 372.392C449.469 372.491 449.423 372.625 449.423 372.795C449.423 373.028 449.509 373.205 449.682 373.324C449.856 373.441 450.077 373.5 450.344 373.5ZM456.877 369.636L455.263 374H454.582L452.968 369.636H453.695L454.9 373.114H454.945L456.15 369.636H456.877ZM458.913 374.102C458.637 374.102 458.386 374.05 458.161 373.946C457.935 373.84 457.756 373.688 457.624 373.489C457.491 373.288 457.425 373.045 457.425 372.761C457.425 372.511 457.474 372.309 457.572 372.153C457.671 371.996 457.803 371.873 457.967 371.784C458.132 371.695 458.314 371.629 458.513 371.585C458.714 371.54 458.915 371.504 459.118 371.477C459.383 371.443 459.598 371.418 459.763 371.401C459.929 371.382 460.051 371.35 460.126 371.307C460.204 371.263 460.243 371.187 460.243 371.08V371.057C460.243 370.777 460.166 370.559 460.013 370.403C459.861 370.248 459.631 370.17 459.322 370.17C459.002 370.17 458.751 370.241 458.57 370.381C458.388 370.521 458.26 370.67 458.186 370.83L457.55 370.602C457.663 370.337 457.815 370.131 458.004 369.983C458.196 369.833 458.404 369.729 458.629 369.67C458.857 369.61 459.08 369.58 459.3 369.58C459.44 369.58 459.601 369.597 459.783 369.631C459.966 369.663 460.143 369.73 460.314 369.832C460.486 369.935 460.629 370.089 460.743 370.295C460.857 370.502 460.913 370.778 460.913 371.125V374H460.243V373.409H460.209C460.163 373.504 460.088 373.605 459.982 373.713C459.875 373.821 459.734 373.913 459.558 373.989C459.382 374.064 459.167 374.102 458.913 374.102ZM459.016 373.5C459.281 373.5 459.504 373.448 459.686 373.344C459.87 373.24 460.008 373.105 460.101 372.94C460.196 372.776 460.243 372.602 460.243 372.42V371.807C460.214 371.841 460.152 371.872 460.055 371.901C459.961 371.927 459.851 371.951 459.726 371.972C459.603 371.991 459.482 372.008 459.365 372.023C459.25 372.036 459.156 372.047 459.084 372.057C458.91 372.08 458.747 372.116 458.595 372.168C458.446 372.217 458.324 372.292 458.232 372.392C458.141 372.491 458.095 372.625 458.095 372.795C458.095 373.028 458.181 373.205 458.354 373.324C458.528 373.441 458.749 373.5 459.016 373.5Z" fill="#731BA3"/>
<path d="M478.334 355.254L480.373 356.02C481.034 356.27 481.558 356.794 481.808 357.455L482.783 360.066C483.146 361.042 483.21 362.105 482.969 363.113C482.638 364.491 481.977 365.757 481.058 366.829C485.282 367.417 488.683 367.506 492.826 366.797C491.73 363.371 490.892 360.389 488.506 357.68L487.603 356.608C487.917 356.552 488.707 349.386 487.74 347.734C485.854 344.51 482.025 345.187 480.929 345.945C479.341 347.226 479.704 348.725 479.1 349.33C478.431 350.007 477.874 350.031 477.842 350.305C477.81 350.579 478.173 350.829 478.285 351.007C478.148 352.361 477.592 353.441 477.617 354.279C477.633 354.626 477.995 355.125 478.334 355.254Z" fill="#EFEFEF"/>
<path opacity="0.35" d="M481.808 357.455L482.259 358.664C481.872 356.689 483.355 355.77 483.355 355.77C483.347 355.77 482.606 356.036 481.405 355.964C480.825 355.931 479.97 355.738 479.551 355.625C479.132 355.504 478.527 355.327 478.527 355.327L480.373 356.02C481.034 356.262 481.558 356.786 481.808 357.455Z" fill="#F58F9E"/>
<path d="M510.454 435.083C510.454 435.083 511.268 436.114 513.001 437.211C514.694 438.275 516.386 439.322 516.136 439.822C515.886 440.322 511.848 446.222 509.487 447.584C507.125 448.954 509.148 446.383 509.277 445.763C509.406 445.142 510.607 442.184 509.616 440.814C508.624 439.451 507.439 438.637 507.754 438.017C508.06 437.396 509.616 434.664 510.454 435.083Z" fill="#EFEFEF"/>
<path d="M493.157 397.192C493.157 397.192 492.778 413.796 494.769 416.778C496.76 419.76 508.971 430.279 511.623 435.574C511.623 435.574 509.97 439.548 506.988 439.387C506.988 439.387 500.145 431.351 495.107 428.344C490.811 425.781 488.272 423.573 487.361 421.332C486.45 419.091 479.656 397.973 479.656 397.973L493.157 397.192ZM513.759 437.686C513.759 437.686 514.274 439.072 512.751 439.999C511.461 440.781 509.406 440.628 509.511 441.942C509.624 443.385 509.229 445.835 508.068 447.254C507.222 448.293 504.779 450.26 505.328 450.744C505.723 451.098 509.68 451.751 514 447.512C518.538 443.054 518.675 440.733 518.474 440.257C518.192 439.653 516.088 438.009 513.759 437.686Z" fill="#222222"/>
<path d="M476.883 442.99C476.883 442.99 476.948 446.472 476.633 447.334C476.319 448.205 469.121 448.076 467.501 446.714C465.889 445.343 471.354 445.037 472.41 443.973C472.885 443.498 473.417 442.176 473.417 442.176L476.883 442.99Z" fill="#EFEFEF"/>
<path d="M492.657 387.543C492.657 387.543 494.527 392.38 494.253 395.878C493.729 402.632 485.04 417.108 484.04 420.091C483.049 423.073 485.121 427.708 483.13 432.511C481.139 437.315 477.665 443.441 477.584 443.772C477.504 444.102 473.377 444.529 472.482 442.417C473.361 439.564 474.94 434.18 475.521 429.287C476.101 424.403 477.076 418.068 477.246 415.005C477.415 411.942 481.324 388.027 481.324 388.027C481.324 388.027 482.968 388.285 492.657 387.543ZM476.859 445.247C476.859 445.247 476.383 447.334 474.312 446.794C472.24 446.254 473.071 444.924 472.369 444.384C471.934 444.046 470.902 444.255 468.629 444.763C465.744 445.408 461.133 445.706 461.125 447.334C461.125 448.124 464.648 450.018 468.855 450.478C473.062 450.937 477.165 450.067 477.617 449.817C478.084 449.567 477.737 446.552 476.859 445.247Z" fill="#222222"/>
<path d="M482.525 363.04C483.114 360.8 485.951 359.059 488.466 359.615C490.521 360.066 492.987 364.104 493.398 367.256C493.81 370.399 491.851 384.271 494.019 389.365C494.019 389.365 482.993 392.863 478.689 391.404C478.689 391.404 480.035 386.512 480.454 382.828C481.236 375.937 478.358 375.155 478.447 371.375C478.511 368.997 482.066 364.781 482.525 363.04Z" fill="url(#paint53_linear_4_36)"/>
<path d="M487.909 364.548C489.546 364.233 490.94 365.692 491.553 369.988C492.326 375.381 493.157 383.199 492.689 385.657C492.423 387.028 484 385.271 476.488 382.699C475.335 382.304 473.756 383.65 472.684 383.562C470.596 383.384 467.34 382.409 467.848 381.281C468.146 380.612 470.298 380.233 470.185 380.144L467.549 379.153C467.614 378.508 469.04 378.71 470.475 378.444C472.587 378.065 474.433 378.452 476.504 379.233C477.979 379.79 484.992 381.281 487.708 380.781C487.273 377.75 486.692 374.018 486.386 372.084C485.685 367.603 485.29 365.055 487.909 364.548Z" fill="#EFEFEF"/>
<path d="M485.749 372.503C487.498 372.116 489.256 371.979 491.053 371.858C491.464 371.834 491.867 371.802 492.278 371.778C492.206 371.117 492.125 370.472 492.036 369.867C491.424 365.571 489.441 363.089 487.772 363.629C485.266 364.443 484.984 367.619 485.677 372.092C485.701 372.221 485.725 372.358 485.749 372.503Z" fill="url(#paint54_linear_4_36)"/>
<path d="M487.095 344.139C483.758 342.914 481.316 345.082 480.937 345.937C483.476 346.251 481.663 348.879 483.525 350.289C485.25 351.595 484.436 353.546 484.782 356.955C485.346 362.452 491.98 361.356 493.213 366.281C495.696 359.889 489.578 356.882 490.263 352.675C490.964 348.355 489.86 345.155 487.095 344.139Z" fill="#222222"/>
<path d="M146.607 384.255C158.497 384.255 168.136 374.616 168.136 362.726C168.136 350.836 158.497 341.197 146.607 341.197C134.717 341.197 125.079 350.836 125.079 362.726C125.079 374.616 134.717 384.255 146.607 384.255Z" fill="url(#paint55_linear_4_36)"/>
<path d="M134.705 365V359.182H135.409V361.773H138.511V359.182H139.216V365H138.511V362.398H135.409V365H134.705ZM140.308 359.807V359.182H144.672V359.807H142.842V365H142.138V359.807H140.308ZM145.759 359.182H146.6L148.577 364.011H148.646L150.623 359.182H151.464V365H150.805V360.58H150.748L148.93 365H148.293L146.475 360.58H146.418V365H145.759V359.182ZM152.876 365V359.182H153.581V364.375H156.286V365H152.876ZM159.092 365.08C158.759 365.08 158.459 365.013 158.192 364.881C157.925 364.748 157.711 364.566 157.55 364.335C157.389 364.104 157.301 363.841 157.286 363.545H157.967C157.994 363.809 158.113 364.027 158.325 364.199C158.539 364.369 158.795 364.455 159.092 364.455C159.331 364.455 159.543 364.399 159.729 364.287C159.916 364.175 160.063 364.022 160.169 363.827C160.277 363.63 160.331 363.407 160.331 363.159C160.331 362.905 160.275 362.679 160.163 362.48C160.054 362.279 159.902 362.121 159.709 362.006C159.516 361.89 159.295 361.831 159.047 361.83C158.869 361.828 158.686 361.855 158.499 361.912C158.311 361.967 158.157 362.038 158.036 362.125L157.376 362.045L157.729 359.182H160.751V359.807H158.32L158.115 361.523H158.149C158.268 361.428 158.418 361.349 158.598 361.287C158.778 361.224 158.965 361.193 159.161 361.193C159.517 361.193 159.834 361.278 160.112 361.449C160.393 361.617 160.612 361.848 160.771 362.142C160.932 362.436 161.013 362.771 161.013 363.148C161.013 363.519 160.929 363.85 160.763 364.142C160.598 364.432 160.371 364.661 160.081 364.83C159.791 364.996 159.462 365.08 159.092 365.08Z" fill="#431CA3"/>
<path d="M127.231 344.55L124.933 345.405C124.184 345.687 123.595 346.275 123.321 347.017L122.225 349.951C121.814 351.049 121.741 352.244 122.016 353.384C122.386 354.932 123.128 356.367 124.168 357.576C119.404 358.237 115.575 358.341 110.909 357.535C112.142 353.674 113.085 350.313 115.769 347.267L116.785 346.058C116.43 345.993 115.535 337.925 116.623 336.055C118.743 332.42 123.055 333.185 124.297 334.04C126.086 335.483 125.675 337.167 126.36 337.852C127.118 338.61 127.746 338.642 127.779 338.948C127.819 339.255 127.408 339.545 127.279 339.738C127.432 341.262 128.061 342.479 128.029 343.422C128.02 343.841 127.617 344.405 127.231 344.55Z" fill="#684204"/>
<path d="M91.0482 434.47C91.0482 434.47 90.1294 435.631 88.1788 436.864C86.2766 438.065 84.3663 439.242 84.6404 439.806C84.9225 440.362 89.4684 447.012 92.1283 448.551C94.7882 450.091 92.5071 447.197 92.3701 446.496C92.2331 445.795 90.8709 442.458 91.9913 440.918C93.1117 439.379 94.4416 438.468 94.087 437.767C93.7404 437.082 91.9913 434.003 91.0482 434.47Z" fill="#222222"/>
<path d="M110.53 391.783C110.53 391.783 110.957 410.491 108.716 413.852C106.476 417.213 92.7168 429.062 89.7345 435.026C89.7345 435.026 91.5964 439.5 94.9575 439.314C94.9575 439.314 102.663 430.263 108.338 426.877C113.174 423.992 116.035 421.501 117.067 418.978C118.09 416.456 125.74 392.67 125.74 392.67L110.53 391.783Z" fill="url(#paint56_linear_4_36)"/>
<path d="M87.3245 437.412C87.3245 437.412 86.7441 438.976 88.461 440.024C89.9118 440.91 92.2332 440.733 92.1123 442.216C91.9833 443.836 92.4266 446.609 93.7404 448.205C94.6996 449.373 97.4481 451.59 96.8275 452.138C96.3842 452.533 91.9269 453.275 87.0666 448.503C81.9483 443.481 81.7952 440.862 82.0289 440.338C82.3352 439.613 84.7049 437.767 87.3245 437.412ZM128.867 443.377C128.867 443.377 128.794 447.294 129.149 448.277C129.496 449.261 137.612 449.116 139.434 447.576C141.255 446.037 135.097 445.682 133.905 444.497C133.373 443.965 132.776 442.474 132.776 442.474L128.867 443.377Z" fill="#222222"/>
<path d="M111.094 380.918C111.094 380.918 108.99 386.367 109.297 390.308C109.885 397.917 119.678 414.223 120.799 417.584C121.919 420.945 119.59 426.168 121.822 431.577C124.063 436.985 127.98 443.893 128.077 444.263C128.174 444.634 132.824 445.11 133.816 442.732C132.833 439.516 131.051 433.446 130.398 427.941C129.745 422.436 128.641 415.303 128.456 411.853C128.27 408.403 123.861 381.466 123.861 381.466C123.861 381.466 122.008 381.756 111.094 380.918Z" fill="url(#paint57_linear_4_36)"/>
<path d="M128.891 445.924C128.891 445.924 129.431 448.277 131.761 447.673C134.09 447.068 133.163 445.561 133.945 444.965C134.437 444.586 135.597 444.819 138.152 445.392C141.401 446.117 146.599 446.456 146.599 448.285C146.599 449.18 142.634 451.316 137.894 451.824C133.155 452.34 128.536 451.356 128.021 451.074C127.513 450.792 127.908 447.399 128.891 445.924Z" fill="#222222"/>
<path d="M122.507 353.32C121.846 350.797 118.646 348.838 115.809 349.459C113.488 349.967 110.715 354.513 110.248 358.059C109.78 361.606 111.989 377.226 109.547 382.965C109.547 382.965 121.959 386.907 126.812 385.262C126.812 385.262 125.288 379.749 124.821 375.606C123.942 367.844 127.182 366.966 127.077 362.702C127.029 360.026 123.023 355.278 122.507 353.32Z" fill="url(#paint58_linear_4_36)"/>
<path d="M116.446 355.02C114.608 354.666 113.037 356.31 112.343 361.146C111.473 367.216 110.538 376.025 111.07 378.79C111.368 380.338 120.855 378.355 129.326 375.461C130.624 375.018 132.397 376.533 133.614 376.428C135.96 376.227 139.627 375.131 139.063 373.857C138.724 373.1 136.306 372.672 136.435 372.576L139.41 371.463C139.337 370.738 137.733 370.964 136.113 370.665C133.735 370.238 131.648 370.673 129.318 371.552C127.658 372.181 119.759 373.857 116.704 373.293C117.196 369.884 117.849 365.676 118.187 363.5C118.953 358.462 119.396 355.585 116.446 355.02Z" fill="#684204"/>
<path d="M118.872 363.975C116.905 363.532 114.923 363.379 112.9 363.242L111.521 363.145C111.61 362.404 111.699 361.678 111.795 360.993C112.488 356.157 114.721 353.36 116.599 353.973C119.42 354.892 119.743 358.462 118.961 363.508C118.937 363.653 118.904 363.814 118.872 363.975Z" fill="url(#paint59_linear_4_36)"/>
<path d="M117.365 332.025C121.129 330.646 123.869 333.089 124.297 334.048C121.443 334.394 123.475 337.361 121.387 338.948C119.444 340.415 120.363 342.616 119.968 346.461C119.332 352.651 111.852 351.418 110.473 356.963C107.676 349.765 114.568 346.372 113.802 341.641C113.004 336.772 114.254 333.169 117.365 332.025Z" fill="#222222"/>
<defs>
<linearGradient id="paint0_linear_4_36" x1="38.6898" y1="216.183" x2="474.211" y2="216.183" gradientUnits="userSpaceOnUse">
<stop stop-color="#EC008C"/>
<stop offset="1" stop-color="#F26323"/>
</linearGradient>
<linearGradient id="paint1_linear_4_36" x1="379.439" y1="39.4999" x2="366.188" y2="105.39" gradientUnits="userSpaceOnUse">
<stop stop-color="#88CFDA"/>
<stop offset="0.008" stop-color="#89CFD9"/>
<stop offset="0.478" stop-color="#C8D9BB"/>
<stop offset="0.822" stop-color="#F0DFA7"/>
<stop offset="1" stop-color="#FFE1A0"/>
</linearGradient>
<linearGradient id="paint2_linear_4_36" x1="401.726" y1="305.087" x2="526.591" y2="217.802" gradientUnits="userSpaceOnUse">
<stop offset="1"/>
</linearGradient>
<linearGradient id="paint3_linear_4_36" x1="359.148" y1="392.958" x2="446.287" y2="248.401" gradientUnits="userSpaceOnUse">
<stop stop-color="#7633FF"/>
<stop offset="0.159" stop-color="#7137FF"/>
<stop offset="0.353" stop-color="#6243FF"/>
<stop offset="0.568" stop-color="#4957FF"/>
<stop offset="0.794" stop-color="#2672FF"/>
<stop offset="1" stop-color="#0090FF"/>
</linearGradient>
<linearGradient id="paint4_linear_4_36" x1="412.193" y1="356.229" x2="411.859" y2="356.797" gradientUnits="userSpaceOnUse">
<stop offset="0.074" stop-color="#CEC228"/>
<stop offset="0.58" stop-color="#B2AE18"/>
</linearGradient>
<linearGradient id="paint5_linear_4_36" x1="360.838" y1="314.353" x2="373.401" y2="311.556" gradientUnits="userSpaceOnUse">
<stop stop-color="#7700BB"/>
<stop offset="1"/>
</linearGradient>
<linearGradient id="paint6_linear_4_36" x1="298.363" y1="350.618" x2="376.956" y2="333.12" gradientUnits="userSpaceOnUse">
<stop stop-color="#7700BB"/>
<stop offset="1"/>
</linearGradient>
<linearGradient id="paint7_linear_4_36" x1="393.967" y1="382.632" x2="459.427" y2="368.058" gradientUnits="userSpaceOnUse">
<stop stop-color="#7700BB"/>
<stop offset="1"/>
</linearGradient>
<linearGradient id="paint8_linear_4_36" x1="164.232" y1="288.847" x2="39.3506" y2="201.586" gradientUnits="userSpaceOnUse">
<stop offset="1"/>
</linearGradient>
<linearGradient id="paint9_linear_4_36" x1="338.915" y1="448.207" x2="417.277" y2="323.909" gradientUnits="userSpaceOnUse">
<stop stop-color="#59023F"/>
<stop offset="0.119" stop-color="#590444"/>
<stop offset="0.265" stop-color="#5A0A53"/>
<stop offset="0.426" stop-color="#5C156C"/>
<stop offset="0.597" stop-color="#5E238F"/>
<stop offset="0.776" stop-color="#6135BC"/>
<stop offset="0.96" stop-color="#644CF2"/>
<stop offset="1" stop-color="#6551FF"/>
</linearGradient>
<linearGradient id="paint10_linear_4_36" x1="390.863" y1="417.086" x2="390.739" y2="417.734" gradientUnits="userSpaceOnUse">
<stop offset="0.074" stop-color="#CEC228"/>
<stop offset="0.58" stop-color="#B2AE18"/>
</linearGradient>
<linearGradient id="paint11_linear_4_36" x1="328.462" y1="394.858" x2="339.359" y2="388.011" gradientUnits="userSpaceOnUse">
<stop stop-color="#7700BB"/>
<stop offset="1"/>
</linearGradient>
<linearGradient id="paint12_linear_4_36" x1="281.758" y1="449.973" x2="349.937" y2="407.135" gradientUnits="userSpaceOnUse">
<stop stop-color="#7700BB"/>
<stop offset="1"/>
</linearGradient>
<linearGradient id="paint13_linear_4_36" x1="197.666" y1="360.064" x2="15.9561" y2="262.791" gradientUnits="userSpaceOnUse">
<stop stop-color="#7633FF"/>
<stop offset="0.159" stop-color="#7137FF"/>
<stop offset="0.353" stop-color="#6243FF"/>
<stop offset="0.568" stop-color="#4957FF"/>
<stop offset="0.794" stop-color="#2672FF"/>
<stop offset="1" stop-color="#0090FF"/>
</linearGradient>
<linearGradient id="paint14_linear_4_36" x1="161.538" y1="372.331" x2="162.139" y2="372.603" gradientUnits="userSpaceOnUse">
<stop offset="0.074" stop-color="#CEC228"/>
<stop offset="0.58" stop-color="#B2AE18"/>
</linearGradient>
<linearGradient id="paint15_linear_4_36" x1="239.45" y1="449.061" x2="157.485" y2="309.45" gradientUnits="userSpaceOnUse">
<stop stop-color="#59023F"/>
<stop offset="0.119" stop-color="#590444"/>
<stop offset="0.265" stop-color="#5A0A53"/>
<stop offset="0.426" stop-color="#5C156C"/>
<stop offset="0.597" stop-color="#5E238F"/>
<stop offset="0.776" stop-color="#6135BC"/>
<stop offset="0.96" stop-color="#644CF2"/>
<stop offset="1" stop-color="#6551FF"/>
</linearGradient>
<linearGradient id="paint16_linear_4_36" x1="192.445" y1="418.094" x2="192.626" y2="418.727" gradientUnits="userSpaceOnUse">
<stop offset="0.074" stop-color="#CEC228"/>
<stop offset="0.58" stop-color="#B2AE18"/>
</linearGradient>
<linearGradient id="paint17_linear_4_36" x1="252.644" y1="390.347" x2="241.173" y2="384.503" gradientUnits="userSpaceOnUse">
<stop stop-color="#7700BB"/>
<stop offset="1"/>
</linearGradient>
<linearGradient id="paint18_linear_4_36" x1="304.101" y1="441.053" x2="232.351" y2="404.5" gradientUnits="userSpaceOnUse">
<stop stop-color="#7700BB"/>
<stop offset="1"/>
</linearGradient>
<linearGradient id="paint19_linear_4_36" x1="219.17" y1="419.777" x2="136.556" y2="377.69" gradientUnits="userSpaceOnUse">
<stop stop-color="#7700BB"/>
<stop offset="1"/>
</linearGradient>
<linearGradient id="paint20_linear_4_36" x1="209.598" y1="179.589" x2="216.677" y2="182.817" gradientUnits="userSpaceOnUse">
<stop stop-color="#7633FF"/>
<stop offset="0.159" stop-color="#7137FF"/>
<stop offset="0.353" stop-color="#6243FF"/>
<stop offset="0.568" stop-color="#4957FF"/>
<stop offset="0.794" stop-color="#2672FF"/>
<stop offset="1" stop-color="#0090FF"/>
</linearGradient>
<linearGradient id="paint21_linear_4_36" x1="200.174" y1="181.713" x2="206.44" y2="184.57" gradientUnits="userSpaceOnUse">
<stop stop-color="#7633FF"/>
<stop offset="0.159" stop-color="#7137FF"/>
<stop offset="0.353" stop-color="#6243FF"/>
<stop offset="0.568" stop-color="#4957FF"/>
<stop offset="0.794" stop-color="#2672FF"/>
<stop offset="1" stop-color="#0090FF"/>
</linearGradient>
<linearGradient id="paint22_linear_4_36" x1="194.882" y1="191.314" x2="200.464" y2="193.86" gradientUnits="userSpaceOnUse">
<stop stop-color="#7633FF"/>
<stop offset="0.159" stop-color="#7137FF"/>
<stop offset="0.353" stop-color="#6243FF"/>
<stop offset="0.568" stop-color="#4957FF"/>
<stop offset="0.794" stop-color="#2672FF"/>
<stop offset="1" stop-color="#0090FF"/>
</linearGradient>
<linearGradient id="paint23_linear_4_36" x1="182.709" y1="185.92" x2="190.635" y2="189.535" gradientUnits="userSpaceOnUse">
<stop stop-color="#7633FF"/>
<stop offset="0.159" stop-color="#7137FF"/>
<stop offset="0.353" stop-color="#6243FF"/>
<stop offset="0.568" stop-color="#4957FF"/>
<stop offset="0.794" stop-color="#2672FF"/>
<stop offset="1" stop-color="#0090FF"/>
</linearGradient>
<linearGradient id="paint24_linear_4_36" x1="170.607" y1="204.645" x2="179.871" y2="208.87" gradientUnits="userSpaceOnUse">
<stop stop-color="#7633FF"/>
<stop offset="0.159" stop-color="#7137FF"/>
<stop offset="0.353" stop-color="#6243FF"/>
<stop offset="0.568" stop-color="#4957FF"/>
<stop offset="0.794" stop-color="#2672FF"/>
<stop offset="1" stop-color="#0090FF"/>
</linearGradient>
<linearGradient id="paint25_linear_4_36" x1="175.693" y1="193.429" x2="183.172" y2="196.84" gradientUnits="userSpaceOnUse">
<stop stop-color="#7633FF"/>
<stop offset="0.159" stop-color="#7137FF"/>
<stop offset="0.353" stop-color="#6243FF"/>
<stop offset="0.568" stop-color="#4957FF"/>
<stop offset="0.794" stop-color="#2672FF"/>
<stop offset="1" stop-color="#0090FF"/>
</linearGradient>
<linearGradient id="paint26_linear_4_36" x1="342.268" y1="185.596" x2="335.19" y2="188.824" gradientUnits="userSpaceOnUse">
<stop stop-color="#7633FF"/>
<stop offset="0.159" stop-color="#7137FF"/>
<stop offset="0.353" stop-color="#6243FF"/>
<stop offset="0.568" stop-color="#4957FF"/>
<stop offset="0.794" stop-color="#2672FF"/>
<stop offset="1" stop-color="#0090FF"/>
</linearGradient>
<linearGradient id="paint27_linear_4_36" x1="351.691" y1="187.72" x2="345.426" y2="190.577" gradientUnits="userSpaceOnUse">
<stop stop-color="#7633FF"/>
<stop offset="0.159" stop-color="#7137FF"/>
<stop offset="0.353" stop-color="#6243FF"/>
<stop offset="0.568" stop-color="#4957FF"/>
<stop offset="0.794" stop-color="#2672FF"/>
<stop offset="1" stop-color="#0090FF"/>
</linearGradient>
<linearGradient id="paint28_linear_4_36" x1="356.984" y1="197.322" x2="351.401" y2="199.867" gradientUnits="userSpaceOnUse">
<stop stop-color="#7633FF"/>
<stop offset="0.159" stop-color="#7137FF"/>
<stop offset="0.353" stop-color="#6243FF"/>
<stop offset="0.568" stop-color="#4957FF"/>
<stop offset="0.794" stop-color="#2672FF"/>
<stop offset="1" stop-color="#0090FF"/>
</linearGradient>
<linearGradient id="paint29_linear_4_36" x1="369.157" y1="191.927" x2="361.23" y2="195.541" gradientUnits="userSpaceOnUse">
<stop stop-color="#7633FF"/>
<stop offset="0.159" stop-color="#7137FF"/>
<stop offset="0.353" stop-color="#6243FF"/>
<stop offset="0.568" stop-color="#4957FF"/>
<stop offset="0.794" stop-color="#2672FF"/>
<stop offset="1" stop-color="#0090FF"/>
</linearGradient>
<linearGradient id="paint30_linear_4_36" x1="381.259" y1="210.652" x2="371.995" y2="214.876" gradientUnits="userSpaceOnUse">
<stop stop-color="#7633FF"/>
<stop offset="0.159" stop-color="#7137FF"/>
<stop offset="0.353" stop-color="#6243FF"/>
<stop offset="0.568" stop-color="#4957FF"/>
<stop offset="0.794" stop-color="#2672FF"/>
<stop offset="1" stop-color="#0090FF"/>
</linearGradient>
<linearGradient id="paint31_linear_4_36" x1="376.173" y1="199.436" x2="368.694" y2="202.846" gradientUnits="userSpaceOnUse">
<stop stop-color="#7633FF"/>
<stop offset="0.159" stop-color="#7137FF"/>
<stop offset="0.353" stop-color="#6243FF"/>
<stop offset="0.568" stop-color="#4957FF"/>
<stop offset="0.794" stop-color="#2672FF"/>
<stop offset="1" stop-color="#0090FF"/>
</linearGradient>
<linearGradient id="paint32_linear_4_36" x1="286.061" y1="487.351" x2="286.061" y2="430.671" gradientUnits="userSpaceOnUse">
<stop stop-color="#7700BB"/>
<stop offset="0.118" stop-color="#6300B3"/>
<stop offset="0.393" stop-color="#3800A2"/>
<stop offset="0.641" stop-color="#190095"/>
<stop offset="0.852" stop-color="#07008E"/>
<stop offset="1"/>
</linearGradient>
<linearGradient id="paint33_linear_4_36" x1="290.588" y1="256.368" x2="266.269" y2="156.389" gradientUnits="userSpaceOnUse">
<stop stop-color="white"/>
<stop offset="0.122" stop-color="#FBFDFF"/>
<stop offset="0.248" stop-color="#EFF5FF"/>
<stop offset="0.374" stop-color="#DAE9FF"/>
<stop offset="0.501" stop-color="#BDD9FF"/>
<stop offset="0.629" stop-color="#98C3FF"/>
<stop offset="0.758" stop-color="#6BA9FF"/>
<stop offset="0.885" stop-color="#378AFF"/>
<stop offset="1" stop-color="#006AFF"/>
</linearGradient>
<linearGradient id="paint34_linear_4_36" x1="284.527" y1="204.473" x2="284.527" y2="102.593" gradientUnits="userSpaceOnUse">
<stop stop-color="white"/>
<stop offset="0.122" stop-color="#FBFDFF"/>
<stop offset="0.248" stop-color="#EFF5FF"/>
<stop offset="0.374" stop-color="#DAE9FF"/>
<stop offset="0.501" stop-color="#BDD9FF"/>
<stop offset="0.629" stop-color="#98C3FF"/>
<stop offset="0.758" stop-color="#6BA9FF"/>
<stop offset="0.885" stop-color="#378AFF"/>
<stop offset="1" stop-color="#006AFF"/>
</linearGradient>
<linearGradient id="paint35_linear_4_36" x1="227.695" y1="237.101" x2="216.886" y2="342.484" gradientUnits="userSpaceOnUse">
<stop stop-color="white"/>
<stop offset="0.122" stop-color="#FBFDFF"/>
<stop offset="0.248" stop-color="#EFF5FF"/>
<stop offset="0.374" stop-color="#DAE9FF"/>
<stop offset="0.501" stop-color="#BDD9FF"/>
<stop offset="0.629" stop-color="#98C3FF"/>
<stop offset="0.758" stop-color="#6BA9FF"/>
<stop offset="0.885" stop-color="#378AFF"/>
<stop offset="1" stop-color="#006AFF"/>
</linearGradient>
<linearGradient id="paint36_linear_4_36" x1="316.993" y1="242.547" x2="351.221" y2="338.923" gradientUnits="userSpaceOnUse">
<stop stop-color="white"/>
<stop offset="0.122" stop-color="#FBFDFF"/>
<stop offset="0.248" stop-color="#EFF5FF"/>
<stop offset="0.374" stop-color="#DAE9FF"/>
<stop offset="0.501" stop-color="#BDD9FF"/>
<stop offset="0.629" stop-color="#98C3FF"/>
<stop offset="0.758" stop-color="#6BA9FF"/>
<stop offset="0.885" stop-color="#378AFF"/>
<stop offset="1" stop-color="#006AFF"/>
</linearGradient>
<linearGradient id="paint37_linear_4_36" x1="283.977" y1="249.508" x2="283.977" y2="365.732" gradientUnits="userSpaceOnUse">
<stop stop-color="#1DACFF"/>
<stop offset="0.114" stop-color="#1B9FEF"/>
<stop offset="0.337" stop-color="#157DC6"/>
<stop offset="0.647" stop-color="#0C4682"/>
<stop offset="1" stop-color="#00002E"/>
</linearGradient>
<linearGradient id="paint38_linear_4_36" x1="285.207" y1="404.731" x2="285.207" y2="286.118" gradientUnits="userSpaceOnUse">
<stop/>
<stop offset="0.101" stop-color="#020305"/>
<stop offset="0.224" stop-color="#0A0B14"/>
<stop offset="0.36" stop-color="#151A2D"/>
<stop offset="0.505" stop-color="#252D50"/>
<stop offset="0.657" stop-color="#3A477D"/>
<stop offset="0.814" stop-color="#5466B4"/>
<stop offset="0.974" stop-color="#728AF4"/>
<stop offset="1" stop-color="#7790FF"/>
</linearGradient>
<linearGradient id="paint39_linear_4_36" x1="154" y1="398.456" x2="302.449" y2="398.456" gradientUnits="userSpaceOnUse">
<stop stop-color="#311842"/>
<stop offset="0.461" stop-color="#190C4B"/>
<stop offset="1" stop-color="#000054"/>
</linearGradient>
<linearGradient id="paint40_linear_4_36" x1="292.617" y1="445.099" x2="373.076" y2="445.099" gradientUnits="userSpaceOnUse">
<stop stop-color="white"/>
<stop offset="0.122" stop-color="#FBFDFF"/>
<stop offset="0.248" stop-color="#EFF5FF"/>
<stop offset="0.374" stop-color="#DAE9FF"/>
<stop offset="0.501" stop-color="#BDD9FF"/>
<stop offset="0.629" stop-color="#98C3FF"/>
<stop offset="0.758" stop-color="#6BA9FF"/>
<stop offset="0.885" stop-color="#378AFF"/>
<stop offset="1" stop-color="#006AFF"/>
</linearGradient>
<linearGradient id="paint41_linear_4_36" x1="271.676" y1="399.357" x2="420.125" y2="399.357" gradientUnits="userSpaceOnUse">
<stop stop-color="#311842"/>
<stop offset="0.461" stop-color="#190C4B"/>
<stop offset="1" stop-color="#000054"/>
</linearGradient>
<linearGradient id="paint42_linear_4_36" x1="279.824" y1="423.181" x2="163.16" y2="467.726" gradientUnits="userSpaceOnUse">
<stop stop-color="white"/>
<stop offset="0.122" stop-color="#FBFDFF"/>
<stop offset="0.248" stop-color="#EFF5FF"/>
<stop offset="0.374" stop-color="#DAE9FF"/>
<stop offset="0.501" stop-color="#BDD9FF"/>
<stop offset="0.629" stop-color="#98C3FF"/>
<stop offset="0.758" stop-color="#6BA9FF"/>
<stop offset="0.885" stop-color="#378AFF"/>
<stop offset="1" stop-color="#006AFF"/>
</linearGradient>
<linearGradient id="paint43_linear_4_36" x1="405.815" y1="305.782" x2="443.066" y2="370.028" gradientUnits="userSpaceOnUse">
<stop stop-color="#FF5E00"/>
<stop offset="0.067" stop-color="#DE5F28"/>
<stop offset="0.162" stop-color="#B5615A"/>
<stop offset="0.262" stop-color="#906286"/>
<stop offset="0.365" stop-color="#7163AB"/>
<stop offset="0.472" stop-color="#5864CA"/>
<stop offset="0.584" stop-color="#4565E1"/>
<stop offset="0.703" stop-color="#3766F2"/>
<stop offset="0.834" stop-color="#2F66FC"/>
<stop offset="1" stop-color="#2C66FF"/>
</linearGradient>
<linearGradient id="paint44_linear_4_36" x1="419.422" y1="358.131" x2="417.202" y2="397.344" gradientUnits="userSpaceOnUse">
<stop stop-color="#403372"/>
<stop offset="0.143" stop-color="#3E3677"/>
<stop offset="0.318" stop-color="#374086"/>
<stop offset="0.511" stop-color="#2B519F"/>
<stop offset="0.716" stop-color="#1C68C2"/>
<stop offset="0.929" stop-color="#0885EE"/>
<stop offset="1" stop-color="#0090FF"/>
</linearGradient>
<linearGradient id="paint45_linear_4_36" x1="391.968" y1="302.742" x2="429.22" y2="366.987" gradientUnits="userSpaceOnUse">
<stop stop-color="#FF5E00"/>
<stop offset="0.151" stop-color="#FC5E03"/>
<stop offset="0.28" stop-color="#F45E0E"/>
<stop offset="0.401" stop-color="#E55F20"/>
<stop offset="0.517" stop-color="#D06038"/>
<stop offset="0.63" stop-color="#B66159"/>
<stop offset="0.74" stop-color="#956280"/>
<stop offset="0.847" stop-color="#6F63AF"/>
<stop offset="0.951" stop-color="#4365E3"/>
<stop offset="1" stop-color="#2C66FF"/>
</linearGradient>
<linearGradient id="paint46_linear_4_36" x1="388.009" y1="290.187" x2="415.68" y2="290.187" gradientUnits="userSpaceOnUse">
<stop stop-color="#88CFDA"/>
<stop offset="0.008" stop-color="#89CFD9"/>
<stop offset="0.478" stop-color="#C8D9BB"/>
<stop offset="0.822" stop-color="#F0DFA7"/>
<stop offset="1" stop-color="#FFE1A0"/>
</linearGradient>
<linearGradient id="paint47_linear_4_36" x1="402.04" y1="355.337" x2="416.058" y2="328.437" gradientUnits="userSpaceOnUse">
<stop stop-color="#FF5E00"/>
<stop offset="0.118" stop-color="#FB5E04"/>
<stop offset="0.242" stop-color="#F15F11"/>
<stop offset="0.37" stop-color="#DF5F26"/>
<stop offset="0.5" stop-color="#C76044"/>
<stop offset="0.632" stop-color="#A7616A"/>
<stop offset="0.765" stop-color="#806399"/>
<stop offset="0.897" stop-color="#5464CF"/>
<stop offset="1" stop-color="#2C66FF"/>
</linearGradient>
<linearGradient id="paint48_linear_4_36" x1="419.252" y1="374.604" x2="421.52" y2="374.604" gradientUnits="userSpaceOnUse">
<stop offset="0.041" stop-color="#100060"/>
<stop offset="1" stop-color="#090E96"/>
</linearGradient>
<linearGradient id="paint49_linear_4_36" x1="179.188" y1="287.669" x2="199.199" y2="250.506" gradientUnits="userSpaceOnUse">
<stop stop-color="#88CFDA"/>
<stop offset="0.008" stop-color="#89CFD9"/>
<stop offset="0.478" stop-color="#C8D9BB"/>
<stop offset="0.822" stop-color="#F0DFA7"/>
<stop offset="1" stop-color="#FFE1A0"/>
</linearGradient>
<linearGradient id="paint50_linear_4_36" x1="172.38" y1="323.782" x2="174.808" y2="298.098" gradientUnits="userSpaceOnUse">
<stop offset="0.041" stop-color="#EB3300"/>
<stop offset="1" stop-color="#FF8800"/>
</linearGradient>
<linearGradient id="paint51_linear_4_36" x1="169.824" y1="296.634" x2="176.363" y2="273.906" gradientUnits="userSpaceOnUse">
<stop offset="0.193" stop-color="#2F1109"/>
<stop offset="0.681" stop-color="#7A3E25"/>
</linearGradient>
<linearGradient id="paint52_linear_4_36" x1="475.489" y1="392.38" x2="440.189" y2="358.971" gradientUnits="userSpaceOnUse">
<stop stop-color="#88CFDA"/>
<stop offset="0.008" stop-color="#89CFD9"/>
<stop offset="0.478" stop-color="#C8D9BB"/>
<stop offset="0.822" stop-color="#F0DFA7"/>
<stop offset="1" stop-color="#FFE1A0"/>
</linearGradient>
<linearGradient id="paint53_linear_4_36" x1="484.435" y1="394.934" x2="488.79" y2="359.669" gradientUnits="userSpaceOnUse">
<stop stop-color="#7633FF"/>
<stop offset="0.159" stop-color="#7137FF"/>
<stop offset="0.353" stop-color="#6243FF"/>
<stop offset="0.568" stop-color="#4957FF"/>
<stop offset="0.794" stop-color="#2672FF"/>
<stop offset="1" stop-color="#0090FF"/>
</linearGradient>
<linearGradient id="paint54_linear_4_36" x1="488.294" y1="362.829" x2="489.094" y2="374.396" gradientUnits="userSpaceOnUse">
<stop stop-color="#7633FF"/>
<stop offset="0.159" stop-color="#7137FF"/>
<stop offset="0.353" stop-color="#6243FF"/>
<stop offset="0.568" stop-color="#4957FF"/>
<stop offset="0.794" stop-color="#2672FF"/>
<stop offset="1" stop-color="#0090FF"/>
</linearGradient>
<linearGradient id="paint55_linear_4_36" x1="127.959" y1="382.837" x2="162.41" y2="345.685" gradientUnits="userSpaceOnUse">
<stop stop-color="#88CFDA"/>
<stop offset="0.008" stop-color="#89CFD9"/>
<stop offset="0.478" stop-color="#C8D9BB"/>
<stop offset="0.822" stop-color="#F0DFA7"/>
<stop offset="1" stop-color="#FFE1A0"/>
</linearGradient>
<linearGradient id="paint56_linear_4_36" x1="125.742" y1="415.555" x2="89.7313" y2="415.555" gradientUnits="userSpaceOnUse">
<stop stop-color="#311341"/>
<stop offset="0.23" stop-color="#3113C2"/>
<stop offset="0.348" stop-color="#2F18C5"/>
<stop offset="0.493" stop-color="#2927CC"/>
<stop offset="0.652" stop-color="#1F40D8"/>
<stop offset="0.822" stop-color="#1263E9"/>
<stop offset="0.998" stop-color="#008FFF"/>
<stop offset="1" stop-color="#0090FF"/>
</linearGradient>
<linearGradient id="paint57_linear_4_36" x1="114.182" y1="373.74" x2="123.876" y2="423.689" gradientUnits="userSpaceOnUse">
<stop stop-color="#7633FF"/>
<stop offset="0.159" stop-color="#7137FF"/>
<stop offset="0.353" stop-color="#6243FF"/>
<stop offset="0.568" stop-color="#4957FF"/>
<stop offset="0.794" stop-color="#2672FF"/>
<stop offset="1" stop-color="#0090FF"/>
</linearGradient>
<linearGradient id="paint58_linear_4_36" x1="120.36" y1="389.246" x2="115.453" y2="349.519" gradientUnits="userSpaceOnUse">
<stop offset="0.041" stop-color="#EB3300"/>
<stop offset="1" stop-color="#FF8800"/>
</linearGradient>
<linearGradient id="paint59_linear_4_36" x1="116.012" y1="353.08" x2="115.111" y2="366.111" gradientUnits="userSpaceOnUse">
<stop stop-color="#FF5E00"/>
<stop offset="0.151" stop-color="#FC5E03"/>
<stop offset="0.28" stop-color="#F45E0E"/>
<stop offset="0.401" stop-color="#E55F20"/>
<stop offset="0.517" stop-color="#D06038"/>
<stop offset="0.63" stop-color="#B66159"/>
<stop offset="0.74" stop-color="#956280"/>
<stop offset="0.847" stop-color="#6F63AF"/>
<stop offset="0.951" stop-color="#4365E3"/>
<stop offset="1" stop-color="#2C66FF"/>
</linearGradient>
</defs>
</svg>
