<svg width="75" height="92" viewBox="0 0 75 92" fill="none" xmlns="http://www.w3.org/2000/svg">
<path d="M37.5 40.5591C41.2841 40.5591 44.3517 37.4915 44.3517 33.7074C44.3517 29.9233 41.2841 26.8557 37.5 26.8557C33.7159 26.8557 30.6483 29.9233 30.6483 33.7074C30.6483 37.4915 33.7159 40.5591 37.5 40.5591Z" fill="url(#paint0_linear_2_58)"/>
<path d="M37.5 58.9039C42.8782 64.1347 48.1827 67.229 52.4558 67.229C53.8556 67.229 55.1817 66.9343 56.2868 66.2712C60.1179 64.061 61.5177 58.5355 60.1916 50.6524C59.9705 49.2526 59.6758 47.8528 59.3075 46.3793C60.7809 45.9373 62.1071 45.4952 63.4332 45.0532C70.8743 42.1799 75 38.2015 75 33.8547C75 29.4343 70.8743 25.4559 63.4332 22.6563C62.1071 22.1406 60.7809 21.6986 59.3075 21.3302C59.6758 19.8567 59.9705 18.4569 60.1916 17.0571C61.444 9.02665 60.0442 3.42744 56.2132 1.21722C55.1081 0.554156 53.7819 0.25946 52.3821 0.25946C48.1827 0.25946 42.8045 3.35376 37.4263 8.58461C32.1218 3.35376 26.8173 0.25946 22.5442 0.25946C21.1444 0.25946 19.8183 0.554156 18.7132 1.21722C14.8821 3.42744 13.4823 8.95298 14.8084 16.8361C15.0295 18.2359 15.3242 19.6357 15.6925 21.1092C14.2191 21.5512 12.8929 21.9932 11.5668 22.4353C4.12574 25.3086 0 29.287 0 33.6337C0 38.0542 4.12574 42.0325 11.5668 44.8321C12.8929 45.3479 14.2191 45.7899 15.6925 46.1583C15.3242 47.6318 15.0295 49.0316 14.8084 50.4314C13.556 58.3145 14.9558 63.9137 18.7132 66.0502C19.8183 66.7133 21.1444 67.008 22.5442 67.008C26.8173 67.1553 32.1218 64.061 37.5 58.9039ZM33.3743 48.9579C34.7004 49.0316 36.1002 49.0316 37.5 49.0316C38.8998 49.0316 40.2996 49.0316 41.6257 48.9579C40.2996 50.7261 38.8998 52.3469 37.5 53.894C36.1002 52.3469 34.7004 50.7261 33.3743 48.9579ZM24.2387 41.3695C24.9754 42.6219 25.6385 43.8007 26.4489 44.9795C24.165 44.6848 22.0285 44.3164 19.9656 43.8744C20.6287 41.8852 21.3654 39.8223 22.2495 37.7595C22.8389 38.9382 23.502 40.1907 24.2387 41.3695ZM19.9656 23.6141C22.0285 23.172 24.165 22.8037 26.4489 22.509C25.7122 23.6877 24.9754 24.8665 24.2387 26.119C23.502 27.3714 22.8389 28.5502 22.2495 29.8027C21.2917 27.6661 20.555 25.6033 19.9656 23.6141ZM24.0177 33.7074C24.9754 31.7182 26.0069 29.729 27.1857 27.7398C28.2908 25.8243 29.5432 23.9088 30.7957 21.9932C33.0059 21.8459 35.2161 21.7722 37.5 21.7722C39.8576 21.7722 42.0678 21.8459 44.2043 21.9932C45.5304 23.9088 46.7092 25.8243 47.8143 27.7398C48.9931 29.729 50.0246 31.7182 50.9823 33.7074C50.0246 35.6966 48.9931 37.6858 47.8143 39.675C46.7092 41.5905 45.4568 43.506 44.2043 45.4215C41.9941 45.5689 39.7839 45.6426 37.5 45.6426C35.1424 45.6426 32.9322 45.5689 30.7957 45.4215C29.4695 43.506 28.2908 41.5905 27.1857 39.675C26.0069 37.6858 24.9754 35.6966 24.0177 33.7074ZM52.8242 29.729L50.835 26.0453C50.0982 24.7929 49.4352 23.6141 48.6248 22.4353C50.9086 22.73 53.0452 23.0984 55.1081 23.5404C54.445 25.6033 53.7083 27.6661 52.8242 29.729ZM52.8242 37.6858C53.7083 39.7487 54.445 41.8115 55.1081 43.8007C53.0452 44.2428 50.9086 44.6111 48.6248 44.9058C49.3615 43.727 50.0982 42.5483 50.835 41.2958C51.498 40.1907 52.1611 38.9382 52.8242 37.6858ZM54.5187 63.2506C53.9293 63.619 53.1925 63.7663 52.3821 63.7663C48.7721 63.7663 44.278 60.8194 39.8576 56.3989C41.9941 54.1151 44.057 51.5365 46.1198 48.6632C49.5825 48.3685 52.8978 47.8528 55.9921 47.116C56.3605 48.4422 56.5815 49.7683 56.8026 51.0944C57.834 57.3567 57.0236 61.8508 54.5187 63.2506ZM58.3497 24.4245C66.6012 26.7821 71.5373 30.3921 71.5373 33.7074C71.5373 36.5807 68.1483 39.454 62.1807 41.7378C61.002 42.1799 59.6758 42.6219 58.3497 42.9903C57.3919 39.9697 56.2132 36.8754 54.7397 33.7074C56.2132 30.5394 57.4656 27.4451 58.3497 24.4245ZM52.4558 3.64846C53.2662 3.64846 53.9293 3.79581 54.5923 4.16418C57.0236 5.56398 57.9077 9.98441 56.8762 16.3204C56.6552 17.5728 56.3605 18.8989 56.0658 20.2987C52.9715 19.6357 49.6562 19.12 46.1935 18.7516C44.2043 15.8783 42.0678 13.2997 39.9312 11.0158C44.3517 6.66909 48.8458 3.64846 52.4558 3.64846ZM41.6257 18.4569C40.2996 18.3832 38.8998 18.3832 37.5 18.3832C36.1002 18.3832 34.7004 18.3832 33.3743 18.4569C34.7004 16.6887 36.1002 15.0679 37.5 13.5208C38.8998 15.0679 40.2996 16.7624 41.6257 18.4569ZM20.4813 4.16418C21.0707 3.79581 21.8075 3.64846 22.6179 3.64846C26.2279 3.64846 30.722 6.59541 35.1424 11.0158C33.0059 13.2997 30.943 15.8783 28.8802 18.7516C25.4175 19.0463 22.1022 19.562 19.0079 20.2987C18.6395 18.9726 18.4185 17.6465 18.1974 16.3204C17.166 10.0581 17.9764 5.63765 20.4813 4.16418ZM16.6503 42.9903C8.39882 40.6327 3.46267 37.0227 3.46267 33.7074C3.46267 30.8341 6.85167 27.9608 12.8193 25.6769C13.998 25.2349 15.3242 24.7929 16.6503 24.4245C17.6081 27.4451 18.7868 30.5394 20.2603 33.7074C18.7868 36.8754 17.5344 40.0433 16.6503 42.9903ZM18.1974 51.0944C18.4185 49.842 18.7132 48.5158 19.0079 47.116C22.1022 47.7791 25.4175 48.2948 28.8802 48.6632C30.8693 51.5365 33.0059 54.1151 35.1424 56.3989C30.722 60.7457 26.2279 63.7663 22.6179 63.7663C21.8075 63.7663 21.1444 63.619 20.4813 63.2506C17.9764 61.8508 17.166 57.3567 18.1974 51.0944ZM15.1031 81.4481C16.724 79.4589 16.7976 77.2486 15.9136 75.0384C15.0295 72.8282 13.1876 71.7968 10.9037 71.7231C8.1778 71.6494 5.37819 71.7231 2.65226 71.7231H2.13654V90.8046H4.34676V83.5846H7.80943C8.25147 83.5846 8.61984 83.7319 8.84086 84.1003L13.2613 90.952C13.335 91.0993 13.556 91.3204 13.7033 91.3204H16.5766C14.8084 88.5944 13.1139 86.0158 11.3458 83.3636C12.8929 83.1426 14.2191 82.6268 15.1031 81.4481ZM4.34676 81.3007V74.007H5.15717C6.85167 74.007 8.61984 73.9333 10.3143 74.0807C12.3035 74.1544 13.7033 75.7015 13.7033 77.6907C13.7033 79.6799 12.0825 81.227 10.0933 81.3007C8.32515 81.3744 6.55697 81.3007 4.34676 81.3007ZM32.8585 82.2585C31.6798 77.1013 26.9646 75.7752 23.3546 77.396C20.555 78.6485 19.3026 81.0797 19.2289 84.1003C19.1552 86.3842 19.8183 88.4471 21.5864 89.9942C23.5756 91.7624 26.0069 91.9834 28.5118 91.5414C29.9116 91.2467 31.164 90.5836 32.1218 89.5522C31.7534 89.0365 31.3851 88.5208 31.0167 88.0787C28.9538 89.8469 26.6699 90.4363 24.165 89.2575C22.5442 88.4471 21.7338 86.4579 21.5864 84.9844H33.0059V84.0266C33.0796 83.3636 33.0059 82.7742 32.8585 82.2585ZM21.7338 83.4372C21.5128 81.227 23.723 78.8695 26.1542 78.8695C28.9538 78.7958 30.722 80.4903 30.7957 83.4372H21.7338ZM44.3517 77.0276C43.2466 76.8066 42.0678 76.7329 40.9627 76.8066C39.1945 76.9539 37.6473 77.7644 36.3949 79.0905C36.7633 79.6062 37.058 80.1219 37.5 80.7113C37.6473 80.564 37.7947 80.4166 37.942 80.3429C39.1208 79.2378 40.5206 78.6484 42.2151 78.7958C43.5413 78.8695 44.7937 79.3115 45.1621 80.6376C45.4568 81.6691 45.3831 82.7742 45.4568 83.8793C45.2358 83.8793 45.1621 83.8056 45.0884 83.7319C43.3202 82.2585 41.331 81.9638 39.1945 82.4795C37.2053 82.9952 35.9528 84.5424 35.8055 86.5316C35.6581 88.8154 36.6896 90.5099 38.6788 91.3204C39.9312 91.8361 41.331 91.8361 42.6572 91.5414C43.6886 91.3204 44.1306 90.731 45.6041 89.9206V90.8783H47.667C47.667 87.9314 47.7407 84.3213 47.667 80.9323C47.667 78.7958 46.4145 77.4697 44.3517 77.0276ZM45.3831 86.3105C45.3094 86.5316 45.3831 86.7526 45.3831 86.9736C45.3831 88.5208 45.0147 89.0365 43.5413 89.6259C42.5098 89.9942 41.4047 90.1416 40.2996 89.7732C39.0472 89.4048 38.1631 88.2997 38.1631 87.0473C38.0894 85.7948 38.8998 84.5424 40.1523 84.174C41.8468 83.5846 43.3939 83.953 44.7937 84.9844C45.2358 85.3528 45.5304 85.7211 45.3831 86.3105ZM56.8762 79.0168C58.7918 78.4274 60.5599 78.7958 61.886 80.4166L62.1071 80.564C62.6228 80.1219 63.0648 79.6799 63.6542 79.1642C63.4332 78.9431 63.3595 78.7958 63.2122 78.5748C61.0756 76.2909 56.8762 75.9962 54.2976 77.838C50.6876 80.4903 50.7613 85.6475 52.5295 88.3734C54.224 90.952 56.6552 91.8361 59.5285 91.4677C61.223 91.2467 62.6228 90.4363 63.7279 89.0365C63.2122 88.5944 62.6965 88.1524 62.1807 87.6367C62.0334 87.784 61.9597 87.8577 61.886 88.005C59.8969 90.2152 56.5815 89.9942 54.8134 87.6367C53.7819 86.2369 53.5609 84.616 53.8556 82.9952C54.0029 81.1534 54.9607 79.6799 56.8762 79.0168ZM72.2004 89.0365C72.053 89.1101 71.9794 89.1838 71.9794 89.1838C71.39 89.6259 70.8006 89.6995 70.1375 89.4785C69.4745 89.1838 69.4008 88.5944 69.3271 88.005V79.6062C69.3271 79.4589 69.3271 79.7536 69.4008 79.0168H72.2004V76.8066H69.2534V73.1229H67.0432V77.1013H65.1277C64.9804 77.1013 64.7593 77.2486 64.7593 77.396C64.6857 77.9117 64.7593 78.2801 64.7593 79.0168H67.1169V88.4471C67.1169 89.6259 67.4116 90.6573 68.443 91.2467C69.5481 91.9097 71.6847 91.7624 72.6424 90.952C72.7898 90.8783 72.8635 90.5836 72.8635 90.5099C72.6424 90.0679 72.4214 89.5522 72.2004 89.0365Z" fill="url(#paint1_linear_2_58)"/>
<defs>
<linearGradient id="paint0_linear_2_58" x1="30.6486" y1="33.7097" x2="42.9327" y2="33.7097" gradientUnits="userSpaceOnUse">
<stop stop-color="#EC008C"/>
<stop offset="1" stop-color="#F26323"/>
</linearGradient>
<linearGradient id="paint1_linear_2_58" x1="0.00137062" y1="46.0154" x2="67.2339" y2="46.0154" gradientUnits="userSpaceOnUse">
<stop stop-color="#EC008C"/>
<stop offset="1" stop-color="#F26323"/>
</linearGradient>
</defs>
</svg>
