<svg width="75" height="76" viewBox="0 0 75 76" fill="none" xmlns="http://www.w3.org/2000/svg">
<path d="M40.7812 47.375H32.6562C32.1875 47.375 31.875 47.0625 31.875 46.5938C31.875 46.125 32.1875 45.8125 32.6562 45.8125H40.7812C41.25 45.8125 41.5625 46.125 41.5625 46.5938C41.5625 47.0625 41.25 47.375 40.7812 47.375ZM37.6562 50.5H32.6562C32.1875 50.5 31.875 50.1875 31.875 49.7188C31.875 49.25 32.1875 48.9375 32.6562 48.9375H37.6562C38.125 48.9375 38.4375 49.25 38.4375 49.7188C38.4375 50.1875 38.125 50.5 37.6562 50.5ZM23.4375 50.5C22.1875 50.5 21.0938 49.4062 21.0938 48.1562V38.7812C21.0938 37.5312 22.1875 36.4375 23.4375 36.4375C24.6875 36.4375 25.7812 37.5312 25.7812 38.7812V48.1562C25.7812 49.4062 24.6875 50.5 23.4375 50.5ZM23.4375 38C22.9688 38 22.6562 38.3125 22.6562 38.7812V48.1562C22.6562 48.625 22.9688 48.9375 23.4375 48.9375C23.9062 48.9375 24.2188 48.625 24.2188 48.1562V38.7812C24.2188 38.3125 23.9062 38 23.4375 38Z" fill="url(#paint0_linear_11_71)"/>
<path d="M21.875 48.9375H18.75C17.5 48.9375 16.4062 47.8438 16.4062 46.5938V40.3438C16.4062 39.0938 17.5 38 18.75 38H21.875C22.3438 38 22.6562 38.3125 22.6562 38.7812V48.1562C22.6562 48.625 22.3438 48.9375 21.875 48.9375ZM18.75 39.5625C18.2812 39.5625 17.9688 39.875 17.9688 40.3438V46.5938C17.9688 47.0625 18.2812 47.375 18.75 47.375H21.0938V39.5625H18.75ZM50 50.5C48.75 50.5 47.6562 49.4062 47.6562 48.1562V38.7812C47.6562 37.5312 48.75 36.4375 50 36.4375C51.25 36.4375 52.3438 37.5312 52.3438 38.7812V48.1562C52.3438 49.4062 51.25 50.5 50 50.5ZM50 38C49.5312 38 49.2188 38.3125 49.2188 38.7812V48.1562C49.2188 48.625 49.5312 48.9375 50 48.9375C50.4688 48.9375 50.7812 48.625 50.7812 48.1562V38.7812C50.7812 38.3125 50.4688 38 50 38Z" fill="url(#paint1_linear_11_71)"/>
<path d="M54.6875 48.9375H51.5625C51.0938 48.9375 50.7812 48.625 50.7812 48.1562V38.7812C50.7812 38.3125 51.0938 38 51.5625 38H54.6875C55.9375 38 57.0312 39.0938 57.0312 40.3438V46.5938C57.0312 47.8438 55.9375 48.9375 54.6875 48.9375ZM52.3438 47.375H54.6875C55.1562 47.375 55.4688 47.0625 55.4688 46.5938V40.3438C55.4688 39.875 55.1562 39.5625 54.6875 39.5625H52.3438V47.375ZM40.625 61.4375H39.0625C37.8125 61.4375 36.7188 60.3438 36.7188 59.0938C36.7188 57.8438 37.8125 56.75 39.0625 56.75H40.625C41.875 56.75 42.9688 57.8438 42.9688 59.0938C42.9688 60.3438 41.875 61.4375 40.625 61.4375ZM39.0625 58.3125C38.5938 58.3125 38.2812 58.625 38.2812 59.0938C38.2812 59.5625 38.5938 59.875 39.0625 59.875H40.625C41.0938 59.875 41.4062 59.5625 41.4062 59.0938C41.4062 58.625 41.0938 58.3125 40.625 58.3125H39.0625Z" fill="url(#paint2_linear_11_71)"/>
<path d="M45.3125 59.875H42.1875C41.7188 59.875 41.4063 59.5625 41.4063 59.0938C41.4063 58.625 41.7188 58.3125 42.1875 58.3125H45.3125C50 58.3125 53.9063 54.4062 53.9063 49.7188V48.1562C53.9063 47.6875 54.2188 47.375 54.6875 47.375C55.1563 47.375 55.4688 47.6875 55.4688 48.1562V49.7188C55.4688 55.3438 50.9375 59.875 45.3125 59.875ZM52.9688 34.0938C51.7188 34.0938 50.7813 33.1563 50.625 32.0625C50 24.7188 43.9063 19.25 36.5625 19.25C29.2188 19.25 23.2813 24.7188 22.5 32.0625C22.3438 33.1563 21.4063 34.0938 20.1563 34.0938C19.5313 34.0938 18.9063 33.7812 18.4375 33.3125C17.9688 32.8438 17.8125 32.2187 17.8125 31.4375C18.9063 21.9062 27.0313 14.5625 36.7188 14.5625C46.4063 14.5625 54.5313 21.9062 55.3125 31.5938C55.3125 32.2188 55.1563 32.8438 54.6875 33.4688C54.375 33.7812 53.75 34.0938 52.9688 34.0938ZM36.7188 17.6875C44.8438 17.6875 51.5625 23.7813 52.3438 31.9062C52.3438 32.2188 52.6563 32.5312 53.125 32.5312C53.2813 32.5312 53.5938 32.375 53.75 32.2187C53.9063 32.0625 53.9063 31.9062 53.9063 31.5938C53.125 22.6875 45.7813 16.125 36.7188 16.125C27.6563 16.125 20.4688 22.8438 19.5313 31.5938C19.5313 31.75 19.5313 32.0625 19.6875 32.2187C20.1563 32.6875 20.9375 32.375 21.0938 31.75C21.875 23.7812 28.5938 17.6875 36.7188 17.6875Z" fill="url(#paint3_linear_11_71)"/>
<path d="M20.3125 39.5625C19.8437 39.5625 19.5312 39.25 19.5312 38.7812V34.0938C19.5312 33.625 19.8437 33.3125 20.3125 33.3125C20.7812 33.3125 21.0938 33.625 21.0938 34.0938V38.7812C21.0938 39.25 20.7812 39.5625 20.3125 39.5625ZM53.125 39.5625C52.6562 39.5625 52.3438 39.25 52.3438 38.7812V34.0938C52.3438 33.625 52.6562 33.3125 53.125 33.3125C53.5938 33.3125 53.9062 33.625 53.9062 34.0938V38.7812C53.9062 39.25 53.5938 39.5625 53.125 39.5625ZM32.8125 56.75C32.6562 56.75 32.5 56.75 32.5 56.5938C32.1875 56.4375 32.0312 56.125 32.0312 55.9688V53.625H31.25C30 53.625 28.9062 52.5312 28.9062 51.2812V45.0312C28.9062 43.7812 30 42.6875 31.25 42.6875H42.1875C43.4375 42.6875 44.5312 43.7812 44.5312 45.0312V51.2812C44.5312 52.5312 43.4375 53.625 42.1875 53.625H37.8125L33.2812 56.5938C33.125 56.75 32.9688 56.75 32.8125 56.75ZM31.25 44.25C30.7812 44.25 30.4688 44.5625 30.4688 45.0312V51.2812C30.4688 51.75 30.7812 52.0625 31.25 52.0625H32.8125C33.2812 52.0625 33.5938 52.375 33.5938 52.8438V54.5625L37.0313 52.2187C37.1875 52.0625 37.3438 52.0625 37.5 52.0625H42.1875C42.6562 52.0625 42.9688 51.75 42.9688 51.2812V45.0312C42.9688 44.5625 42.6562 44.25 42.1875 44.25H31.25Z" fill="url(#paint4_linear_11_71)"/>
<path d="M37.5 75.5C16.875 75.5 0 58.625 0 38C0 17.375 16.875 0.5 37.5 0.5C58.125 0.5 75 17.375 75 38C75 58.625 58.125 75.5 37.5 75.5ZM37.5 2.0625C17.6562 2.0625 1.5625 18.1562 1.5625 38C1.5625 57.8438 17.6562 73.9375 37.5 73.9375C57.3438 73.9375 73.4375 57.8438 73.4375 38C73.4375 18.1562 57.3438 2.0625 37.5 2.0625Z" fill="url(#paint5_linear_11_71)"/>
<defs>
<linearGradient id="paint0_linear_11_71" x1="21.0941" y1="43.4711" x2="39.443" y2="43.4711" gradientUnits="userSpaceOnUse">
<stop stop-color="#EC008C"/>
<stop offset="1" stop-color="#F26323"/>
</linearGradient>
<linearGradient id="paint1_linear_11_71" x1="16.4069" y1="43.4711" x2="48.6225" y2="43.4711" gradientUnits="userSpaceOnUse">
<stop stop-color="#EC008C"/>
<stop offset="1" stop-color="#F26323"/>
</linearGradient>
<linearGradient id="paint2_linear_11_71" x1="36.7191" y1="49.7227" x2="54.9279" y2="49.7227" gradientUnits="userSpaceOnUse">
<stop stop-color="#EC008C"/>
<stop offset="1" stop-color="#F26323"/>
</linearGradient>
<linearGradient id="paint3_linear_11_71" x1="17.8132" y1="37.2264" x2="51.5695" y2="37.2264" gradientUnits="userSpaceOnUse">
<stop stop-color="#EC008C"/>
<stop offset="1" stop-color="#F26323"/>
</linearGradient>
<linearGradient id="paint4_linear_11_71" x1="19.5319" y1="45.0352" x2="50.3468" y2="45.0352" gradientUnits="userSpaceOnUse">
<stop stop-color="#EC008C"/>
<stop offset="1" stop-color="#F26323"/>
</linearGradient>
<linearGradient id="paint5_linear_11_71" x1="0.00137062" y1="38.0126" x2="67.2339" y2="38.0126" gradientUnits="userSpaceOnUse">
<stop stop-color="#EC008C"/>
<stop offset="1" stop-color="#F26323"/>
</linearGradient>
</defs>
</svg>
