<svg xmlns="http://www.w3.org/2000/svg" width="512" height="512" id="planet"><path fill="#B8D2FF" d="M143.534 129.871c-6.652 1.796-7.342 9.435-7.355 12.37a49.393 49.393 0 0 0 2.526 3.551c.787-2.071 1.956-4.152 3.717-5.999 4.172-4.374 10.302-6.176 18.227-5.349 15.674 1.632 33.402-3.704 35.298-19.268l9.927 1.209c-2.324 19.081-21.342 30.601-46.26 28.005-4.661-.485-8.001.28-9.927 2.275-1.974 2.045-2.447 5.36-2.461 7.604a48.302 48.302 0 0 0 10.921 6.375c.179-6.849 5.793-12.368 12.685-12.368 7.004 0 12.701 5.698 12.701 12.702a12.61 12.61 0 0 1-.401 3.11c7.847-.986 15.377-3.896 22.011-8.599a47.981 47.981 0 0 0 2.001-1.497c-.438-1.498-4.645-16.814 2.862-27.249 3.485-4.843 8.728-7.766 15.605-8.733.518-10.807-2.55-21.411-8.904-30.377a49.439 49.439 0 0 0-2.895-3.695c-.069 2.772-.396 5.501-.981 7.891-2.543 10.38-9.466 16.821-19.494 18.135-16.049 2.104-14.992 11.87-14.939 12.285l-9.92 1.264c-.883-6.932 2.905-20.755 23.56-23.463 4.646-.609 7.847-2.871 9.788-6.917 3.238-6.75 1.89-16.191.751-18.786a48.153 48.153 0 0 0-8.871-4.285c.494 2.917.53 6.137-.539 9.121-1.287 3.593-3.952 6.299-7.707 7.824-7.3 2.965-7.075 9.435-7.072 9.5l-9.988.479c-.027-.555-.493-13.642 13.297-19.245 1.403-.57 1.825-1.292 2.054-1.922.801-2.215-.135-5.802-1.145-8.384a48.743 48.743 0 0 0-5.633-.336 48.344 48.344 0 0 0-18.281 3.6c.815.53 1.593 1.131 2.3 1.837 6.541 6.541 5.484 18.24-2.354 26.079-4.383 4.383-9.973 6.646-15.192 6.646-4.116 0-8.003-1.408-10.887-4.292a14.045 14.045 0 0 1-1.374-1.626 48.824 48.824 0 0 0-2.167 8.256 48.353 48.353 0 0 0 .954 20.667c2.271-3.592 5.756-6.648 10.959-8.053 12.787-3.452 12.019-9.344 11.69-11.86l9.916-1.293c.829 6.38-.533 17.823-19.003 22.811zM114.39 165.559c2.526 0 4.581-2.055 4.581-4.581s-2.055-4.581-4.581-4.581c-2.525 0-4.58 2.055-4.58 4.581s2.054 4.581 4.58 4.581zM277.188 217.565c4.464 0 8.096-3.631 8.096-8.096 0-4.464-3.632-8.095-8.096-8.095s-8.096 3.631-8.096 8.095c0 4.465 3.632 8.096 8.096 8.096zM326.387 378.219c6.145 2.438 13.127-.574 15.566-6.717a11.907 11.907 0 0 0-.135-9.174 11.912 11.912 0 0 0-6.582-6.393 11.943 11.943 0 0 0-4.41-.848c-4.771 0-9.29 2.867-11.155 7.564-2.44 6.144.573 13.126 6.716 15.568zM89.49 469.6h78.026a27.706 27.706 0 0 1-8.195-8.104c-8.446-12.809-4.897-30.104 7.912-38.549l5.505 8.348c-8.206 5.41-10.479 16.49-5.068 24.697 5.411 8.205 16.489 10.479 24.696 5.068l5.505 8.348c-.103.068-.211.125-.314.191h37.576a98.832 98.832 0 0 0 2.711-2.555c11.487-11.152 20.477-24.701 26.362-39.594a23.75 23.75 0 0 1-1.939.088 24.166 24.166 0 0 1-20.213-10.914 24.062 24.062 0 0 1-3.508-18.203 24.061 24.061 0 0 1 10.396-15.357 24.187 24.187 0 0 1 23.15-1.941c-.79-20.627-7.158-40.494-18.676-57.961-16.695-25.32-42.253-42.623-71.964-48.723-29.712-6.098-60.019-.262-85.34 16.436a115.515 115.515 0 0 0-6.622 4.711v2.27a34.85 34.85 0 0 1 21.861 12.982l-7.884 6.15a24.889 24.889 0 0 0-13.978-8.945v4.131a20.943 20.943 0 0 1 10.82 7.277 20.889 20.889 0 0 1 4.285 15.51 20.864 20.864 0 0 1-7.931 13.988 20.995 20.995 0 0 1-7.175 3.654v4.127a24.826 24.826 0 0 0 9.636-4.623l6.155 7.881a34.684 34.684 0 0 1-15.791 6.934V469.6zm102.021-12.352a13.834 13.834 0 0 1-7.634 2.301c-.939 0-1.885-.094-2.826-.287a13.827 13.827 0 0 1-8.821-5.973c-4.225-6.406-2.449-15.057 3.957-19.279a13.813 13.813 0 0 1 10.46-2.016 13.827 13.827 0 0 1 8.821 5.971c4.224 6.408 2.449 15.056-3.957 19.283zm-.512-65.691a2.37 2.37 0 0 0 1.493 1.047c.36.082 1.072.146 1.796-.314l5.365 8.439a12.307 12.307 0 0 1-6.623 1.93c-4.099 0-8.113-2.027-10.471-5.736-3.663-5.762-1.955-13.43 3.807-17.094 5.764-3.662 13.431-1.955 17.094 3.807L195.021 389a2.384 2.384 0 0 0-4.022 2.557zm48.535-18.203 5.505 8.35c-11.905 7.85-15.204 23.922-7.354 35.828l-8.349 5.504c-10.885-16.509-6.311-38.796 10.198-49.682zm-64.574-67.116c7.816-5.152 18.367-2.988 23.521 4.826 5.153 7.816 2.988 18.367-4.827 23.521a16.885 16.885 0 0 1-9.32 2.799c-5.521 0-10.94-2.684-14.2-7.627-5.155-7.814-2.989-18.366 4.826-23.519zm-7.443 25.293c5.669 9.719 18.188 13.018 27.909 7.348a20.27 20.27 0 0 0 9.454-12.432 20.265 20.265 0 0 0-2.106-15.477l8.639-5.039c4.092 7.016 5.206 15.207 3.139 23.061-2.068 7.855-7.07 14.434-14.087 18.525a30.255 30.255 0 0 1-15.268 4.135c-10.471 0-20.673-5.404-26.318-15.084l8.638-5.037zm-37.933-39.228a12.311 12.311 0 0 1 7.042-6.342 12.303 12.303 0 0 1 9.465.496c6.162 2.939 8.785 10.344 5.847 16.508l-9.026-4.305a2.388 2.388 0 0 0-1.125-3.178 2.365 2.365 0 0 0-1.821-.094 2.358 2.358 0 0 0-1.355 1.219c-.37.777-.219 1.475-.096 1.822s.445.984 1.221 1.355l-4.305 9.025a12.306 12.306 0 0 1-6.342-7.043 12.285 12.285 0 0 1 .495-9.463zm-27.917 85.832c6.822-4.615 16.126-2.818 20.739 4.002a14.836 14.836 0 0 1 2.295 11.199 14.841 14.841 0 0 1-6.297 9.541l-5.603-8.283a4.903 4.903 0 0 0 2.08-3.154 4.903 4.903 0 0 0-.758-3.699c-1.525-2.256-4.6-2.848-6.854-1.322s-2.848 4.598-1.322 6.852l-8.282 5.604c-4.614-6.822-2.819-16.127 4.002-20.74zM265.634 321.439a7.333 7.333 0 0 0 .792-5.596 7.323 7.323 0 0 0-3.396-4.518 7.358 7.358 0 0 0-6.195-.611 126.636 126.636 0 0 1 4.93 6.943 124.92 124.92 0 0 1 3.054 4.895c.3-.343.577-.71.815-1.113zM133.945 259.73a11.523 11.523 0 0 0-4.542 5.828 122.023 122.023 0 0 1 20.083-3.148c-3.632-4.806-10.438-6.043-15.541-2.68zM339.853 187.838a73.291 73.291 0 0 0-.858 3.003c1.039 3.09 6.47 14.821 15.639 14.136 4.138-.312 7.711 1.077 10.342 4.017 4.926 5.503 5.292 15.565 4.76 22.917a416.26 416.26 0 0 0 15.625-6.046c.028-10.819-1.783-17.871-5.408-20.961-2.67-2.275-6.899-2.754-13.31-1.505-8.486 1.648-17.069-2.791-24.817-12.846a59.467 59.467 0 0 1-1.973-2.715zM405.929 137.72a71.303 71.303 0 0 0-16.239 2.341c3.583 2.208 7.405 5.716 10.867 11.487 2.375 3.968 10.873 9.257 21.953 12.472v-9.572c-8.069-3.038-13.717-8.737-16.581-16.728zM343.535 178.334l.013.006c.026-.054.04-.106.063-.16-.024.052-.05.103-.076.154zM354.91 161.274a70.455 70.455 0 0 0-2.836 3.328c.984 4.016 4.086 12.93 12.293 13.477 1.98.133 4.057.229 6.184.327 14.305.664 32.108 1.49 38.962 14.643.618 1.185 1.319 2.654 2.13 4.356 1.749 3.667 4.025 8.422 6.943 13.419a466.983 466.983 0 0 0 3.321-1.662 69.445 69.445 0 0 1-4.624-9.981l-4.42-11.887 9.646 4.824v-4.122c-3.676-1.106-7.33-2.345-10.893-3.554-10.338-3.507-20.104-6.822-27.891-6.105-9.693.89-17.33-1.337-22.694-6.624-3.206-3.158-5.056-6.941-6.121-10.439z"></path><path fill="#B8D2FF" d="M290.784 257.301c1.396 2.934 14.304 7.777 56.731-4.824 13.068-3.875 27.135-8.917 41.813-14.988a548.49 548.49 0 0 0 26.514-11.774 573.234 573.234 0 0 0 6.067-2.925c.2-.099.399-.198.601-.296v-2.45a554.422 554.422 0 0 1-7.6 3.69 513.526 513.526 0 0 1-22.687 10.131c-9.394 3.918-18.435 7.344-26.868 10.184-8.438 2.842-16.191 5.081-23.048 6.654-7.804 1.795-14.202 2.698-19.291 2.699-7.764 0-12.479-2.102-14.501-6.342-3.24-6.841 2.293-15.661 17.369-27.602-28.761 20.356-36.997 33.857-35.1 37.843zM408.422 277.689c-9.367-6.426-16.885-16.686-20.614-28.785a497.752 497.752 0 0 1-10.388 4.027c6.575 9.239 17.06 20.538 31.002 24.758z"></path><path fill="#1F4499" d="M79.49 32.4v447.2h353.02V32.4H79.49zm19.636 319.707a24.826 24.826 0 0 1-9.636 4.623v-4.127a21.012 21.012 0 0 0 7.175-3.654 20.868 20.868 0 0 0 7.931-13.988 20.893 20.893 0 0 0-4.285-15.51 20.94 20.94 0 0 0-10.82-7.277v-4.131a24.889 24.889 0 0 1 13.978 8.945l7.884-6.15a34.845 34.845 0 0 0-21.861-12.982v-2.27a115.515 115.515 0 0 1 6.622-4.711c25.321-16.697 55.628-22.533 85.34-16.436 29.711 6.1 55.269 23.402 71.964 48.723 11.518 17.467 17.886 37.334 18.676 57.961a24.193 24.193 0 0 0-23.15 1.941 24.07 24.07 0 0 0-10.396 15.357 24.062 24.062 0 0 0 3.508 18.203 24.164 24.164 0 0 0 20.213 10.914c.646 0 1.293-.035 1.939-.088-5.886 14.893-14.875 28.441-26.362 39.594a98.832 98.832 0 0 1-2.711 2.555h-37.576c.104-.066.212-.123.314-.191l-5.505-8.348c-8.207 5.41-19.285 3.137-24.696-5.068-5.411-8.207-3.138-19.287 5.068-24.697l-5.505-8.348c-12.81 8.445-16.358 25.74-7.912 38.549a27.742 27.742 0 0 0 8.195 8.104H89.49V366.922a34.658 34.658 0 0 0 15.791-6.934l-6.155-7.881zm-9.636-10.332V322.98a11 11 0 0 1 2.934 2.621 10.946 10.946 0 0 1 2.248 8.131 10.936 10.936 0 0 1-4.154 7.33l-.004.002c-.33.258-.672.497-1.024.711zm39.913-76.216a11.523 11.523 0 0 1 4.542-5.828c5.103-3.364 11.908-2.127 15.541 2.68a121.81 121.81 0 0 0-20.083 3.148zm127.432 45.156a7.357 7.357 0 0 1 6.195.611 7.327 7.327 0 0 1 3.396 4.518 7.333 7.333 0 0 1-.792 5.596c-.237.402-.515.77-.815 1.113a125.216 125.216 0 0 0-3.054-4.895 126.253 126.253 0 0 0-4.93-6.943zm15.103 82.15a113.967 113.967 0 0 1-3.989 23.459 14.177 14.177 0 0 1-17.547-5.203 14.14 14.14 0 0 1-2.061-10.691 14.132 14.132 0 0 1 6.104-9.016 14.179 14.179 0 0 1 17.493 1.451zm36.578-145.804c2.021 4.24 6.737 6.342 14.501 6.342 5.089-.001 11.487-.904 19.291-2.699 6.856-1.573 14.61-3.813 23.048-6.654 8.434-2.84 17.475-6.266 26.868-10.184a513.526 513.526 0 0 0 22.687-10.131 554.422 554.422 0 0 0 7.6-3.69v2.45l-.601.296a573.234 573.234 0 0 1-6.067 2.925 548.49 548.49 0 0 1-26.514 11.774c-14.678 6.071-28.744 11.113-41.813 14.988-42.428 12.601-55.336 7.757-56.731 4.824-1.897-3.986 6.339-17.486 35.101-37.841-15.077 11.939-20.611 20.759-17.37 27.6zm20.795-17.487a80.915 80.915 0 0 0 4.504 12.663c-10.105 1.797-14.736 1.119-16.123.46.384-1.584 3.011-5.889 11.619-13.123zm37.331-26.175c6.41-1.249 10.64-.771 13.31 1.505 3.625 3.09 5.437 10.143 5.408 20.961a417.995 417.995 0 0 1-15.625 6.046c.532-7.353.166-17.415-4.76-22.917-2.631-2.939-6.204-4.328-10.342-4.017-9.169.686-14.6-11.045-15.639-14.136.266-1.01.553-2.011.858-3.003.605.88 1.259 1.79 1.972 2.714 7.748 10.056 16.331 14.495 24.818 12.847zm-23.107-25.065c.025-.052.052-.103.076-.154-.023.054-.037.106-.063.16l-.013-.006zm78.975-23.886v9.572c-11.08-3.215-19.578-8.504-21.953-12.472-3.462-5.771-7.284-9.278-10.867-11.487a71.32 71.32 0 0 1 16.239-2.341c2.864 7.991 8.512 13.69 16.581 16.728zm-5.19-16.095c1.739.236 3.473.521 5.189.882v4.146a16.498 16.498 0 0 1-5.189-5.028zm-25.341 18.335c4.938 8.251 18.257 14.575 30.53 17.697v3.137a439.96 439.96 0 0 1-7.68-2.548c-11.373-3.858-22.12-7.505-32.018-6.593-6.6.605-11.549-.654-14.719-3.747-3.566-3.479-4.376-8.672-4.542-11.489a71.419 71.419 0 0 1 11.896-7.638c.539.142 1.092.273 1.681.404 4.085.908 9.678 2.152 14.852 10.777zm-8.252 21.651c7.787-.717 17.553 2.598 27.891 6.105 3.563 1.209 7.217 2.448 10.893 3.554v4.122l-9.646-4.824 4.42 11.887a69.445 69.445 0 0 0 4.624 9.981 540.68 540.68 0 0 1-3.321 1.662c-2.918-4.997-5.194-9.752-6.943-13.419-.811-1.702-1.512-3.172-2.13-4.356-6.854-13.153-24.657-13.979-38.962-14.643-2.127-.099-4.203-.194-6.184-.327-8.207-.546-11.309-9.46-12.293-13.477a70.455 70.455 0 0 1 2.836-3.328c1.064 3.498 2.915 7.281 6.122 10.441 5.362 5.285 12.999 7.512 22.693 6.622zm-20.026 9.718a315.7 315.7 0 0 0 6.386.339c12.356.574 26.362 1.224 30.56 9.278.536 1.028 1.201 2.421 1.971 4.036 1.756 3.683 4.011 8.407 6.939 13.489a514.729 514.729 0 0 1-14.279 6.486c-.502-11.872-3.363-19.724-8.84-24.392-6.797-5.792-15.643-4.891-21.707-3.71-8.506 1.657-17.4-11.741-20.197-17.282.244-.475.502-.94.756-1.409 3.048 6.051 8.583 12.51 18.411 13.165zm-8.317 26.892c1.292-.099 1.767.299 2.138.712 2.752 3.07 2.717 12.742 1.777 19.86-5.531 1.806-10.709 3.316-15.48 4.525a70.66 70.66 0 0 1-6.339-20.189 70.379 70.379 0 0 1-.849-10.418c-.007-.993.017-1.984.052-2.975 5.291 6.071 11.743 9.005 18.701 8.485zm12.309 41.501c4.255 6.31 10.314 13.857 18.135 20.142-10.387-3.387-19.979-9.131-27.88-16.881 3.2-1.025 6.449-2.113 9.745-3.261zm9.727-3.518a497.752 497.752 0 0 0 10.388-4.027c3.729 12.099 11.247 22.359 20.614 28.785-13.942-4.221-24.427-15.52-31.002-24.758zm19.678-7.861a560.72 560.72 0 0 0 23.04-10.326c.798-.379 1.58-.763 2.372-1.144v15.161c-2.017.047-3.771.66-5.112 1.855-4.792 4.254-.489 9.589 1.349 11.869 1.129 1.4 2.676 3.318 2.836 4.494.109.807.38 1.764.928 2.742v3.914c-11.538-3.587-21.435-14.618-25.413-28.565zM422.51 71.052c-48.529-1.264-107.781 10.409-167.603 33.093l3.546 9.351c57.871-21.945 117.304-33.667 164.057-32.44v22.466c-54.318 5.617-124.594 36.952-189.195 84.533-23.207 17.096-44.728 35.534-63.965 54.804l7.077 7.064c18.882-18.913 40.017-37.02 62.818-53.816 62.828-46.276 130.813-76.821 183.265-82.533v15.487a82.463 82.463 0 0 0-9.541-1.21c-13.693-.876-27.515 1.793-39.977 7.714a81.413 81.413 0 0 0-17.686 11.412c-13.061 11.069-22.152 25.755-26.289 42.469a81.065 81.065 0 0 0-2.355 17.329c-25.064 16.834-52.209 39.483-44.908 54.824 3.146 6.615 11.458 9.082 22.107 9.08 12.738 0 28.816-3.529 43.387-7.705 15.418 17.289 37.738 27.156 60.73 27.156 3.635 0 7.287-.246 10.93-.748l.354-.049a79.235 79.235 0 0 0 3.247-.535V469.6H249.304a123.455 123.455 0 0 0 27.655-48.395 123.882 123.882 0 0 0 5.096-29.971c.956-20.818-3.303-41.162-12.357-59.662 1.816-1.369 3.387-3.084 4.547-5.047 2.36-3.998 3.023-8.674 1.867-13.172s-3.996-8.277-7.996-10.639a17.355 17.355 0 0 0-17.822.094 122.497 122.497 0 0 0-6.587-6.773c10.382-10.936 16.557-17.172 27.009-26.641l-6.713-7.41c-10.712 9.703-17.288 16.355-27.818 27.449-15.146-12.234-33.099-20.762-52.721-24.789a124.854 124.854 0 0 0-22.895-2.533 21.709 21.709 0 0 0-2.294-4.605c-6.537-9.914-19.921-12.661-29.834-6.125a21.5 21.5 0 0 0-9.66 17.294 124.25 124.25 0 0 0-28.172 13.85c-.374.246-.745.504-1.118.756v-57.745c13.399-18.764 34.69-38.411 61.792-57.029a58.465 58.465 0 0 0 15.856 5.112c3.333.568 6.668.85 9.982.85 12.045 0 23.775-3.712 33.803-10.819 12.786-9.063 21.278-22.562 23.911-38.012 4.04-23.703-6.82-46.556-25.754-58.965-.064-.05-.128-.106-.195-.153l-.01.014a58.337 58.337 0 0 0-22.022-8.593c-19.448-3.314-38.32 3.41-51.328 16.387-.204.191-.416.367-.616.566a24.526 24.526 0 0 0-1.511 1.669c-7.199 7.977-12.306 18.005-14.241 29.359-3.824 22.437 5.707 44.107 22.793 56.885-21.479 15.118-39.315 30.923-52.46 46.466V42.4h333.02v28.652zm-259.976 36.011-9.916 1.293c.328 2.516 1.097 8.408-11.69 11.86-5.203 1.405-8.688 4.461-10.959 8.053a48.353 48.353 0 0 1-.954-20.667 48.824 48.824 0 0 1 2.167-8.256c.418.567.864 1.117 1.374 1.626 2.884 2.884 6.771 4.292 10.887 4.292 5.22 0 10.81-2.263 15.192-6.646 7.839-7.839 8.896-19.538 2.354-26.079a14.036 14.036 0 0 0-2.3-1.837 48.348 48.348 0 0 1 18.281-3.6c1.862 0 3.743.116 5.633.336 1.01 2.582 1.945 6.168 1.145 8.384-.229.631-.65 1.353-2.054 1.922-13.79 5.603-13.324 18.69-13.297 19.245l9.988-.479c-.003-.065-.228-6.535 7.072-9.5 3.755-1.525 6.42-4.231 7.707-7.824 1.069-2.984 1.033-6.204.539-9.121a48.153 48.153 0 0 1 8.871 4.285c1.139 2.595 2.487 12.035-.751 18.786-1.941 4.045-5.143 6.307-9.788 6.917-20.654 2.708-24.442 16.531-23.56 23.463l9.92-1.264c-.053-.415-1.109-10.18 14.939-12.285 10.028-1.314 16.951-7.755 19.494-18.135.585-2.39.912-5.119.981-7.891a49.702 49.702 0 0 1 2.895 3.695c6.354 8.966 9.422 19.57 8.904 30.377-6.878.967-12.12 3.89-15.605 8.733-7.507 10.434-3.3 25.75-2.862 27.249a47.981 47.981 0 0 1-2.001 1.497c-6.634 4.703-14.164 7.613-22.011 8.599a12.61 12.61 0 0 0 .401-3.11c0-7.004-5.697-12.702-12.701-12.702-6.892 0-12.506 5.52-12.685 12.368a48.377 48.377 0 0 1-10.921-6.375c.014-2.245.487-5.559 2.461-7.604 1.926-1.995 5.266-2.76 9.927-2.275 24.918 2.596 43.936-8.924 46.26-28.005l-9.927-1.209c-1.896 15.564-19.624 20.9-35.298 19.268-7.925-.827-14.055.975-18.227 5.349-1.761 1.847-2.93 3.928-3.717 5.999a49.082 49.082 0 0 1-2.526-3.551c.014-2.935.703-10.574 7.355-12.37 18.473-4.991 19.835-16.434 19.003-22.811zm-21.367-24.205c.387-.42.785-.828 1.186-1.234 2.378-2.216 5.271-3.431 7.733-3.431 1.52 0 2.872.458 3.832 1.418 2.597 2.597 1.52 8.063-2.354 11.937-3.875 3.873-9.342 4.952-11.938 2.354-2.403-2.404-1.653-7.263 1.541-11.044zm61.949-8.174.036.024-.002.003c-.012-.009-.021-.018-.034-.027zm20.84 53.906a48.238 48.238 0 0 1-8.262 16.74c-.372-4.159-.075-9.284 2.443-12.766 1.349-1.863 3.283-3.173 5.819-3.974zm-50.424 32.389a2.705 2.705 0 0 1-2.701 2.702c-1.49 0-2.702-1.212-2.702-2.702s1.212-2.702 2.702-2.702a2.705 2.705 0 0 1 2.701 2.702z"></path><path fill="#1F4499" d="M191.731 388.268a2.385 2.385 0 0 1 3.289.732l8.439-5.365c-3.663-5.762-11.33-7.469-17.094-3.807-5.762 3.664-7.47 11.332-3.807 17.094 2.357 3.709 6.372 5.736 10.471 5.736 2.271 0 4.568-.623 6.623-1.93l-5.365-8.439a2.36 2.36 0 0 1-1.796.314 2.37 2.37 0 0 1-1.493-1.047 2.386 2.386 0 0 1 .733-3.288zM105.948 393.27c-1.525-2.254-.932-5.326 1.322-6.852s5.328-.934 6.854 1.322a4.903 4.903 0 0 1 .758 3.699 4.903 4.903 0 0 1-2.08 3.154l5.603 8.283a14.841 14.841 0 0 0 6.297-9.541 14.835 14.835 0 0 0-2.295-11.199c-4.613-6.82-13.917-8.617-20.739-4.002-6.821 4.613-8.616 13.918-4.001 20.738l8.281-5.602zM135.43 308.811l4.305-9.025a2.38 2.38 0 0 1-1.125-3.177 2.364 2.364 0 0 1 1.355-1.219 2.365 2.365 0 0 1 1.821.094 2.388 2.388 0 0 1 1.125 3.178l9.026 4.305c2.938-6.164.315-13.568-5.847-16.508a12.303 12.303 0 0 0-9.465-.496 12.304 12.304 0 0 0-7.042 6.342 12.295 12.295 0 0 0-.496 9.465 12.307 12.307 0 0 0 6.343 7.041zM344.846 322.539h9.047v9.047h-9.047zM394.889 347.002h9.047v9.047h-9.047zM360.355 398.768h9.047v9.047h-9.047zM390.365 435.684h9.047v9.047h-9.047zM318.713 425.488h9.047v9.047h-9.047zM184.333 337.385c3.207 0 6.448-.906 9.32-2.799 7.815-5.154 9.98-15.705 4.827-23.521-5.153-7.814-15.704-9.979-23.521-4.826-7.815 5.152-9.98 15.705-4.827 23.52 3.261 4.942 8.681 7.626 14.201 7.626zm-3.868-22.799a6.98 6.98 0 0 1 9.667 1.985c2.118 3.213 1.229 7.549-1.983 9.666-3.213 2.119-7.549 1.229-9.667-1.982a6.987 6.987 0 0 1 1.983-9.669z"></path><path fill="#1F4499" d="M185.196 351.652a30.258 30.258 0 0 0 15.268-4.135c7.017-4.092 12.019-10.67 14.087-18.525 2.067-7.854.953-16.045-3.139-23.061l-8.639 5.039a20.264 20.264 0 0 1 2.106 15.477 20.272 20.272 0 0 1-9.454 12.432c-9.721 5.67-22.24 2.371-27.909-7.348l-8.639 5.037c5.646 9.68 15.849 15.084 26.319 15.084zM237.686 417.531c-7.851-11.906-4.552-27.979 7.354-35.828l-5.505-8.35c-16.509 10.887-21.083 33.174-10.197 49.682l8.348-5.504zM186.646 431.994a13.813 13.813 0 0 0-10.46 2.016c-6.406 4.223-8.182 12.873-3.957 19.279a13.83 13.83 0 0 0 8.821 5.973c.941.193 1.887.287 2.826.287 2.694 0 5.332-.785 7.633-2.301h.001c6.406-4.227 8.182-12.875 3.957-19.283a13.824 13.824 0 0 0-8.821-5.971zm1.041 14.422a3.896 3.896 0 0 1-1.681 2.482 3.924 3.924 0 0 1-5.428-1.113c-.576-.875-.777-1.92-.567-2.945s.808-1.906 1.681-2.482a3.886 3.886 0 0 1 2.945-.568c1.024.211 1.906.809 2.482 1.682s.777 1.919.568 2.944zM277.188 227.565c9.978 0 18.096-8.118 18.096-18.096 0-9.977-8.118-18.095-18.096-18.095-9.979 0-18.096 8.118-18.096 18.095 0 9.979 8.117 18.096 18.096 18.096zm0-26.19c4.464 0 8.096 3.631 8.096 8.095s-3.632 8.096-8.096 8.096-8.096-3.631-8.096-8.096c0-4.464 3.632-8.095 8.096-8.095zM114.39 175.559c8.04 0 14.581-6.541 14.581-14.581s-6.541-14.581-14.581-14.581c-8.039 0-14.58 6.541-14.58 14.581s6.541 14.581 14.58 14.581zm0-19.161c2.526 0 4.581 2.055 4.581 4.581s-2.055 4.581-4.581 4.581c-2.525 0-4.58-2.055-4.58-4.581s2.054-4.581 4.58-4.581zM322.696 387.512a21.89 21.89 0 0 0 8.089 1.553c8.749 0 17.041-5.26 20.461-13.871a21.85 21.85 0 0 0-.246-16.828 21.853 21.853 0 0 0-12.073-11.725c-5.458-2.166-11.434-2.078-16.826.248s-9.556 6.613-11.724 12.072c-4.475 11.268 1.051 24.076 12.319 28.551zm-3.025-24.86c1.865-4.697 6.385-7.564 11.155-7.564 1.469 0 2.963.273 4.41.848a11.906 11.906 0 0 1 6.582 6.393 11.911 11.911 0 0 1 .135 9.174c-2.439 6.143-9.422 9.154-15.566 6.717-6.143-2.443-9.156-9.425-6.716-15.568z"></path></svg>