<svg xmlns="http://www.w3.org/2000/svg" xmlns:xlink="http://www.w3.org/1999/xlink" viewBox="0 0 64 64" id="planets"><defs><linearGradient id="d" x1="35.07" x2="49.92" y1="12.08" y2="26.93" gradientUnits="userSpaceOnUse"><stop offset="0" stop-color="#e667f9"></stop><stop offset="1" stop-color="#d82fea"></stop></linearGradient><linearGradient id="c" x1="46.83" x2="56.64" y1="40.59" y2="40.59" gradientUnits="userSpaceOnUse"><stop offset="0" stop-color="#898ec9"></stop><stop offset="1" stop-color="#6163aa"></stop></linearGradient><linearGradient id="a" x1="24" x2="36.75" y1="19.3" y2="23.22" gradientUnits="userSpaceOnUse"><stop offset="0" stop-color="#fd8f07"></stop><stop offset="1" stop-color="#fd7504"></stop></linearGradient><linearGradient id="e" x1="29.79" x2="40.7" y1="29.79" y2="40.7" xlink:href="#a"></linearGradient><linearGradient id="b" x1="23" x2="31.02" y1="25" y2="33.02" gradientUnits="userSpaceOnUse"><stop offset="0" stop-color="#fed370"></stop><stop offset="1" stop-color="#fda736"></stop></linearGradient><linearGradient id="f" x1="16.04" x2="28" y1="30" y2="30" xlink:href="#a"></linearGradient><linearGradient id="g" x1="35" x2="45.09" y1="22" y2="22" xlink:href="#b"></linearGradient><linearGradient id="h" x1="28" x2="32" y1="34" y2="34" xlink:href="#a"></linearGradient><linearGradient id="i" x1="5" x2="13" y1="35" y2="35" gradientUnits="userSpaceOnUse"><stop offset="0" stop-color="#c5ee09"></stop><stop offset="1" stop-color="#69cc00"></stop></linearGradient><linearGradient id="j" x1="15" x2="17" y1="12" y2="12" xlink:href="#a"></linearGradient><linearGradient id="k" x1="56" x2="58" y1="25" y2="25" xlink:href="#b"></linearGradient><linearGradient id="l" x1="52" x2="54" y1="34" y2="34" xlink:href="#a"></linearGradient><linearGradient id="m" x1="34" x2="36" y1="58" y2="58" xlink:href="#a"></linearGradient><linearGradient id="n" x1="38" x2="40" y1="51" y2="51" xlink:href="#b"></linearGradient><linearGradient id="o" x1="11" x2="13" y1="45" y2="45" xlink:href="#b"></linearGradient><linearGradient id="p" x1="34" x2="36" y1="6" y2="6" xlink:href="#a"></linearGradient><linearGradient id="q" x1="26" x2="28" y1="13" y2="13" xlink:href="#b"></linearGradient><linearGradient id="r" x1="46" x2="52" y1="46" y2="46" gradientUnits="userSpaceOnUse"><stop offset="0" stop-color="#68539b"></stop><stop offset="1" stop-color="#35214c"></stop></linearGradient><linearGradient id="s" x1="7.36" x2="44.81" y1="31.17" y2="31.17" xlink:href="#c"></linearGradient><linearGradient id="t" x1="17" x2="31" y1="51" y2="51" gradientUnits="userSpaceOnUse"><stop offset="0" stop-color="#ff5c3c"></stop><stop offset="1" stop-color="#ff2e04"></stop></linearGradient></defs><path fill="url(#d)" d="M53,19.5A10.5,10.5,0,1,1,42.5,9c.35,0,.69,0,1,.05a11.33,11.33,0,0,1,2,.38,10.52,10.52,0,0,1,6.73,6.11,10.79,10.79,0,0,1,.61,2.05A10.94,10.94,0,0,1,53,19.5Z"></path><path fill="#d82fea" d="M45.49 9.43a1 1 0 0 1-.28.78l-2.5 2.5a1 1 0 0 1-1.42 0 1 1 0 0 1 0-1.42l2.24-2.24A11.33 11.33 0 0 1 45.49 9.43zM41 21a1 1 0 0 1-.71-.29 1 1 0 0 1 0-1.42l3.5-3.5a1 1 0 0 1 1.42 1.42l-3.5 3.5A1 1 0 0 1 41 21zM52.83 17.59l-4.12 4.12a1 1 0 0 1-1.42 0 1 1 0 0 1 0-1.42l4.5-4.5a1 1 0 0 1 .43-.25A10.79 10.79 0 0 1 52.83 17.59z"></path><path fill="url(#c)" d="M51.89,47.8a1,1,0,0,1,0-2c1.4,0,2.33-.28,2.62-.8.7-1.21-1.29-4.81-7.32-9.84a1,1,0,0,1,1.28-1.54c3.76,3.14,9.77,8.92,7.78,12.38C55.56,47.19,54.1,47.8,51.89,47.8Z"></path><path fill="url(#a)" d="M47.79,29.38c0-.25-.09-.5-.14-.74a13.74,13.74,0,0,0-.37-1.4c-.06-.2-.13-.4-.2-.6s-.22-.59-.34-.87-.18-.42-.28-.62a2.69,2.69,0,0,0-.19-.38c-.1-.21-.21-.42-.32-.62l0,0c-.12-.23-.26-.45-.4-.67s-.29-.44-.44-.66A16,16,0,0,0,43.62,21c-.18-.18-.35-.36-.54-.54s-.37-.35-.56-.51l-.58-.49L41.33,19c-.2-.15-.41-.29-.63-.43s-.43-.27-.65-.4a5.76,5.76,0,0,0-.6-.33l-.59-.29c-.21-.11-.42-.2-.63-.29L37.5,17l-.74-.25-.64-.19-.51-.12L35,16.28q-.37-.08-.75-.12l-.13,0-.62-.07c-.3,0-.59-.05-.89-.06H32c-.37,0-.73,0-1.09,0h0c-.36,0-.71.06-1.06.11a16,16,0,0,0-2.08.42l-.08,0c-.22.06-.44.12-.66.2l-.46.16a14,14,0,0,0-1.91.84c-.26.13-.5.26-.75.41s-.56.34-.83.52l-.07.05c-.28.19-.55.39-.81.59s-.53.43-.79.66l-.23.21c-.18.16-.35.32-.51.49s-.48.5-.7.76-.41.48-.61.73l-.06.08c-.2.27-.4.54-.58.82s-.38.58-.55.88h6.25a12.45,12.45,0,0,1,8.11,3,12.54,12.54,0,0,0,3.79,2.23,12.37,12.37,0,0,0,4.32.77h7.26C47.85,29.79,47.82,29.58,47.79,29.38Z"></path><path fill="url(#e)" d="M48,32a16,16,0,0,1-32,0,11.91,11.91,0,0,1,.05-1.2,14.74,14.74,0,0,1,.34-2.32A15.83,15.83,0,0,1,18.14,24c.17-.3.35-.59.55-.88s.38-.55.58-.82l.06-.08c.2-.25.4-.49.61-.73s.45-.51.7-.76.33-.33.51-.49l.52.19.94.34.69-1.87L23,18.78l.07-.05c.27-.18.55-.35.83-.52s.49-.28.75-.41A14,14,0,0,1,26.54,17L27,16.8c.22-.08.44-.14.66-.2l.08,0a16,16,0,0,1,2.08-.42c.35,0,.7-.09,1.06-.11h0c.36,0,.72,0,1.09,0h.6c.3,0,.59,0,.89.06l.62.07.13,0q.38,0,.75.12l.62.13.51.12.64.19.74.25.73.29c.21.09.42.18.63.29l.59.29a5.76,5.76,0,0,1,.6.33c.22.13.44.26.65.4s.43.28.63.43l.61.46.58.49c.19.16.38.34.56.51s.37.36.54.54a14.08,14.08,0,0,1,1.47,1.8c.15.22.3.43.44.66s.28.44.4.67l0,0c.11.2.22.41.32.62a2.69,2.69,0,0,1,.19.38c.1.2.2.41.28.62s.24.58.34.87.14.4.2.6a13.74,13.74,0,0,1,.37,1.4c.05.24.09.49.14.74s.06.41.08.62A14.71,14.71,0,0,1,48,32Z"></path><path fill="url(#b)" d="M48,32a15.55,15.55,0,0,1-.51,4H38.83A6.84,6.84,0,0,0,34,38a6.84,6.84,0,0,1-4.83,2h-11A15.91,15.91,0,0,1,16,32c0-.34,0-.67,0-1a13.2,13.2,0,0,1,.25-2,15.66,15.66,0,0,1,1.85-5h6.25a12.45,12.45,0,0,1,8.11,3,12.54,12.54,0,0,0,3.79,2.23,12.37,12.37,0,0,0,4.32.77h7.26A14.71,14.71,0,0,1,48,32Z"></path><path fill="url(#f)" d="M28,30a1,1,0,0,1-1,1H16a13.2,13.2,0,0,1,.25-2H27A1,1,0,0,1,28,30Z"></path><path fill="url(#g)" d="M45.09,22.8a1.05,1.05,0,0,1-.6.2H36a1,1,0,0,1,0-2h7.62A16,16,0,0,1,45.09,22.8Z"></path><circle cx="30" cy="34" r="2" fill="url(#h)"></circle><circle cx="9" cy="35" r="4" fill="url(#i)"></circle><circle cx="16" cy="12" r="1" fill="url(#j)"></circle><circle cx="57" cy="25" r="1" fill="url(#k)"></circle><circle cx="53" cy="34" r="1" fill="url(#l)"></circle><circle cx="35" cy="58" r="1" fill="url(#m)"></circle><circle cx="39" cy="51" r="1" fill="url(#n)"></circle><circle cx="12" cy="45" r="1" fill="url(#o)"></circle><circle cx="35" cy="6" r="1" fill="url(#p)"></circle><circle cx="27" cy="13" r="1" fill="url(#q)"></circle><circle cx="49" cy="46" r="3" fill="url(#r)"></circle><path fill="url(#s)" d="M44.76,45.46a1,1,0,0,1-1.27.63l-1.86-.64-.6-.23a93.24,93.24,0,0,1-13-6.29A92.43,92.43,0,0,1,16.05,30.8l-.52-.42C11.77,27.24,5.76,21.46,7.75,18s10-1.14,14.62.55l.61.23c-.28.19-.55.38-.81.59s-.53.43-.79.66l-.23.21c-7-2.53-11-2.43-11.66-1.24s1.2,4.64,6.9,9.48l.42.36A88.62,88.62,0,0,0,29,37.19a88.82,88.82,0,0,0,13.33,6.38l.52.19,1.28.44A1,1,0,0,1,44.76,45.46Z"></path><path fill="url(#t)" d="M31,51a7,7,0,1,1-9.18-6.65A6.82,6.82,0,0,1,24,44a7,7,0,0,1,7,7Z"></path></svg>