<svg width="481" height="586" viewBox="0 0 481 586" fill="none" xmlns="http://www.w3.org/2000/svg">
<g opacity="0.5">
<path d="M144.541 307.593C74.1857 237.226 74.1857 123.141 144.541 52.7745C214.896 -17.5915 328.964 -17.5915 399.319 52.7745C469.674 123.141 469.674 237.226 399.319 307.593C328.964 377.959 214.896 377.959 144.541 307.593Z" fill="#FF5C00"/>
<path d="M243.582 545.259C189.27 490.938 189.27 402.866 243.582 348.545C297.895 294.224 385.953 294.224 440.266 348.545C494.578 402.866 494.578 490.938 440.266 545.259C385.953 599.58 297.895 599.58 243.582 545.259Z" fill="#FF0099"/>
<path d="M38.8499 480.505C-12.95 428.697 -12.95 344.699 38.8499 292.892C90.6498 241.084 174.634 241.084 226.434 292.892C278.234 344.699 278.234 428.697 226.434 480.505C174.634 532.313 90.6498 532.313 38.8499 480.505Z" fill="#00FFF0"/>
</g>
</svg>
